  0
SECTION
  2
HEADER
  9
$ACADVER
  1
AC1015
  9
$ACADMAINTVER
 70
     6
  9
$DWGCODEPAGE
  3
ANSI_1252
  9
$INSBASE
 10
0.0
 20
0.0
 30
0.0
  9
$EXTMIN
 10
0.0
 20
0.0
 30
0.0
  9
$EXTMAX
 10
11.0
 20
8.5
 30
0.0
  9
$LIMMIN
 10
0.0
 20
0.0
  9
$LIMMAX
 10
11.0
 20
8.5
  9
$ORTHOMODE
 70
     0
  9
$REGENMODE
 70
     1
  9
$FILLMODE
 70
     1
  9
$QTEXTMODE
 70
     0
  9
$MIRRTEXT
 70
     1
  9
$LTSCALE
 40
1.0
  9
$ATTMODE
 70
     1
  9
$TEXTSIZE
 40
0.1377952756
  9
$TRACEWID
 40
0.05
  9
$TEXTSTYLE
  7
Standard
  9
$CLAYER
  8
0
  9
$CELTYPE
  6
ByLayer
  9
$CECOLOR
 62
   256
  9
$CELTSCALE
 40
1.0
  9
$DISPSILH
 70
     0
  9
$DIMSCALE
 40
1.0
  9
$DIMASZ
 40
0.14
  9
$DIMEXO
 40
0.0393700787
  9
$DIMDLI
 40
0.38
  9
$DIMRND
 40
0.0
  9
$DIMDLE
 40
0.0
  9
$DIMEXE
 40
0.0393700787
  9
$DIMTP
 40
0.0
  9
$DIMTM
 40
0.0
  9
$DIMTXT
 40
0.1377952756
  9
$DIMCEN
 40
0.09
  9
$DIMTSZ
 40
0.0
  9
$DIMTOL
 70
     0
  9
$DIMLIM
 70
     0
  9
$DIMTIH
 70
     1
  9
$DIMTOH
 70
     1
  9
$DIMSE1
 70
     0
  9
$DIMSE2
 70
     0
  9
$DIMTAD
 70
     1
  9
$DIMZIN
 70
     0
  9
$DIMBLK
  1

  9
$DIMASO
 70
     1
  9
$DIMSHO
 70
     1
  9
$DIMPOST
  1

  9
$DIMAPOST
  1

  9
$DIMALT
 70
     0
  9
$DIMALTD
 70
     2
  9
$DIMALTF
 40
25.4
  9
$DIMLFAC
 40
8.0
  9
$DIMTOFL
 70
     0
  9
$DIMTVP
 40
0.0
  9
$DIMTIX
 70
     0
  9
$DIMSOXD
 70
     0
  9
$DIMSAH
 70
     0
  9
$DIMBLK1
  1

  9
$DIMBLK2
  1

  9
$DIMSTYLE
  2
Standard
  9
$DIMCLRD
 70
     0
  9
$DIMCLRE
 70
     0
  9
$DIMCLRT
 70
     0
  9
$DIMTFAC
 40
1.0
  9
$DIMGAP
 40
0.06
  9
$DIMJUST
 70
     0
  9
$DIMSD1
 70
     0
  9
$DIMSD2
 70
     0
  9
$DIMTOLJ
 70
     1
  9
$DIMTZIN
 70
     0
  9
$DIMALTZ
 70
     0
  9
$DIMALTTZ
 70
     0
  9
$DIMUPT
 70
     0
  9
$DIMDEC
 70
     2
  9
$DIMTDEC
 70
     2
  9
$DIMALTU
 70
     2
  9
$DIMALTTD
 70
     2
  9
$DIMTXSTY
  7
Standard
  9
$DIMAUNIT
 70
     0
  9
$DIMADEC
 70
     2
  9
$DIMALTRND
 40
0.0
  9
$DIMAZIN
 70
     0
  9
$DIMDSEP
 70
    46
  9
$DIMATFIT
 70
     3
  9
$DIMFRAC
 70
     0
  9
$DIMLDRBLK
  1

  9
$DIMLUNIT
 70
     2
  9
$DIMLWD
 70
    -2
  9
$DIMLWE
 70
    -2
  9
$DIMTMOVE
 70
     0
  9
$LUNITS
 70
     2
  9
$LUPREC
 70
     5
  9
$SKETCHINC
 40
0.1
  9
$FILLETRAD
 40
0.5
  9
$AUNITS
 70
     0
  9
$AUPREC
 70
     2
  9
$MENU
  1
.
  9
$ELEVATION
 40
0.0
  9
$PELEVATION
 40
0.0
  9
$THICKNESS
 40
0.0
  9
$LIMCHECK
 70
     0
  9
$CHAMFERA
 40
0.5
  9
$CHAMFERB
 40
0.5
  9
$CHAMFERC
 40
1.0
  9
$CHAMFERD
 40
0.0
  9
$SKPOLY
 70
     0
  9
$TDCREATE
 40
2456905.827959803
  9
$TDUCREATE
 40
2456905.99462647
  9
$TDUPDATE
 40
2456905.827960139
  9
$TDUUPDATE
 40
2456905.994626806
  9
$TDINDWG
 40
0.0000000116
  9
$TDUSRTIMER
 40
0.0000000116
  9
$USRTIMER
 70
     1
  9
$ANGBASE
 50
0.0
  9
$ANGDIR
 70
     0
  9
$PDMODE
 70
     0
  9
$PDSIZE
 40
-1.0
  9
$PLINEWID
 40
0.0
  9
$SPLFRAME
 70
     0
  9
$SPLINETYPE
 70
     6
  9
$SPLINESEGS
 70
     8
  9
$HANDSEED
  5
2F1
  9
$SURFTAB1
 70
     6
  9
$SURFTAB2
 70
     6
  9
$SURFTYPE
 70
     6
  9
$SURFU
 70
     6
  9
$SURFV
 70
     6
  9
$UCSBASE
  2

  9
$UCSNAME
  2

  9
$UCSORG
 10
0.0
 20
0.0
 30
0.0
  9
$UCSXDIR
 10
1.0
 20
0.0
 30
0.0
  9
$UCSYDIR
 10
0.0
 20
1.0
 30
0.0
  9
$UCSORTHOREF
  2

  9
$UCSORTHOVIEW
 70
     0
  9
$UCSORGTOP
 10
0.0
 20
0.0
 30
0.0
  9
$UCSORGBOTTOM
 10
0.0
 20
0.0
 30
0.0
  9
$UCSORGLEFT
 10
0.0
 20
0.0
 30
0.0
  9
$UCSORGRIGHT
 10
0.0
 20
0.0
 30
0.0
  9
$UCSORGFRONT
 10
0.0
 20
0.0
 30
0.0
  9
$UCSORGBACK
 10
0.0
 20
0.0
 30
0.0
  9
$PUCSBASE
  2

  9
$PUCSNAME
  2

  9
$PUCSORG
 10
0.0
 20
0.0
 30
0.0
  9
$PUCSXDIR
 10
1.0
 20
0.0
 30
0.0
  9
$PUCSYDIR
 10
0.0
 20
1.0
 30
0.0
  9
$PUCSORTHOREF
  2

  9
$PUCSORTHOVIEW
 70
     0
  9
$PUCSORGTOP
 10
0.0
 20
0.0
 30
0.0
  9
$PUCSORGBOTTOM
 10
0.0
 20
0.0
 30
0.0
  9
$PUCSORGLEFT
 10
0.0
 20
0.0
 30
0.0
  9
$PUCSORGRIGHT
 10
0.0
 20
0.0
 30
0.0
  9
$PUCSORGFRONT
 10
0.0
 20
0.0
 30
0.0
  9
$PUCSORGBACK
 10
0.0
 20
0.0
 30
0.0
  9
$USERI1
 70
     0
  9
$USERI2
 70
     0
  9
$USERI3
 70
     0
  9
$USERI4
 70
     0
  9
$USERI5
 70
     0
  9
$USERR1
 40
0.0
  9
$USERR2
 40
0.0
  9
$USERR3
 40
0.0
  9
$USERR4
 40
0.0
  9
$USERR5
 40
0.0
  9
$WORLDVIEW
 70
     1
  9
$SHADEDGE
 70
     3
  9
$SHADEDIF
 70
    70
  9
$TILEMODE
 70
     1
  9
$MAXACTVP
 70
    64
  9
$PINSBASE
 10
0.0
 20
0.0
 30
0.0
  9
$PLIMCHECK
 70
     0
  9
$PEXTMIN
 10
1.0000000000E+20
 20
1.0000000000E+20
 30
1.0000000000E+20
  9
$PEXTMAX
 10
-1.0000000000E+20
 20
-1.0000000000E+20
 30
-1.0000000000E+20
  9
$PLIMMIN
 10
0.0
 20
0.0
  9
$PLIMMAX
 10
12.0
 20
9.0
  9
$UNITMODE
 70
     0
  9
$VISRETAIN
 70
     1
  9
$PLINEGEN
 70
     0
  9
$PSLTSCALE
 70
     1
  9
$TREEDEPTH
 70
  3020
  9
$CMLSTYLE
  2
Standard
  9
$CMLJUST
 70
     0
  9
$CMLSCALE
 40
1.0
  9
$PROXYGRAPHICS
 70
     1
  9
$MEASUREMENT
 70
     0
  9
$CELWEIGHT
370
    -1
  9
$ENDCAPS
280
     0
  9
$JOINSTYLE
280
     0
  9
$LWDISPLAY
290
     1
  9
$INSUNITS
 70
     1
  9
$HYPERLINKBASE
  1

  9
$STYLESHEET
  1

  9
$XEDIT
290
     1
  9
$CEPSNTYPE
380
     0
  9
$PSTYLEMODE
290
     1
  9
$FINGERPRINTGUID
  2
{A42C6CEA-22AC-4706-B05B-E7B6686C290C}
  9
$VERSIONGUID
  2
{FAEB1C32-E019-11D5-929B-00C0DF256EC4}
  9
$EXTNAMES
290
     1
  9
$PSVPSCALE
 40
0.0
  9
$OLESTARTUP
290
     0
  0
ENDSEC
  0
SECTION
  2
CLASSES
  0
CLASS
  1
ACDBDICTIONARYWDFLT
  2
AcDbDictionaryWithDefault
  3
ObjectDBX Classes
 90
        0
280
     0
281
     0
  0
CLASS
  1
VISUALSTYLE
  2
AcDbVisualStyle
  3
ObjectDBX Classes
 90
     4095
280
     0
281
     0
  0
CLASS
  1
MATERIAL
  2
AcDbMaterial
  3
ObjectDBX Classes
 90
     1153
280
     0
281
     0
  0
CLASS
  1
ACDBPLACEHOLDER
  2
AcDbPlaceHolder
  3
ObjectDBX Classes
 90
        0
280
     0
281
     0
  0
CLASS
  1
LAYOUT
  2
AcDbLayout
  3
ObjectDBX Classes
 90
        0
280
     0
281
     0
  0
ENDSEC
  0
SECTION
  2
TABLES
  0
TABLE
  2
VPORT
  5
8
330
0
100
AcDbSymbolTable
 70
     1
  0
VPORT
  5
29
330
8
100
AcDbSymbolTableRecord
100
AcDbViewportTableRecord
  2
*Active
 70
     0
 10
0.0
 20
0.0
 11
1.0
 21
1.0
 12
5.5
 22
4.25
 13
0.0
 23
0.0
 14
0.5
 24
0.5
 15
0.5
 25
0.5
 16
0.0
 26
0.0
 36
1.0
 17
0.0
 27
0.0
 37
0.0
 40
8.5
 41
1.2941176471
 42
50.0
 43
0.0
 44
0.0
 50
0.0
 51
0.0
 71
     0
 72
  2000
 73
     1
 74
     3
 75
     0
 76
     0
 77
     0
 78
     0
281
     0
 65
     1
110
0.0
120
0.0
130
0.0
111
1.0
121
0.0
131
0.0
112
0.0
122
1.0
132
0.0
 79
     0
146
0.0
  0
ENDTAB
  0
TABLE
  2
LTYPE
  5
5
330
0
100
AcDbSymbolTable
 70
     6
  0
LTYPE
  5
14
330
5
100
AcDbSymbolTableRecord
100
AcDbLinetypeTableRecord
  2
ByBlock
 70
     0
  3

 72
    65
 73
     0
 40
0.0
  0
LTYPE
  5
15
330
5
100
AcDbSymbolTableRecord
100
AcDbLinetypeTableRecord
  2
ByLayer
 70
     0
  3

 72
    65
 73
     0
 40
0.0
  0
LTYPE
  5
16
330
5
100
AcDbSymbolTableRecord
100
AcDbLinetypeTableRecord
  2
Continuous
 70
     0
  3
Solid line
 72
    65
 73
     0
 40
0.0
  0
LTYPE
  5
3F
330
5
100
AcDbSymbolTableRecord
100
AcDbLinetypeTableRecord
  2
HIDDEN
 70
     0
  3
Hidden __ __ __ __ __ __ __ __ __ __ __ __ __ __
 72
    65
 73
     2
 40
0.075
 49
0.05
 74
     0
 49
-0.025
 74
     0
  0
LTYPE
  5
40
330
5
100
AcDbSymbolTableRecord
100
AcDbLinetypeTableRecord
  2
PHANTOM
 70
     0
  3
Phantom ______  __  __  ______  __  __  ______
 72
    65
 73
     6
 40
0.5
 49
0.25
 74
     0
 49
-0.05
 74
     0
 49
0.05
 74
     0
 49
-0.05
 74
     0
 49
0.05
 74
     0
 49
-0.05
 74
     0
  0
LTYPE
  5
41
330
5
100
AcDbSymbolTableRecord
100
AcDbLinetypeTableRecord
  2
CENTER
 70
     0
  3
Center ____ _ ____ _ ____ _ ____ _ ____ _ ____
 72
    65
 73
     4
 40
0.4
 49
0.25
 74
     0
 49
-0.05
 74
     0
 49
0.05
 74
     0
 49
-0.05
 74
     0
  0
LTYPE
  5
42
330
5
100
AcDbSymbolTableRecord
100
AcDbLinetypeTableRecord
  2
CENTERX2
 70
     0
  3
Center (2x) ________  __  ________  __  _____
 72
    65
 73
     4
 40
0.8
 49
0.5
 74
     0
 49
-0.1
 74
     0
 49
0.1
 74
     0
 49
-0.1
 74
     0
  0
LTYPE
  5
43
330
5
100
AcDbSymbolTableRecord
100
AcDbLinetypeTableRecord
  2
DOT2
 70
     0
  3
Dot (.5x) ........................................
 72
    65
 73
     2
 40
0.025
 49
0.0
 74
     0
 49
-0.025
 74
     0
  0
ENDTAB
  0
TABLE
  2
LAYER
  5
2
330
0
100
AcDbSymbolTable
 70
     1
  0
LAYER
  5
10
330
2
100
AcDbSymbolTableRecord
100
AcDbLayerTableRecord
  2
0
 70
     0
 62
     7
  6
Continuous
370
    -3
390
F
  0
ENDTAB
  0
TABLE
  2
STYLE
  5
3
330
0
100
AcDbSymbolTable
 70
     2
  0
STYLE
  5
11
330
3
100
AcDbSymbolTableRecord
100
AcDbTextStyleTableRecord
  2
Standard
 70
     0
 40
0.0
 41
1.0
 50
0.0
 71
     0
 42
0.1377952756
  3
txt
  4

  0
STYLE
  5
2EE
330
3
100
AcDbSymbolTableRecord
100
AcDbTextStyleTableRecord
  2
SLDTEXTSTYLE0
 70
     0
 40
0.0
 41
0.7
 50
0.0
 71
     0
 42
0.2
  3
TXT
  4

  0
ENDTAB
  0
TABLE
  2
VIEW
  5
6
330
0
100
AcDbSymbolTable
 70
     0
  0
ENDTAB
  0
TABLE
  2
UCS
  5
7
330
0
100
AcDbSymbolTable
 70
     0
  0
ENDTAB
  0
TABLE
  2
APPID
  5
9
330
0
100
AcDbSymbolTable
 70
     1
  0
APPID
  5
12
330
9
100
AcDbSymbolTableRecord
100
AcDbRegAppTableRecord
  2
ACAD
 70
     0
  0
ENDTAB
  0
TABLE
  2
DIMSTYLE
  5
A
330
0
100
AcDbSymbolTable
 70
     1
100
AcDbDimStyleTable
  0
DIMSTYLE
105
27
330
A
100
AcDbSymbolTableRecord
100
AcDbDimStyleTableRecord
  2
Standard
 70
     0
178
     0
340
11
  0
ENDTAB
  0
TABLE
  2
BLOCK_RECORD
  5
1
330
0
100
AcDbSymbolTable
 70
     1
  0
BLOCK_RECORD
  5
1F
330
1
100
AcDbSymbolTableRecord
100
AcDbBlockTableRecord
  2
*Model_Space
340
22
  0
BLOCK_RECORD
  5
1B
330
1
100
AcDbSymbolTableRecord
100
AcDbBlockTableRecord
  2
*Paper_Space
340
1E
  0
BLOCK_RECORD
  5
23
330
1
100
AcDbSymbolTableRecord
100
AcDbBlockTableRecord
  2
*Paper_Space0
340
26
  0
ENDTAB
  0
ENDSEC
  0
SECTION
  2
BLOCKS
  0
BLOCK
  5
20
330
1F
100
AcDbEntity
  8
0
100
AcDbBlockBegin
  2
*Model_Space
 70
     0
 10
0.0
 20
0.0
 30
0.0
  3
*Model_Space
  1

  0
ENDBLK
  5
21
330
1F
100
AcDbEntity
  8
0
100
AcDbBlockEnd
  0
BLOCK
  5
1C
330
1B
100
AcDbEntity
 67
     1
  8
0
100
AcDbBlockBegin
  2
*Paper_Space
 70
     0
 10
0.0
 20
0.0
 30
0.0
  3
*Paper_Space
  1

  0
ENDBLK
  5
1D
330
1B
100
AcDbEntity
 67
     1
  8
0
100
AcDbBlockEnd
  0
BLOCK
  5
24
330
23
100
AcDbEntity
  8
0
100
AcDbBlockBegin
  2
*Paper_Space0
 70
     0
 10
0.0
 20
0.0
 30
0.0
  3
*Paper_Space0
  1

  0
ENDBLK
  5
25
330
23
100
AcDbEntity
  8
0
100
AcDbBlockEnd
  0
ENDSEC
  0
SECTION
  2
ENTITIES
  0
LINE
  5
44
330
1F
100
AcDbEntity
  8
0
  6
Continuous
 62
     7
370
    15
100
AcDbLine
 10
24.145721126
 20
-2.9406076254
 30
0.0
 11
24.5750881126
 21
-2.5658891808
 31
0.0
  0
ARC
  5
45
330
1F
100
AcDbEntity
  8
0
  6
Continuous
 62
     7
370
    15
100
AcDbCircle
 10
24.7394711061
 20
-2.7542441951
 30
0.0
 40
0.2500000000000031
100
AcDbArc
 50
90.0
 51
131.1120904392
  0
LINE
  5
46
330
1F
100
AcDbEntity
  8
0
  6
Continuous
 62
     7
370
    15
100
AcDbLine
 10
25.8957205365
 20
-2.5042453063
 30
0.0
 11
24.7394713869
 21
-2.5042453063
 31
0.0
  0
ARC
  5
47
330
1F
100
AcDbEntity
  8
0
  6
Continuous
 62
     7
370
    15
100
AcDbCircle
 10
25.8957211061
 20
-2.7542441951
 30
0.0
 40
0.2500000000000031
100
AcDbArc
 50
0.0
 51
90.0
  0
LINE
  5
48
330
1F
100
AcDbEntity
  8
0
  6
Continuous
 62
     7
370
    15
100
AcDbLine
 10
26.1457209551
 20
-4.5042439621
 30
0.0
 11
26.1457209551
 21
-2.7542445516
 31
0.0
  0
ARC
  5
49
330
1F
100
AcDbEntity
  8
0
  6
Continuous
 62
     7
370
    15
100
AcDbCircle
 10
25.8957211061
 20
-4.5042441951
 30
0.0
 40
0.2499999999999982
100
AcDbArc
 50
270.0
 51
0.0
  0
ARC
  5
4A
330
1F
100
AcDbEntity
  8
0
  6
Continuous
 62
     7
370
    15
100
AcDbCircle
 10
25.8957211061
 20
-4.5042441951
 30
0.0
 40
0.25
100
AcDbArc
 50
180.0
 51
270.0
  0
LINE
  5
4B
330
1F
100
AcDbEntity
  8
0
  6
Continuous
 62
     7
370
    15
100
AcDbLine
 10
25.6457212912
 20
-4.5042439621
 30
0.0
 11
25.6457212912
 21
-3.5042446342
 31
0.0
  0
ARC
  5
4C
330
1F
100
AcDbEntity
  8
0
  6
Continuous
 62
     7
370
    15
100
AcDbCircle
 10
25.3957211061
 20
-3.5042441951
 30
0.0
 40
0.25
100
AcDbArc
 50
0.0
 51
90.0
  0
LINE
  5
4D
330
1F
100
AcDbEntity
  8
0
  6
Continuous
 62
     7
370
    15
100
AcDbLine
 10
25.3957208725
 20
-3.2542430423
 30
0.0
 11
22.8957213794
 21
-3.2542430423
 31
0.0
  0
ARC
  5
4E
330
1F
100
AcDbEntity
  8
0
  6
Continuous
 62
     7
370
    15
100
AcDbCircle
 10
22.8957211061
 20
-3.5042441951
 30
0.0
 40
0.2499999999999987
100
AcDbArc
 50
90.0
 51
180.0
  0
LINE
  5
4F
330
1F
100
AcDbEntity
  8
0
  6
Continuous
 62
     7
370
    15
100
AcDbLine
 10
22.6457209608
 20
-3.5042446342
 30
0.0
 11
22.6457209608
 21
-4.5042439621
 31
0.0
  0
ARC
  5
50
330
1F
100
AcDbEntity
  8
0
  6
Continuous
 62
     7
370
    15
100
AcDbCircle
 10
22.3957211061
 20
-4.5042441951
 30
0.0
 40
0.2500000000000036
100
AcDbArc
 50
270.0
 51
0.0
  0
ARC
  5
51
330
1F
100
AcDbEntity
  8
0
  6
Continuous
 62
     7
370
    15
100
AcDbCircle
 10
22.3957211061
 20
-4.5042441951
 30
0.0
 40
0.2500000000000036
100
AcDbArc
 50
180.0
 51
270.0
  0
LINE
  5
52
330
1F
100
AcDbEntity
  8
0
  6
Continuous
 62
     7
370
    15
100
AcDbLine
 10
22.1457212968
 20
-2.7542445516
 30
0.0
 11
22.1457212968
 21
-4.5042439621
 31
0.0
  0
ARC
  5
53
330
1F
100
AcDbEntity
  8
0
  6
Continuous
 62
     7
370
    15
100
AcDbCircle
 10
22.3957211061
 20
-2.7542441951
 30
0.0
 40
0.2500000000000036
100
AcDbArc
 50
90.0
 51
180.0
  0
LINE
  5
54
330
1F
100
AcDbEntity
  8
0
  6
Continuous
 62
     7
370
    15
100
AcDbLine
 10
23.551970865
 20
-2.5042453063
 30
0.0
 11
22.3957205421
 21
-2.5042453063
 31
0.0
  0
ARC
  5
55
330
1F
100
AcDbEntity
  8
0
  6
Continuous
 62
     7
370
    15
100
AcDbCircle
 10
23.5519711061
 20
-2.7542441951
 30
0.0
 40
0.2500000000000031
100
AcDbArc
 50
48.8879095608
 51
90.0
  0
LINE
  5
56
330
1F
100
AcDbEntity
  8
0
  6
Continuous
 62
     7
370
    15
100
AcDbLine
 10
23.7163541394
 20
-2.5658891808
 30
0.0
 11
24.145721126
 21
-2.9406076254
 31
0.0
  0
CIRCLE
  5
57
330
1F
100
AcDbEntity
  8
0
  6
Continuous
 62
     7
370
    15
100
AcDbCircle
 10
25.8957211061
 20
-3.5042441951
 30
0.0
 40
0.0885000000000034
  0
CIRCLE
  5
58
330
1F
100
AcDbEntity
  8
0
  6
Continuous
 62
     7
370
    15
100
AcDbCircle
 10
25.8957211061
 20
-4.5042441951
 30
0.0
 40
0.0885000000000025
  0
CIRCLE
  5
59
330
1F
100
AcDbEntity
  8
0
  6
Continuous
 62
     7
370
    15
100
AcDbCircle
 10
22.3957211061
 20
-4.5042441951
 30
0.0
 40
0.088499999999998
  0
CIRCLE
  5
5A
330
1F
100
AcDbEntity
  8
0
  6
Continuous
 62
     7
370
    15
100
AcDbCircle
 10
22.3957211061
 20
-3.5042441951
 30
0.0
 40
0.0884999999999989
  0
CIRCLE
  5
5B
330
1F
100
AcDbEntity
  8
0
  6
Continuous
 62
     7
370
    15
100
AcDbCircle
 10
26.5049389674
 20
-4.5821616114
 30
0.0
 40
0.0885000000000034
  0
CIRCLE
  5
5C
330
1F
100
AcDbEntity
  8
0
  6
Continuous
 62
     7
370
    15
100
AcDbCircle
 10
26.5049389674
 20
-3.5821616114
 30
0.0
 40
0.0884999999999989
  0
CIRCLE
  5
5D
330
1F
100
AcDbEntity
  8
0
  6
Continuous
 62
     7
370
    15
100
AcDbCircle
 10
23.0049389674
 20
-3.5821616114
 30
0.0
 40
0.0884999999999989
  0
CIRCLE
  5
5E
330
1F
100
AcDbEntity
  8
0
  6
Continuous
 62
     7
370
    15
100
AcDbCircle
 10
23.0049389674
 20
-4.5821616114
 30
0.0
 40
0.0884999999999989
  0
ARC
  5
5F
330
1F
100
AcDbEntity
  8
0
  6
Continuous
 62
     7
370
    15
100
AcDbCircle
 10
23.0049389674
 20
-5.3321616114
 30
0.0
 40
0.2499999999999991
100
AcDbArc
 50
180.0
 51
270.0
  0
LINE
  5
60
330
1F
100
AcDbEntity
  8
0
  6
Continuous
 62
     7
370
    15
100
AcDbLine
 10
22.7549394324
 20
-5.3321618646
 30
0.0
 11
22.7549394324
 21
-3.5821624541
 31
0.0
  0
LINE
  5
61
330
1F
100
AcDbEntity
  8
0
  6
Continuous
 62
     7
370
    15
100
AcDbLine
 10
23.2549390964
 20
-4.582161782
 30
0.0
 11
23.2549390964
 21
-3.5821624541
 31
0.0
  0
ARC
  5
62
330
1F
100
AcDbEntity
  8
0
  6
Continuous
 62
     7
370
    15
100
AcDbCircle
 10
23.5049389674
 20
-4.5821616114
 30
0.0
 40
0.25
100
AcDbArc
 50
180.0
 51
270.0
  0
LINE
  5
63
330
1F
100
AcDbEntity
  8
0
  6
Continuous
 62
     7
370
    15
100
AcDbLine
 10
26.0049390081
 20
-4.8321610273
 30
0.0
 11
23.504939515
 21
-4.8321610273
 31
0.0
  0
ARC
  5
64
330
1F
100
AcDbEntity
  8
0
  6
Continuous
 62
     7
370
    15
100
AcDbCircle
 10
26.0049389674
 20
-4.5821616114
 30
0.0
 40
0.25
100
AcDbArc
 50
270.0
 51
0.0
  0
LINE
  5
65
330
1F
100
AcDbEntity
  8
0
  6
Continuous
 62
     7
370
    15
100
AcDbLine
 10
26.2549394268
 20
-3.5821624541
 30
0.0
 11
26.2549394268
 21
-4.582161782
 31
0.0
  0
LINE
  5
66
330
1F
100
AcDbEntity
  8
0
  6
Continuous
 62
     7
370
    15
100
AcDbLine
 10
26.7549390907
 20
-3.5821624541
 30
0.0
 11
26.7549390907
 21
-5.3321618646
 31
0.0
  0
ARC
  5
67
330
1F
100
AcDbEntity
  8
0
  6
Continuous
 62
     7
370
    15
100
AcDbCircle
 10
26.5049389674
 20
-5.3321616114
 30
0.0
 40
0.2500000000000036
100
AcDbArc
 50
270.0
 51
0.0
  0
LINE
  5
68
330
1F
100
AcDbEntity
  8
0
  6
Continuous
 62
     7
370
    15
100
AcDbLine
 10
26.5049386721
 20
-5.5821611099
 30
0.0
 11
25.3486895225
 21
-5.5821611099
 31
0.0
  0
ARC
  5
69
330
1F
100
AcDbEntity
  8
0
  6
Continuous
 62
     7
370
    15
100
AcDbCircle
 10
25.3486889674
 20
-5.3321616114
 30
0.0
 40
0.2500000000000036
100
AcDbArc
 50
228.8879095608
 51
270.0
  0
LINE
  5
6A
330
1F
100
AcDbEntity
  8
0
  6
Continuous
 62
     7
370
    15
100
AcDbLine
 10
24.7549392616
 20
-5.1457987908
 30
0.0
 11
25.1843050748
 21
-5.5205172354
 31
0.0
  0
LINE
  5
6B
330
1F
100
AcDbEntity
  8
0
  6
Continuous
 62
     7
370
    15
100
AcDbLine
 10
24.325572275
 20
-5.5205172354
 30
0.0
 11
24.7549392616
 21
-5.1457987908
 31
0.0
  0
ARC
  5
6C
330
1F
100
AcDbEntity
  8
0
  6
Continuous
 62
     7
370
    15
100
AcDbCircle
 10
24.1611889674
 20
-5.3321616114
 30
0.0
 40
0.2499999999999991
100
AcDbArc
 50
270.0
 51
311.1120904392
  0
LINE
  5
6D
330
1F
100
AcDbEntity
  8
0
  6
Continuous
 62
     7
370
    15
100
AcDbLine
 10
24.1611890006
 20
-5.5821611099
 30
0.0
 11
23.0049386777
 21
-5.5821611099
 31
0.0
  0
ARC
  5
6E
330
1F
100
AcDbEntity
  8
0
  6
Continuous
 62
     7
370
    15
100
AcDbCircle
 10
23.0049389674
 20
-3.5821616114
 30
0.0
 40
0.2500000000000031
100
AcDbArc
 50
90.0
 51
180.0
  0
ARC
  5
6F
330
1F
100
AcDbEntity
  8
0
  6
Continuous
 62
     7
370
    15
100
AcDbCircle
 10
26.5049389674
 20
-3.5821616114
 30
0.0
 40
0.25
100
AcDbArc
 50
90.0
 51
180.0
  0
ARC
  5
70
330
1F
100
AcDbEntity
  8
0
  6
Continuous
 62
     7
370
    15
100
AcDbCircle
 10
23.0049389674
 20
-3.5821616114
 30
0.0
 40
0.2500000000000031
100
AcDbArc
 50
0.0
 51
90.0
  0
ARC
  5
71
330
1F
100
AcDbEntity
  8
0
  6
Continuous
 62
     7
370
    15
100
AcDbCircle
 10
26.5049389674
 20
-3.5821616114
 30
0.0
 40
0.2500000000000036
100
AcDbArc
 50
0.0
 51
90.0
  0
CIRCLE
  5
72
330
1F
100
AcDbEntity
  8
0
  6
Continuous
 62
     7
370
    15
100
AcDbCircle
 10
26.6523090044
 20
-7.8932583791
 30
0.0
 40
0.0885000000000034
  0
CIRCLE
  5
73
330
1F
100
AcDbEntity
  8
0
  6
Continuous
 62
     7
370
    15
100
AcDbCircle
 10
26.6523090044
 20
-6.8932583791
 30
0.0
 40
0.0884999999999989
  0
CIRCLE
  5
74
330
1F
100
AcDbEntity
  8
0
  6
Continuous
 62
     7
370
    15
100
AcDbCircle
 10
23.1523090044
 20
-6.8932583791
 30
0.0
 40
0.0884999999999989
  0
CIRCLE
  5
75
330
1F
100
AcDbEntity
  8
0
  6
Continuous
 62
     7
370
    15
100
AcDbCircle
 10
23.1523090044
 20
-7.8932583791
 30
0.0
 40
0.0884999999999989
  0
ARC
  5
76
330
1F
100
AcDbEntity
  8
0
  6
Continuous
 62
     7
370
    15
100
AcDbCircle
 10
23.1523090044
 20
-8.6432583791
 30
0.0
 40
0.25
100
AcDbArc
 50
180.0
 51
270.0
  0
LINE
  5
77
330
1F
100
AcDbEntity
  8
0
  6
Continuous
 62
     7
370
    15
100
AcDbLine
 10
22.90230957
 20
-8.6432585479
 30
0.0
 11
22.90230957
 21
-6.8932591374
 31
0.0
  0
ARC
  5
78
330
1F
100
AcDbEntity
  8
0
  6
Continuous
 62
     7
370
    15
100
AcDbCircle
 10
23.1523090044
 20
-6.8932583791
 30
0.0
 40
0.2500000000000036
100
AcDbArc
 50
90.0
 51
180.0
  0
ARC
  5
79
330
1F
100
AcDbEntity
  8
0
  6
Continuous
 62
     7
370
    15
100
AcDbCircle
 10
23.1523090044
 20
-6.8932583791
 30
0.0
 40
0.2500000000000036
100
AcDbArc
 50
0.0
 51
90.0
  0
LINE
  5
7A
330
1F
100
AcDbEntity
  8
0
  6
Continuous
 62
     7
370
    15
100
AcDbLine
 10
23.4023092339
 20
-7.8932584653
 30
0.0
 11
23.4023092339
 21
-6.8932591374
 31
0.0
  0
ARC
  5
7B
330
1F
100
AcDbEntity
  8
0
  6
Continuous
 62
     7
370
    15
100
AcDbCircle
 10
23.6523090044
 20
-7.8932583791
 30
0.0
 40
0.25
100
AcDbArc
 50
180.0
 51
270.0
  0
LINE
  5
7C
330
1F
100
AcDbEntity
  8
0
  6
Continuous
 62
     7
370
    15
100
AcDbLine
 10
26.1523091457
 20
-8.1432577106
 30
0.0
 11
23.6523084793
 21
-8.1432577106
 31
0.0
  0
ARC
  5
7D
330
1F
100
AcDbEntity
  8
0
  6
Continuous
 62
     7
370
    15
100
AcDbCircle
 10
26.1523090044
 20
-7.8932583791
 30
0.0
 40
0.25
100
AcDbArc
 50
270.0
 51
0.0
  0
LINE
  5
7E
330
1F
100
AcDbEntity
  8
0
  6
Continuous
 62
     7
370
    15
100
AcDbLine
 10
26.4023095643
 20
-6.8932591374
 30
0.0
 11
26.4023095643
 21
-7.8932584653
 31
0.0
  0
ARC
  5
7F
330
1F
100
AcDbEntity
  8
0
  6
Continuous
 62
     7
370
    15
100
AcDbCircle
 10
26.6523090044
 20
-6.8932583791
 30
0.0
 40
0.2500000000000036
100
AcDbArc
 50
90.0
 51
180.0
  0
ARC
  5
80
330
1F
100
AcDbEntity
  8
0
  6
Continuous
 62
     7
370
    15
100
AcDbCircle
 10
26.6523090044
 20
-6.8932583791
 30
0.0
 40
0.2500000000000036
100
AcDbArc
 50
0.0
 51
90.0
  0
LINE
  5
81
330
1F
100
AcDbEntity
  8
0
  6
Continuous
 62
     7
370
    15
100
AcDbLine
 10
26.9023092283
 20
-6.8932591374
 30
0.0
 11
26.9023092283
 21
-8.6432585479
 31
0.0
  0
ARC
  5
82
330
1F
100
AcDbEntity
  8
0
  6
Continuous
 62
     7
370
    15
100
AcDbCircle
 10
26.6523090044
 20
-8.6432583791
 30
0.0
 40
0.2500000000000036
100
AcDbArc
 50
270.0
 51
0.0
  0
LINE
  5
83
330
1F
100
AcDbEntity
  8
0
  6
Continuous
 62
     7
370
    15
100
AcDbLine
 10
26.6523088097
 20
-8.8932577932
 30
0.0
 11
25.4960584868
 21
-8.8932577932
 31
0.0
  0
ARC
  5
84
330
1F
100
AcDbEntity
  8
0
  6
Continuous
 62
     7
370
    15
100
AcDbCircle
 10
25.4960590044
 20
-8.6432583791
 30
0.0
 40
0.2500000000000018
100
AcDbArc
 50
228.8879095608
 51
270.0
  0
LINE
  5
85
330
1F
100
AcDbEntity
  8
0
  6
Continuous
 62
     7
370
    15
100
AcDbLine
 10
24.9023093991
 20
-8.4568954741
 30
0.0
 11
25.3316752124
 21
-8.8316139187
 31
0.0
  0
LINE
  5
86
330
1F
100
AcDbEntity
  8
0
  6
Continuous
 62
     7
370
    15
100
AcDbLine
 10
24.4729424126
 20
-8.8316139187
 30
0.0
 11
24.9023093991
 21
-8.4568954741
 31
0.0
  0
ARC
  5
87
330
1F
100
AcDbEntity
  8
0
  6
Continuous
 62
     7
370
    15
100
AcDbCircle
 10
24.3085590044
 20
-8.6432583791
 30
0.0
 40
0.2499999999999982
100
AcDbArc
 50
270.0
 51
311.1120904392
  0
LINE
  5
88
330
1F
100
AcDbEntity
  8
0
  6
Continuous
 62
     7
370
    15
100
AcDbLine
 10
24.3085591382
 20
-8.8932577932
 30
0.0
 11
23.1523088153
 21
-8.8932577932
 31
0.0
  0
LINE
  5
89
330
1F
100
AcDbEntity
  8
0
  6
Continuous
 62
     7
370
    15
100
AcDbLine
 10
24.2351879325
 20
-6.1655568238
 30
0.0
 11
24.664554919
 21
-5.7908383793
 31
0.0
  0
ARC
  5
8A
330
1F
100
AcDbEntity
  8
0
  6
Continuous
 62
     7
370
    15
100
AcDbCircle
 10
24.8289380692
 20
-5.9791940662
 30
0.0
 40
0.2500000000000027
100
AcDbArc
 50
90.0
 51
131.1120904392
  0
ARC
  5
8B
330
1F
100
AcDbEntity
  8
0
  6
Continuous
 62
     7
370
    15
100
AcDbCircle
 10
25.9851880692
 20
-5.9791940662
 30
0.0
 40
0.2500000000000027
100
AcDbArc
 50
0.0
 51
90.0
  0
LINE
  5
8C
330
1F
100
AcDbEntity
  8
0
  6
Continuous
 62
     7
370
    15
100
AcDbLine
 10
26.2351877616
 20
-7.7291931606
 30
0.0
 11
26.2351877616
 21
-5.9791937501
 31
0.0
  0
ARC
  5
8D
330
1F
100
AcDbEntity
  8
0
  6
Continuous
 62
     7
370
    15
100
AcDbCircle
 10
25.9851880692
 20
-7.7291940662
 30
0.0
 40
0.25
100
AcDbArc
 50
270.0
 51
0.0
  0
ARC
  5
8E
330
1F
100
AcDbEntity
  8
0
  6
Continuous
 62
     7
370
    15
100
AcDbCircle
 10
25.9851880692
 20
-7.7291940662
 30
0.0
 40
0.2499999999999991
100
AcDbArc
 50
180.0
 51
270.0
  0
LINE
  5
8F
330
1F
100
AcDbEntity
  8
0
  6
Continuous
 62
     7
370
    15
100
AcDbLine
 10
25.7351880977
 20
-7.7291931606
 30
0.0
 11
25.7351880977
 21
-6.7291938327
 31
0.0
  0
ARC
  5
90
330
1F
100
AcDbEntity
  8
0
  6
Continuous
 62
     7
370
    15
100
AcDbCircle
 10
25.4851880692
 20
-6.7291940662
 30
0.0
 40
0.2499999999999982
100
AcDbArc
 50
0.0
 51
90.0
  0
LINE
  5
91
330
1F
100
AcDbEntity
  8
0
  6
Continuous
 62
     7
370
    15
100
AcDbLine
 10
25.485187679
 20
-6.4791945873
 30
0.0
 11
22.9851881859
 21
-6.4791945873
 31
0.0
  0
ARC
  5
92
330
1F
100
AcDbEntity
  8
0
  6
Continuous
 62
     7
370
    15
100
AcDbCircle
 10
22.9851880692
 20
-6.7291940662
 30
0.0
 40
0.25
100
AcDbArc
 50
90.0
 51
180.0
  0
LINE
  5
93
330
1F
100
AcDbEntity
  8
0
  6
Continuous
 62
     7
370
    15
100
AcDbLine
 10
22.7351877673
 20
-6.7291938327
 30
0.0
 11
22.7351877673
 21
-7.7291931606
 31
0.0
  0
ARC
  5
94
330
1F
100
AcDbEntity
  8
0
  6
Continuous
 62
     7
370
    15
100
AcDbCircle
 10
22.4851880692
 20
-7.7291940662
 30
0.0
 40
0.2500000000000036
100
AcDbArc
 50
270.0
 51
0.0
  0
ARC
  5
95
330
1F
100
AcDbEntity
  8
0
  6
Continuous
 62
     7
370
    15
100
AcDbCircle
 10
22.4851880692
 20
-7.7291940662
 30
0.0
 40
0.25
100
AcDbArc
 50
180.0
 51
270.0
  0
LINE
  5
96
330
1F
100
AcDbEntity
  8
0
  6
Continuous
 62
     7
370
    15
100
AcDbLine
 10
22.2351881033
 20
-5.9791937501
 30
0.0
 11
22.2351881033
 21
-7.7291931606
 31
0.0
  0
ARC
  5
97
330
1F
100
AcDbEntity
  8
0
  6
Continuous
 62
     7
370
    15
100
AcDbCircle
 10
23.6414380692
 20
-5.9791940662
 30
0.0
 40
0.2500000000000027
100
AcDbArc
 50
48.8879095608
 51
90.0
  0
LINE
  5
98
330
1F
100
AcDbEntity
  8
0
  6
Continuous
 62
     7
370
    15
100
AcDbLine
 10
23.8058221192
 20
-5.7908383793
 30
0.0
 11
24.2351879325
 21
-6.1655568238
 31
0.0
  0
CIRCLE
  5
99
330
1F
100
AcDbEntity
  8
0
  6
Continuous
 62
     7
370
    15
100
AcDbCircle
 10
25.9851880692
 20
-6.7291940662
 30
0.0
 40
0.0885000000000034
  0
CIRCLE
  5
9A
330
1F
100
AcDbEntity
  8
0
  6
Continuous
 62
     7
370
    15
100
AcDbCircle
 10
25.9851880692
 20
-7.7291940662
 30
0.0
 40
0.0885000000000034
  0
CIRCLE
  5
9B
330
1F
100
AcDbEntity
  8
0
  6
Continuous
 62
     7
370
    15
100
AcDbCircle
 10
22.4851880692
 20
-7.7291940662
 30
0.0
 40
0.0884999999999989
  0
CIRCLE
  5
9C
330
1F
100
AcDbEntity
  8
0
  6
Continuous
 62
     7
370
    15
100
AcDbCircle
 10
22.4851880692
 20
-6.7291940662
 30
0.0
 40
0.0884999999999989
  0
ARC
  5
9D
330
1F
100
AcDbEntity
  8
0
  6
Continuous
 62
     7
370
    15
100
AcDbCircle
 10
22.4851880692
 20
-5.9791940662
 30
0.0
 40
0.2500000000000027
100
AcDbArc
 50
90.0
 51
180.0
  0
LINE
  5
9E
330
1F
100
AcDbEntity
  8
0
  6
Continuous
 62
     7
370
    15
100
AcDbLine
 10
25.9851885163
 20
-5.7291945047
 30
0.0
 11
24.8289381934
 21
-5.7291945047
 31
0.0
  0
LINE
  5
9F
330
1F
100
AcDbEntity
  8
0
  6
Continuous
 62
     7
370
    15
100
AcDbLine
 10
23.6414376715
 20
-5.7291945047
 30
0.0
 11
22.4851885219
 21
-5.7291945047
 31
0.0
  0
LINE
  5
A0
330
1F
100
AcDbEntity
  8
0
  6
Continuous
 62
     7
370
    15
100
AcDbLine
 10
19.1542891341
 20
11.9020647508
 30
0.0
 11
15.0121532244
 21
11.9020647508
 31
0.0
  0
LINE
  5
A1
330
1F
100
AcDbEntity
  8
0
  6
Continuous
 62
     7
370
    15
100
AcDbLine
 10
22.0832208988
 20
8.9731323994
 30
0.0
 11
19.1542891341
 21
11.9020647508
 31
0.0
  0
LINE
  5
A2
330
1F
100
AcDbEntity
  8
0
  6
Continuous
 62
     7
370
    15
100
AcDbLine
 10
22.0832208988
 20
4.830996783
 30
0.0
 11
22.0832208988
 21
8.9731323994
 31
0.0
  0
LINE
  5
A3
330
1F
100
AcDbEntity
  8
0
  6
Continuous
 62
     7
370
    15
100
AcDbLine
 10
19.1542891341
 20
1.9020644316
 30
0.0
 11
22.0832208988
 21
4.830996783
 31
0.0
  0
LINE
  5
A4
330
1F
100
AcDbEntity
  8
0
  6
Continuous
 62
     7
370
    15
100
AcDbLine
 10
15.0121532244
 20
1.9020644316
 30
0.0
 11
19.1542891341
 21
1.9020644316
 31
0.0
  0
LINE
  5
A5
330
1F
100
AcDbEntity
  8
0
  6
Continuous
 62
     7
370
    15
100
AcDbLine
 10
12.0832211113
 20
4.830996783
 30
0.0
 11
15.0121532244
 21
1.9020644316
 31
0.0
  0
LINE
  5
A6
330
1F
100
AcDbEntity
  8
0
  6
Continuous
 62
     7
370
    15
100
AcDbLine
 10
12.0832211113
 20
8.9731323994
 30
0.0
 11
12.0832211113
 21
4.830996783
 31
0.0
  0
LINE
  5
A7
330
1F
100
AcDbEntity
  8
0
  6
Continuous
 62
     7
370
    15
100
AcDbLine
 10
15.0121532244
 20
11.9020647508
 30
0.0
 11
12.0832211113
 21
8.9731323994
 31
0.0
  0
LINE
  5
A8
330
1F
100
AcDbEntity
  8
0
  6
Continuous
 62
     7
370
    15
100
AcDbLine
 10
16.208221034
 20
11.7770645415
 30
0.0
 11
15.7082210767
 21
11.7770645415
 31
0.0
  0
LINE
  5
A9
330
1F
100
AcDbEntity
  8
0
  6
Continuous
 62
     7
370
    15
100
AcDbLine
 10
15.7082210767
 20
11.7770645415
 30
0.0
 11
15.7082210767
 21
11.5270647095
 31
0.0
  0
LINE
  5
AA
330
1F
100
AcDbEntity
  8
0
  6
Continuous
 62
     7
370
    15
100
AcDbLine
 10
15.7082210767
 20
11.5270647095
 30
0.0
 11
16.208221034
 21
11.5270647095
 31
0.0
  0
LINE
  5
AB
330
1F
100
AcDbEntity
  8
0
  6
Continuous
 62
     7
370
    15
100
AcDbLine
 10
16.208221034
 20
11.5270647095
 30
0.0
 11
16.208221034
 21
11.7770645415
 31
0.0
  0
LINE
  5
AC
330
1F
100
AcDbEntity
  8
0
  6
Continuous
 62
     7
370
    15
100
AcDbLine
 10
18.4582212818
 20
11.7770645415
 30
0.0
 11
17.9582210312
 21
11.7770645415
 31
0.0
  0
LINE
  5
AD
330
1F
100
AcDbEntity
  8
0
  6
Continuous
 62
     7
370
    15
100
AcDbLine
 10
17.9582210312
 20
11.7770645415
 30
0.0
 11
17.9582210312
 21
11.5270647095
 31
0.0
  0
LINE
  5
AE
330
1F
100
AcDbEntity
  8
0
  6
Continuous
 62
     7
370
    15
100
AcDbLine
 10
17.9582210312
 20
11.5270647095
 30
0.0
 11
18.4582212818
 21
11.5270647095
 31
0.0
  0
LINE
  5
AF
330
1F
100
AcDbEntity
  8
0
  6
Continuous
 62
     7
370
    15
100
AcDbLine
 10
18.4582212818
 20
11.5270647095
 30
0.0
 11
18.4582212818
 21
11.7770645415
 31
0.0
  0
LINE
  5
B0
330
1F
100
AcDbEntity
  8
0
  6
Continuous
 62
     7
370
    15
100
AcDbLine
 10
18.4582212818
 20
9.9020649216
 30
0.0
 11
17.9582210312
 21
9.9020649216
 31
0.0
  0
LINE
  5
B1
330
1F
100
AcDbEntity
  8
0
  6
Continuous
 62
     7
370
    15
100
AcDbLine
 10
17.9582210312
 20
9.9020649216
 30
0.0
 11
17.9582210312
 21
9.652064503
 31
0.0
  0
LINE
  5
B2
330
1F
100
AcDbEntity
  8
0
  6
Continuous
 62
     7
370
    15
100
AcDbLine
 10
17.9582210312
 20
9.652064503
 30
0.0
 11
18.4582212818
 21
9.652064503
 31
0.0
  0
LINE
  5
B3
330
1F
100
AcDbEntity
  8
0
  6
Continuous
 62
     7
370
    15
100
AcDbLine
 10
18.4582212818
 20
9.652064503
 30
0.0
 11
18.4582212818
 21
9.9020649216
 31
0.0
  0
LINE
  5
B4
330
1F
100
AcDbEntity
  8
0
  6
Continuous
 62
     7
370
    15
100
AcDbLine
 10
15.7082210767
 20
9.652064503
 30
0.0
 11
16.208221034
 21
9.652064503
 31
0.0
  0
LINE
  5
B5
330
1F
100
AcDbEntity
  8
0
  6
Continuous
 62
     7
370
    15
100
AcDbLine
 10
16.208221034
 20
9.652064503
 30
0.0
 11
16.208221034
 21
9.9020649216
 31
0.0
  0
LINE
  5
B6
330
1F
100
AcDbEntity
  8
0
  6
Continuous
 62
     7
370
    15
100
AcDbLine
 10
16.208221034
 20
9.9020649216
 30
0.0
 11
15.7082210767
 21
9.9020649216
 31
0.0
  0
LINE
  5
B7
330
1F
100
AcDbEntity
  8
0
  6
Continuous
 62
     7
370
    15
100
AcDbLine
 10
15.7082210767
 20
9.9020649216
 30
0.0
 11
15.7082210767
 21
9.652064503
 31
0.0
  0
LINE
  5
B8
330
1F
100
AcDbEntity
  8
0
  6
Continuous
 62
     7
370
    15
100
AcDbLine
 10
12.208221119
 20
6.027064886
 30
0.0
 11
12.208221119
 21
5.527065222
 31
0.0
  0
LINE
  5
B9
330
1F
100
AcDbEntity
  8
0
  6
Continuous
 62
     7
370
    15
100
AcDbLine
 10
12.208221119
 20
5.527065222
 30
0.0
 11
12.4582211343
 21
5.527065222
 31
0.0
  0
LINE
  5
BA
330
1F
100
AcDbEntity
  8
0
  6
Continuous
 62
     7
370
    15
100
AcDbLine
 10
12.4582211343
 20
5.527065222
 30
0.0
 11
12.4582211343
 21
6.027064886
 31
0.0
  0
LINE
  5
BB
330
1F
100
AcDbEntity
  8
0
  6
Continuous
 62
     7
370
    15
100
AcDbLine
 10
12.4582211343
 20
6.027064886
 30
0.0
 11
12.208221119
 21
6.027064886
 31
0.0
  0
LINE
  5
BC
330
1F
100
AcDbEntity
  8
0
  6
Continuous
 62
     7
370
    15
100
AcDbLine
 10
12.208221119
 20
8.2770651338
 30
0.0
 11
12.208221119
 21
7.7770642965
 31
0.0
  0
LINE
  5
BD
330
1F
100
AcDbEntity
  8
0
  6
Continuous
 62
     7
370
    15
100
AcDbLine
 10
12.208221119
 20
7.7770642965
 30
0.0
 11
12.4582211343
 21
7.7770642965
 31
0.0
  0
LINE
  5
BE
330
1F
100
AcDbEntity
  8
0
  6
Continuous
 62
     7
370
    15
100
AcDbLine
 10
12.4582211343
 20
7.7770642965
 30
0.0
 11
12.4582211343
 21
8.2770651338
 31
0.0
  0
LINE
  5
BF
330
1F
100
AcDbEntity
  8
0
  6
Continuous
 62
     7
370
    15
100
AcDbLine
 10
12.4582211343
 20
8.2770651338
 30
0.0
 11
12.208221119
 21
8.2770651338
 31
0.0
  0
LINE
  5
C0
330
1F
100
AcDbEntity
  8
0
  6
Continuous
 62
     7
370
    15
100
AcDbLine
 10
14.0832211422
 20
8.2770651338
 30
0.0
 11
14.0832211422
 21
7.7770642965
 31
0.0
  0
LINE
  5
C1
330
1F
100
AcDbEntity
  8
0
  6
Continuous
 62
     7
370
    15
100
AcDbLine
 10
14.0832211422
 20
7.7770642965
 30
0.0
 11
14.3332211208
 21
7.7770642965
 31
0.0
  0
LINE
  5
C2
330
1F
100
AcDbEntity
  8
0
  6
Continuous
 62
     7
370
    15
100
AcDbLine
 10
14.3332211208
 20
7.7770642965
 30
0.0
 11
14.3332211208
 21
8.2770651338
 31
0.0
  0
LINE
  5
C3
330
1F
100
AcDbEntity
  8
0
  6
Continuous
 62
     7
370
    15
100
AcDbLine
 10
14.3332211208
 20
8.2770651338
 30
0.0
 11
14.0832211422
 21
8.2770651338
 31
0.0
  0
LINE
  5
C4
330
1F
100
AcDbEntity
  8
0
  6
Continuous
 62
     7
370
    15
100
AcDbLine
 10
14.3332211208
 20
5.527065222
 30
0.0
 11
14.3332211208
 21
6.027064886
 31
0.0
  0
LINE
  5
C5
330
1F
100
AcDbEntity
  8
0
  6
Continuous
 62
     7
370
    15
100
AcDbLine
 10
14.3332211208
 20
6.027064886
 30
0.0
 11
14.0832211422
 21
6.027064886
 31
0.0
  0
LINE
  5
C6
330
1F
100
AcDbEntity
  8
0
  6
Continuous
 62
     7
370
    15
100
AcDbLine
 10
14.0832211422
 20
6.027064886
 30
0.0
 11
14.0832211422
 21
5.527065222
 31
0.0
  0
LINE
  5
C7
330
1F
100
AcDbEntity
  8
0
  6
Continuous
 62
     7
370
    15
100
AcDbLine
 10
14.0832211422
 20
5.527065222
 30
0.0
 11
14.3332211208
 21
5.527065222
 31
0.0
  0
LINE
  5
C8
330
1F
100
AcDbEntity
  8
0
  6
Continuous
 62
     7
370
    15
100
AcDbLine
 10
17.9582210312
 20
2.0270652276
 30
0.0
 11
18.4582212818
 21
2.0270652276
 31
0.0
  0
LINE
  5
C9
330
1F
100
AcDbEntity
  8
0
  6
Continuous
 62
     7
370
    15
100
AcDbLine
 10
18.4582212818
 20
2.0270652276
 30
0.0
 11
18.4582212818
 21
2.2770644729
 31
0.0
  0
LINE
  5
CA
330
1F
100
AcDbEntity
  8
0
  6
Continuous
 62
     7
370
    15
100
AcDbLine
 10
18.4582212818
 20
2.2770644729
 30
0.0
 11
17.9582210312
 21
2.2770644729
 31
0.0
  0
LINE
  5
CB
330
1F
100
AcDbEntity
  8
0
  6
Continuous
 62
     7
370
    15
100
AcDbLine
 10
17.9582210312
 20
2.2770644729
 30
0.0
 11
17.9582210312
 21
2.0270652276
 31
0.0
  0
LINE
  5
CC
330
1F
100
AcDbEntity
  8
0
  6
Continuous
 62
     7
370
    15
100
AcDbLine
 10
15.7082210767
 20
2.0270652276
 30
0.0
 11
16.208221034
 21
2.0270652276
 31
0.0
  0
LINE
  5
CD
330
1F
100
AcDbEntity
  8
0
  6
Continuous
 62
     7
370
    15
100
AcDbLine
 10
16.208221034
 20
2.0270652276
 30
0.0
 11
16.208221034
 21
2.2770644729
 31
0.0
  0
LINE
  5
CE
330
1F
100
AcDbEntity
  8
0
  6
Continuous
 62
     7
370
    15
100
AcDbLine
 10
16.208221034
 20
2.2770644729
 30
0.0
 11
15.7082210767
 21
2.2770644729
 31
0.0
  0
LINE
  5
CF
330
1F
100
AcDbEntity
  8
0
  6
Continuous
 62
     7
370
    15
100
AcDbLine
 10
15.7082210767
 20
2.2770644729
 30
0.0
 11
15.7082210767
 21
2.0270652276
 31
0.0
  0
LINE
  5
D0
330
1F
100
AcDbEntity
  8
0
  6
Continuous
 62
     7
370
    15
100
AcDbLine
 10
15.7082210767
 20
3.9020642608
 30
0.0
 11
16.208221034
 21
3.9020642608
 31
0.0
  0
LINE
  5
D1
330
1F
100
AcDbEntity
  8
0
  6
Continuous
 62
     7
370
    15
100
AcDbLine
 10
16.208221034
 20
3.9020642608
 30
0.0
 11
16.208221034
 21
4.1520646794
 31
0.0
  0
LINE
  5
D2
330
1F
100
AcDbEntity
  8
0
  6
Continuous
 62
     7
370
    15
100
AcDbLine
 10
16.208221034
 20
4.1520646794
 30
0.0
 11
15.7082210767
 21
4.1520646794
 31
0.0
  0
LINE
  5
D3
330
1F
100
AcDbEntity
  8
0
  6
Continuous
 62
     7
370
    15
100
AcDbLine
 10
15.7082210767
 20
4.1520646794
 30
0.0
 11
15.7082210767
 21
3.9020642608
 31
0.0
  0
LINE
  5
D4
330
1F
100
AcDbEntity
  8
0
  6
Continuous
 62
     7
370
    15
100
AcDbLine
 10
18.4582212818
 20
4.1520646794
 30
0.0
 11
17.9582210312
 21
4.1520646794
 31
0.0
  0
LINE
  5
D5
330
1F
100
AcDbEntity
  8
0
  6
Continuous
 62
     7
370
    15
100
AcDbLine
 10
17.9582210312
 20
4.1520646794
 30
0.0
 11
17.9582210312
 21
3.9020642608
 31
0.0
  0
LINE
  5
D6
330
1F
100
AcDbEntity
  8
0
  6
Continuous
 62
     7
370
    15
100
AcDbLine
 10
17.9582210312
 20
3.9020642608
 30
0.0
 11
18.4582212818
 21
3.9020642608
 31
0.0
  0
LINE
  5
D7
330
1F
100
AcDbEntity
  8
0
  6
Continuous
 62
     7
370
    15
100
AcDbLine
 10
18.4582212818
 20
3.9020642608
 30
0.0
 11
18.4582212818
 21
4.1520646794
 31
0.0
  0
LINE
  5
D8
330
1F
100
AcDbEntity
  8
0
  6
Continuous
 62
     7
370
    15
100
AcDbLine
 10
21.9582212762
 20
7.7770642965
 30
0.0
 11
21.9582212762
 21
8.2770651338
 31
0.0
  0
LINE
  5
D9
330
1F
100
AcDbEntity
  8
0
  6
Continuous
 62
     7
370
    15
100
AcDbLine
 10
21.9582212762
 20
8.2770651338
 30
0.0
 11
21.7082208575
 21
8.2770651338
 31
0.0
  0
LINE
  5
DA
330
1F
100
AcDbEntity
  8
0
  6
Continuous
 62
     7
370
    15
100
AcDbLine
 10
21.7082208575
 20
8.2770651338
 30
0.0
 11
21.7082208575
 21
7.7770642965
 31
0.0
  0
LINE
  5
DB
330
1F
100
AcDbEntity
  8
0
  6
Continuous
 62
     7
370
    15
100
AcDbLine
 10
21.7082208575
 20
7.7770642965
 30
0.0
 11
21.9582212762
 21
7.7770642965
 31
0.0
  0
LINE
  5
DC
330
1F
100
AcDbEntity
  8
0
  6
Continuous
 62
     7
370
    15
100
AcDbLine
 10
21.9582212762
 20
5.527065222
 30
0.0
 11
21.9582212762
 21
6.027064886
 31
0.0
  0
LINE
  5
DD
330
1F
100
AcDbEntity
  8
0
  6
Continuous
 62
     7
370
    15
100
AcDbLine
 10
21.9582212762
 20
6.027064886
 30
0.0
 11
21.7082208575
 21
6.027064886
 31
0.0
  0
LINE
  5
DE
330
1F
100
AcDbEntity
  8
0
  6
Continuous
 62
     7
370
    15
100
AcDbLine
 10
21.7082208575
 20
6.027064886
 30
0.0
 11
21.7082208575
 21
5.527065222
 31
0.0
  0
LINE
  5
DF
330
1F
100
AcDbEntity
  8
0
  6
Continuous
 62
     7
370
    15
100
AcDbLine
 10
21.7082208575
 20
5.527065222
 30
0.0
 11
21.9582212762
 21
5.527065222
 31
0.0
  0
LINE
  5
E0
330
1F
100
AcDbEntity
  8
0
  6
Continuous
 62
     7
370
    15
100
AcDbLine
 10
20.0832210697
 20
5.527065222
 30
0.0
 11
20.0832210697
 21
6.027064886
 31
0.0
  0
LINE
  5
E1
330
1F
100
AcDbEntity
  8
0
  6
Continuous
 62
     7
370
    15
100
AcDbLine
 10
20.0832210697
 20
6.027064886
 30
0.0
 11
19.8332212377
 21
6.027064886
 31
0.0
  0
LINE
  5
E2
330
1F
100
AcDbEntity
  8
0
  6
Continuous
 62
     7
370
    15
100
AcDbLine
 10
19.8332212377
 20
6.027064886
 30
0.0
 11
19.8332212377
 21
5.527065222
 31
0.0
  0
LINE
  5
E3
330
1F
100
AcDbEntity
  8
0
  6
Continuous
 62
     7
370
    15
100
AcDbLine
 10
19.8332212377
 20
5.527065222
 30
0.0
 11
20.0832210697
 21
5.527065222
 31
0.0
  0
LINE
  5
E4
330
1F
100
AcDbEntity
  8
0
  6
Continuous
 62
     7
370
    15
100
AcDbLine
 10
19.8332212377
 20
8.2770651338
 30
0.0
 11
19.8332212377
 21
7.7770642965
 31
0.0
  0
LINE
  5
E5
330
1F
100
AcDbEntity
  8
0
  6
Continuous
 62
     7
370
    15
100
AcDbLine
 10
19.8332212377
 20
7.7770642965
 30
0.0
 11
20.0832210697
 21
7.7770642965
 31
0.0
  0
LINE
  5
E6
330
1F
100
AcDbEntity
  8
0
  6
Continuous
 62
     7
370
    15
100
AcDbLine
 10
20.0832210697
 20
7.7770642965
 30
0.0
 11
20.0832210697
 21
8.2770651338
 31
0.0
  0
LINE
  5
E7
330
1F
100
AcDbEntity
  8
0
  6
Continuous
 62
     7
370
    15
100
AcDbLine
 10
20.0832210697
 20
8.2770651338
 30
0.0
 11
19.8332212377
 21
8.2770651338
 31
0.0
  0
CIRCLE
  5
E8
330
1F
100
AcDbEntity
  8
0
  6
Continuous
 62
     7
370
    15
100
AcDbCircle
 10
13.8332211061
 20
5.5558706445
 30
0.0
 40
0.0884999999999989
  0
CIRCLE
  5
E9
330
1F
100
AcDbEntity
  8
0
  6
Continuous
 62
     7
370
    15
100
AcDbCircle
 10
15.7370270284
 20
3.6520647222
 30
0.0
 40
0.0885000000000011
  0
CIRCLE
  5
EA
330
1F
100
AcDbEntity
  8
0
  6
Continuous
 62
     7
370
    15
100
AcDbCircle
 10
18.4294151839
 20
3.6520647222
 30
0.0
 40
0.0884999999999989
  0
CIRCLE
  5
EB
330
1F
100
AcDbEntity
  8
0
  6
Continuous
 62
     7
370
    15
100
AcDbCircle
 10
20.3332211061
 20
5.5558706445
 30
0.0
 40
0.0885000000000016
  0
CIRCLE
  5
EC
330
1F
100
AcDbEntity
  8
0
  6
Continuous
 62
     7
370
    15
100
AcDbCircle
 10
20.3332211061
 20
8.2482587999
 30
0.0
 40
0.088499999999998
  0
CIRCLE
  5
ED
330
1F
100
AcDbEntity
  8
0
  6
Continuous
 62
     7
370
    15
100
AcDbCircle
 10
18.4294151839
 20
10.1520647222
 30
0.0
 40
0.088499999999998
  0
CIRCLE
  5
EE
330
1F
100
AcDbEntity
  8
0
  6
Continuous
 62
     7
370
    15
100
AcDbCircle
 10
15.7370270284
 20
10.1520647222
 30
0.0
 40
0.088499999999998
  0
CIRCLE
  5
EF
330
1F
100
AcDbEntity
  8
0
  6
Continuous
 62
     7
370
    15
100
AcDbCircle
 10
13.8332211061
 20
8.2482587999
 30
0.0
 40
0.088499999999998
  0
CIRCLE
  5
F0
330
1F
100
AcDbEntity
  8
0
  6
Continuous
 62
     7
370
    15
100
AcDbCircle
 10
15.3154541532
 20
8.6698316752
 30
0.0
 40
0.375
  0
CIRCLE
  5
F1
330
1F
100
AcDbEntity
  8
0
  6
Continuous
 62
     7
370
    15
100
AcDbCircle
 10
18.8509880591
 20
8.6698316752
 30
0.0
 40
0.375
  0
CIRCLE
  5
F2
330
1F
100
AcDbEntity
  8
0
  6
Continuous
 62
     7
370
    15
100
AcDbCircle
 10
18.8509880591
 20
5.1342977692
 30
0.0
 40
0.375
  0
CIRCLE
  5
F3
330
1F
100
AcDbEntity
  8
0
  6
Continuous
 62
     7
370
    15
100
AcDbCircle
 10
15.3154541532
 20
5.1342977692
 30
0.0
 40
0.375
  0
CIRCLE
  5
F4
330
1F
100
AcDbEntity
  8
0
  6
Continuous
 62
     7
370
    15
100
AcDbCircle
 10
17.0832211061
 20
3.1520647222
 30
0.0
 40
0.0885000000000011
  0
CIRCLE
  5
F5
330
1F
100
AcDbEntity
  8
0
  6
Continuous
 62
     7
370
    15
100
AcDbCircle
 10
17.0832211061
 20
2.6520647222
 30
0.0
 40
0.0884999999999989
  0
CIRCLE
  5
F6
330
1F
100
AcDbEntity
  8
0
  6
Continuous
 62
     7
370
    15
100
AcDbCircle
 10
17.0832211061
 20
2.1520647222
 30
0.0
 40
0.0884999999999989
  0
LINE
  5
F7
330
1F
100
AcDbEntity
  8
0
  6
Continuous
 62
     7
370
    15
100
AcDbLine
 10
27.2082206811
 20
11.4032900327
 30
0.0
 11
27.7082215183
 21
11.4032900327
 31
0.0
  0
LINE
  5
F8
330
1F
100
AcDbEntity
  8
0
  6
Continuous
 62
     7
370
    15
100
AcDbLine
 10
27.2082206811
 20
11.4032900327
 30
0.0
 11
27.2082206811
 21
11.6532904513
 31
0.0
  0
LINE
  5
F9
330
1F
100
AcDbEntity
  8
0
  6
Continuous
 62
     7
370
    15
100
AcDbLine
 10
25.4582212705
 20
11.6532904513
 30
0.0
 11
27.2082206811
 21
11.6532904513
 31
0.0
  0
LINE
  5
FA
330
1F
100
AcDbEntity
  8
0
  6
Continuous
 62
     7
370
    15
100
AcDbLine
 10
25.4582212705
 20
11.4032900327
 30
0.0
 11
25.4582212705
 21
11.6532904513
 31
0.0
  0
LINE
  5
FB
330
1F
100
AcDbEntity
  8
0
  6
Continuous
 62
     7
370
    15
100
AcDbLine
 10
24.9582216066
 20
11.4032900327
 30
0.0
 11
25.4582212705
 21
11.4032900327
 31
0.0
  0
LINE
  5
FC
330
1F
100
AcDbEntity
  8
0
  6
Continuous
 62
     7
370
    15
100
AcDbLine
 10
24.9582216066
 20
14.4032900697
 30
0.0
 11
24.9582216066
 21
11.4032900327
 31
0.0
  0
LINE
  5
FD
330
1F
100
AcDbEntity
  8
0
  6
Continuous
 62
     7
370
    15
100
AcDbLine
 10
24.9582216066
 20
14.4032900697
 30
0.0
 11
25.4582212705
 21
14.4032900697
 31
0.0
  0
LINE
  5
FE
330
1F
100
AcDbEntity
  8
0
  6
Continuous
 62
     7
370
    15
100
AcDbLine
 10
27.2082206811
 20
14.1532902378
 30
0.0
 11
25.4582212705
 21
14.1532902378
 31
0.0
  0
LINE
  5
FF
330
1F
100
AcDbEntity
  8
0
  6
Continuous
 62
     7
370
    15
100
AcDbLine
 10
27.2082206811
 20
14.4032900697
 30
0.0
 11
27.2082206811
 21
14.1532902378
 31
0.0
  0
LINE
  5
100
330
1F
100
AcDbEntity
  8
0
  6
Continuous
 62
     7
370
    15
100
AcDbLine
 10
27.2082206811
 20
14.4032900697
 30
0.0
 11
27.7082215183
 21
14.4032900697
 31
0.0
  0
LINE
  5
101
330
1F
100
AcDbEntity
  8
0
  6
Continuous
 62
     7
370
    15
100
AcDbLine
 10
27.7082215183
 20
11.4032900327
 30
0.0
 11
27.7082215183
 21
14.4032900697
 31
0.0
  0
CIRCLE
  5
102
330
1F
100
AcDbEntity
  8
0
  6
Continuous
 62
     7
370
    15
100
AcDbCircle
 10
26.3332211061
 20
13.8407901643
 30
0.0
 40
0.0847499999999997
  0
CIRCLE
  5
103
330
1F
100
AcDbEntity
  8
0
  6
Continuous
 62
     7
370
    15
100
AcDbCircle
 10
26.3332211061
 20
13.3407901643
 30
0.0
 40
0.0847499999999997
  0
CIRCLE
  5
104
330
1F
100
AcDbEntity
  8
0
  6
Continuous
 62
     7
370
    15
100
AcDbCircle
 10
26.3332211061
 20
12.8407901643
 30
0.0
 40
0.0847499999999997
  0
CIRCLE
  5
105
330
1F
100
AcDbEntity
  8
0
  6
Continuous
 62
     7
370
    15
100
AcDbCircle
 10
26.3332211061
 20
12.3407901643
 30
0.0
 40
0.0847499999999997
  0
CIRCLE
  5
106
330
1F
100
AcDbEntity
  8
0
  6
Continuous
 62
     7
370
    15
100
AcDbCircle
 10
26.3332211061
 20
11.8407901643
 30
0.0
 40
0.0847499999999997
  0
ARC
  5
107
330
1F
100
AcDbEntity
  8
0
  6
Continuous
 62
     7
370
    15
100
AcDbCircle
 10
25.9582211061
 20
13.6532901643
 30
0.0
 40
0.1250000000000018
100
AcDbArc
 50
0.0
 51
90.0
  0
LINE
  5
108
330
1F
100
AcDbEntity
  8
0
  6
Continuous
 62
     7
370
    15
100
AcDbLine
 10
25.9582209345
 20
13.7782901965
 30
0.0
 11
25.5832208932
 21
13.7782901965
 31
0.0
  0
ARC
  5
109
330
1F
100
AcDbEntity
  8
0
  6
Continuous
 62
     7
370
    15
100
AcDbCircle
 10
25.5832211061
 20
13.6532901643
 30
0.0
 40
0.1250000000000036
100
AcDbArc
 50
90.0
 51
180.0
  0
LINE
  5
10A
330
1F
100
AcDbEntity
  8
0
  6
Continuous
 62
     7
370
    15
100
AcDbLine
 10
25.4582212705
 20
13.6532902805
 30
0.0
 11
25.4582212705
 21
12.1532901153
 31
0.0
  0
ARC
  5
10B
330
1F
100
AcDbEntity
  8
0
  6
Continuous
 62
     7
370
    15
100
AcDbCircle
 10
25.5832211061
 20
12.1532901643
 30
0.0
 40
0.1250000000000036
100
AcDbArc
 50
180.0
 51
270.0
  0
LINE
  5
10C
330
1F
100
AcDbEntity
  8
0
  6
Continuous
 62
     7
370
    15
100
AcDbLine
 10
25.5832208932
 20
12.028289906
 30
0.0
 11
25.9582209345
 21
12.028289906
 31
0.0
  0
ARC
  5
10D
330
1F
100
AcDbEntity
  8
0
  6
Continuous
 62
     7
370
    15
100
AcDbCircle
 10
25.9582211061
 20
12.1532901643
 30
0.0
 40
0.125
100
AcDbArc
 50
270.0
 51
0.0
  0
LINE
  5
10E
330
1F
100
AcDbEntity
  8
0
  6
Continuous
 62
     7
370
    15
100
AcDbLine
 10
26.0832205572
 20
12.1532901153
 30
0.0
 11
26.0832205572
 21
13.6532902805
 31
0.0
  0
ARC
  5
10F
330
1F
100
AcDbEntity
  8
0
  6
Continuous
 62
     7
370
    15
100
AcDbCircle
 10
26.7082211061
 20
13.6532901643
 30
0.0
 40
0.1250000000000036
100
AcDbArc
 50
90.0
 51
180.0
  0
LINE
  5
110
330
1F
100
AcDbEntity
  8
0
  6
Continuous
 62
     7
370
    15
100
AcDbLine
 10
26.5832213944
 20
13.6532902805
 30
0.0
 11
26.5832213944
 21
12.1532901153
 31
0.0
  0
ARC
  5
111
330
1F
100
AcDbEntity
  8
0
  6
Continuous
 62
     7
370
    15
100
AcDbCircle
 10
26.7082211061
 20
12.1532901643
 30
0.0
 40
0.1250000000000036
100
AcDbArc
 50
180.0
 51
270.0
  0
LINE
  5
112
330
1F
100
AcDbEntity
  8
0
  6
Continuous
 62
     7
370
    15
100
AcDbLine
 10
26.7082210171
 20
12.028289906
 30
0.0
 11
27.0832210584
 21
12.028289906
 31
0.0
  0
ARC
  5
113
330
1F
100
AcDbEntity
  8
0
  6
Continuous
 62
     7
370
    15
100
AcDbCircle
 10
27.0832211061
 20
12.1532901643
 30
0.0
 40
0.1250000000000018
100
AcDbArc
 50
270.0
 51
0.0
  0
LINE
  5
114
330
1F
100
AcDbEntity
  8
0
  6
Continuous
 62
     7
370
    15
100
AcDbLine
 10
27.2082206811
 20
12.1532901153
 30
0.0
 11
27.2082206811
 21
13.6532902805
 31
0.0
  0
ARC
  5
115
330
1F
100
AcDbEntity
  8
0
  6
Continuous
 62
     7
370
    15
100
AcDbCircle
 10
27.0832211061
 20
13.6532901643
 30
0.0
 40
0.1250000000000018
100
AcDbArc
 50
0.0
 51
90.0
  0
LINE
  5
116
330
1F
100
AcDbEntity
  8
0
  6
Continuous
 62
     7
370
    15
100
AcDbLine
 10
27.0832210584
 20
13.7782901965
 30
0.0
 11
26.7082210171
 21
13.7782901965
 31
0.0
  0
LINE
  5
117
330
1F
100
AcDbEntity
  8
0
  6
Continuous
 62
     7
370
    15
100
AcDbLine
 10
25.4582212705
 20
14.4032900697
 30
0.0
 11
25.4582212705
 21
14.1532902378
 31
0.0
  0
LINE
  5
118
330
1F
100
AcDbEntity
  8
0
  6
Continuous
 62
     7
370
    15
100
AcDbLine
 10
27.2082206811
 20
8.3407904776
 30
0.0
 11
27.7082215183
 21
8.3407904776
 31
0.0
  0
LINE
  5
119
330
1F
100
AcDbEntity
  8
0
  6
Continuous
 62
     7
370
    15
100
AcDbLine
 10
27.2082206811
 20
8.3407904776
 30
0.0
 11
27.2082206811
 21
8.5907897229
 31
0.0
  0
LINE
  5
11A
330
1F
100
AcDbEntity
  8
0
  6
Continuous
 62
     7
370
    15
100
AcDbLine
 10
25.4582212705
 20
8.5907897229
 30
0.0
 11
27.2082206811
 21
8.5907897229
 31
0.0
  0
LINE
  5
11B
330
1F
100
AcDbEntity
  8
0
  6
Continuous
 62
     7
370
    15
100
AcDbLine
 10
25.4582212705
 20
8.3407904776
 30
0.0
 11
25.4582212705
 21
8.5907897229
 31
0.0
  0
LINE
  5
11C
330
1F
100
AcDbEntity
  8
0
  6
Continuous
 62
     7
370
    15
100
AcDbLine
 10
24.9582216066
 20
8.3407904776
 30
0.0
 11
25.4582212705
 21
8.3407904776
 31
0.0
  0
LINE
  5
11D
330
1F
100
AcDbEntity
  8
0
  6
Continuous
 62
     7
370
    15
100
AcDbLine
 10
24.9582216066
 20
11.3407902213
 30
0.0
 11
24.9582216066
 21
8.3407904776
 31
0.0
  0
LINE
  5
11E
330
1F
100
AcDbEntity
  8
0
  6
Continuous
 62
     7
370
    15
100
AcDbLine
 10
24.9582216066
 20
11.3407902213
 30
0.0
 11
25.4582212705
 21
11.3407902213
 31
0.0
  0
LINE
  5
11F
330
1F
100
AcDbEntity
  8
0
  6
Continuous
 62
     7
370
    15
100
AcDbLine
 10
25.4582212705
 20
11.3407902213
 30
0.0
 11
25.4582212705
 21
11.0907903894
 31
0.0
  0
LINE
  5
120
330
1F
100
AcDbEntity
  8
0
  6
Continuous
 62
     7
370
    15
100
AcDbLine
 10
27.2082206811
 20
11.0907903894
 30
0.0
 11
25.4582212705
 21
11.0907903894
 31
0.0
  0
LINE
  5
121
330
1F
100
AcDbEntity
  8
0
  6
Continuous
 62
     7
370
    15
100
AcDbLine
 10
27.2082206811
 20
11.3407902213
 30
0.0
 11
27.2082206811
 21
11.0907903894
 31
0.0
  0
LINE
  5
122
330
1F
100
AcDbEntity
  8
0
  6
Continuous
 62
     7
370
    15
100
AcDbLine
 10
27.2082206811
 20
11.3407902213
 30
0.0
 11
27.7082215183
 21
11.3407902213
 31
0.0
  0
LINE
  5
123
330
1F
100
AcDbEntity
  8
0
  6
Continuous
 62
     7
370
    15
100
AcDbLine
 10
27.7082215183
 20
8.3407904776
 30
0.0
 11
27.7082215183
 21
11.3407902213
 31
0.0
  0
CIRCLE
  5
124
330
1F
100
AcDbEntity
  8
0
  6
Continuous
 62
     7
370
    15
100
AcDbCircle
 10
26.3332211061
 20
10.7782901643
 30
0.0
 40
0.0847499999999997
  0
CIRCLE
  5
125
330
1F
100
AcDbEntity
  8
0
  6
Continuous
 62
     7
370
    15
100
AcDbCircle
 10
26.3332211061
 20
10.2782901643
 30
0.0
 40
0.0847499999999997
  0
CIRCLE
  5
126
330
1F
100
AcDbEntity
  8
0
  6
Continuous
 62
     7
370
    15
100
AcDbCircle
 10
26.3332211061
 20
9.7782901643
 30
0.0
 40
0.0847499999999997
  0
CIRCLE
  5
127
330
1F
100
AcDbEntity
  8
0
  6
Continuous
 62
     7
370
    15
100
AcDbCircle
 10
26.3332211061
 20
9.2782901643
 30
0.0
 40
0.0847499999999997
  0
CIRCLE
  5
128
330
1F
100
AcDbEntity
  8
0
  6
Continuous
 62
     7
370
    15
100
AcDbCircle
 10
26.3332211061
 20
8.7782901643
 30
0.0
 40
0.0847499999999997
  0
ARC
  5
129
330
1F
100
AcDbEntity
  8
0
  6
Continuous
 62
     7
370
    15
100
AcDbCircle
 10
25.9582211061
 20
10.5907901643
 30
0.0
 40
0.1249999999999982
100
AcDbArc
 50
0.0
 51
90.0
  0
LINE
  5
12A
330
1F
100
AcDbEntity
  8
0
  6
Continuous
 62
     7
370
    15
100
AcDbLine
 10
25.9582209345
 20
10.7157903481
 30
0.0
 11
25.5832208932
 21
10.7157903481
 31
0.0
  0
ARC
  5
12B
330
1F
100
AcDbEntity
  8
0
  6
Continuous
 62
     7
370
    15
100
AcDbCircle
 10
25.5832211061
 20
10.5907901643
 30
0.0
 40
0.1250000000000036
100
AcDbArc
 50
90.0
 51
180.0
  0
LINE
  5
12C
330
1F
100
AcDbEntity
  8
0
  6
Continuous
 62
     7
370
    15
100
AcDbLine
 10
25.4582212705
 20
10.5907901387
 30
0.0
 11
25.4582212705
 21
9.0907899735
 31
0.0
  0
ARC
  5
12D
330
1F
100
AcDbEntity
  8
0
  6
Continuous
 62
     7
370
    15
100
AcDbCircle
 10
25.5832211061
 20
9.0907901643
 30
0.0
 40
0.1250000000000036
100
AcDbArc
 50
180.0
 51
270.0
  0
LINE
  5
12E
330
1F
100
AcDbEntity
  8
0
  6
Continuous
 62
     7
370
    15
100
AcDbLine
 10
25.5832208932
 20
8.9657903509
 30
0.0
 11
25.9582209345
 21
8.9657903509
 31
0.0
  0
ARC
  5
12F
330
1F
100
AcDbEntity
  8
0
  6
Continuous
 62
     7
370
    15
100
AcDbCircle
 10
25.9582211061
 20
9.0907901643
 30
0.0
 40
0.1249999999999982
100
AcDbArc
 50
270.0
 51
0.0
  0
LINE
  5
130
330
1F
100
AcDbEntity
  8
0
  6
Continuous
 62
     7
370
    15
100
AcDbLine
 10
26.0832205572
 20
9.0907899735
 30
0.0
 11
26.0832205572
 21
10.5907901387
 31
0.0
  0
ARC
  5
131
330
1F
100
AcDbEntity
  8
0
  6
Continuous
 62
     7
370
    15
100
AcDbCircle
 10
26.7082211061
 20
10.5907901643
 30
0.0
 40
0.1250000000000036
100
AcDbArc
 50
90.0
 51
180.0
  0
LINE
  5
132
330
1F
100
AcDbEntity
  8
0
  6
Continuous
 62
     7
370
    15
100
AcDbLine
 10
26.5832213944
 20
10.5907901387
 30
0.0
 11
26.5832213944
 21
9.0907899735
 31
0.0
  0
ARC
  5
133
330
1F
100
AcDbEntity
  8
0
  6
Continuous
 62
     7
370
    15
100
AcDbCircle
 10
26.7082211061
 20
9.0907901643
 30
0.0
 40
0.1250000000000036
100
AcDbArc
 50
180.0
 51
270.0
  0
LINE
  5
134
330
1F
100
AcDbEntity
  8
0
  6
Continuous
 62
     7
370
    15
100
AcDbLine
 10
26.7082210171
 20
8.9657903509
 30
0.0
 11
27.0832210584
 21
8.9657903509
 31
0.0
  0
ARC
  5
135
330
1F
100
AcDbEntity
  8
0
  6
Continuous
 62
     7
370
    15
100
AcDbCircle
 10
27.0832211061
 20
9.0907901643
 30
0.0
 40
0.125
100
AcDbArc
 50
270.0
 51
0.0
  0
LINE
  5
136
330
1F
100
AcDbEntity
  8
0
  6
Continuous
 62
     7
370
    15
100
AcDbLine
 10
27.2082206811
 20
9.0907899735
 30
0.0
 11
27.2082206811
 21
10.5907901387
 31
0.0
  0
ARC
  5
137
330
1F
100
AcDbEntity
  8
0
  6
Continuous
 62
     7
370
    15
100
AcDbCircle
 10
27.0832211061
 20
10.5907901643
 30
0.0
 40
0.125
100
AcDbArc
 50
0.0
 51
90.0
  0
LINE
  5
138
330
1F
100
AcDbEntity
  8
0
  6
Continuous
 62
     7
370
    15
100
AcDbLine
 10
27.0832210584
 20
10.7157903481
 30
0.0
 11
26.7082210171
 21
10.7157903481
 31
0.0
  0
LINE
  5
139
330
1F
100
AcDbEntity
  8
0
  6
Continuous
 62
     7
370
    15
100
AcDbLine
 10
27.2082206811
 20
5.2782897492
 30
0.0
 11
27.7082215183
 21
5.2782897492
 31
0.0
  0
LINE
  5
13A
330
1F
100
AcDbEntity
  8
0
  6
Continuous
 62
     7
370
    15
100
AcDbLine
 10
27.2082206811
 20
5.2782897492
 30
0.0
 11
27.2082206811
 21
5.5282901678
 31
0.0
  0
LINE
  5
13B
330
1F
100
AcDbEntity
  8
0
  6
Continuous
 62
     7
370
    15
100
AcDbLine
 10
25.4582212705
 20
5.5282901678
 30
0.0
 11
27.2082206811
 21
5.5282901678
 31
0.0
  0
LINE
  5
13C
330
1F
100
AcDbEntity
  8
0
  6
Continuous
 62
     7
370
    15
100
AcDbLine
 10
25.4582212705
 20
5.2782897492
 30
0.0
 11
25.4582212705
 21
5.5282901678
 31
0.0
  0
LINE
  5
13D
330
1F
100
AcDbEntity
  8
0
  6
Continuous
 62
     7
370
    15
100
AcDbLine
 10
24.9582216066
 20
5.2782897492
 30
0.0
 11
25.4582212705
 21
5.2782897492
 31
0.0
  0
LINE
  5
13E
330
1F
100
AcDbEntity
  8
0
  6
Continuous
 62
     7
370
    15
100
AcDbLine
 10
24.9582216066
 20
8.2782900796
 30
0.0
 11
24.9582216066
 21
5.2782897492
 31
0.0
  0
LINE
  5
13F
330
1F
100
AcDbEntity
  8
0
  6
Continuous
 62
     7
370
    15
100
AcDbLine
 10
24.9582216066
 20
8.2782900796
 30
0.0
 11
25.4582212705
 21
8.2782900796
 31
0.0
  0
LINE
  5
140
330
1F
100
AcDbEntity
  8
0
  6
Continuous
 62
     7
370
    15
100
AcDbLine
 10
25.4582212705
 20
8.2782900796
 30
0.0
 11
25.4582212705
 21
8.028289661
 31
0.0
  0
LINE
  5
141
330
1F
100
AcDbEntity
  8
0
  6
Continuous
 62
     7
370
    15
100
AcDbLine
 10
27.2082206811
 20
8.028289661
 30
0.0
 11
25.4582212705
 21
8.028289661
 31
0.0
  0
LINE
  5
142
330
1F
100
AcDbEntity
  8
0
  6
Continuous
 62
     7
370
    15
100
AcDbLine
 10
27.2082206811
 20
8.2782900796
 30
0.0
 11
27.2082206811
 21
8.028289661
 31
0.0
  0
LINE
  5
143
330
1F
100
AcDbEntity
  8
0
  6
Continuous
 62
     7
370
    15
100
AcDbLine
 10
27.2082206811
 20
8.2782900796
 30
0.0
 11
27.7082215183
 21
8.2782900796
 31
0.0
  0
LINE
  5
144
330
1F
100
AcDbEntity
  8
0
  6
Continuous
 62
     7
370
    15
100
AcDbLine
 10
27.7082215183
 20
5.2782897492
 30
0.0
 11
27.7082215183
 21
8.2782900796
 31
0.0
  0
CIRCLE
  5
145
330
1F
100
AcDbEntity
  8
0
  6
Continuous
 62
     7
370
    15
100
AcDbCircle
 10
26.3332211061
 20
7.7157901643
 30
0.0
 40
0.0847499999999997
  0
CIRCLE
  5
146
330
1F
100
AcDbEntity
  8
0
  6
Continuous
 62
     7
370
    15
100
AcDbCircle
 10
26.3332211061
 20
7.2157901643
 30
0.0
 40
0.0847499999999997
  0
CIRCLE
  5
147
330
1F
100
AcDbEntity
  8
0
  6
Continuous
 62
     7
370
    15
100
AcDbCircle
 10
26.3332211061
 20
6.7157901643
 30
0.0
 40
0.0847499999999997
  0
CIRCLE
  5
148
330
1F
100
AcDbEntity
  8
0
  6
Continuous
 62
     7
370
    15
100
AcDbCircle
 10
26.3332211061
 20
6.2157901643
 30
0.0
 40
0.0847499999999997
  0
CIRCLE
  5
149
330
1F
100
AcDbEntity
  8
0
  6
Continuous
 62
     7
370
    15
100
AcDbCircle
 10
26.3332211061
 20
5.7157901643
 30
0.0
 40
0.0847499999999997
  0
ARC
  5
14A
330
1F
100
AcDbEntity
  8
0
  6
Continuous
 62
     7
370
    15
100
AcDbCircle
 10
25.9582211061
 20
7.5282901643
 30
0.0
 40
0.1249999999999991
100
AcDbArc
 50
0.0
 51
90.0
  0
LINE
  5
14B
330
1F
100
AcDbEntity
  8
0
  6
Continuous
 62
     7
370
    15
100
AcDbLine
 10
25.9582209345
 20
7.6532896197
 30
0.0
 11
25.5832208932
 21
7.6532896197
 31
0.0
  0
ARC
  5
14C
330
1F
100
AcDbEntity
  8
0
  6
Continuous
 62
     7
370
    15
100
AcDbCircle
 10
25.5832211061
 20
7.5282901643
 30
0.0
 40
0.1250000000000036
100
AcDbArc
 50
90.0
 51
180.0
  0
LINE
  5
14D
330
1F
100
AcDbEntity
  8
0
  6
Continuous
 62
     7
370
    15
100
AcDbLine
 10
25.4582212705
 20
7.528289997
 30
0.0
 11
25.4582212705
 21
6.0282898318
 31
0.0
  0
ARC
  5
14E
330
1F
100
AcDbEntity
  8
0
  6
Continuous
 62
     7
370
    15
100
AcDbCircle
 10
25.5832211061
 20
6.0282901643
 30
0.0
 40
0.1250000000000036
100
AcDbArc
 50
180.0
 51
270.0
  0
LINE
  5
14F
330
1F
100
AcDbEntity
  8
0
  6
Continuous
 62
     7
370
    15
100
AcDbLine
 10
25.5832208932
 20
5.9032902091
 30
0.0
 11
25.9582209345
 21
5.9032902091
 31
0.0
  0
ARC
  5
150
330
1F
100
AcDbEntity
  8
0
  6
Continuous
 62
     7
370
    15
100
AcDbCircle
 10
25.9582211061
 20
6.0282901643
 30
0.0
 40
0.1249999999999991
100
AcDbArc
 50
270.0
 51
0.0
  0
LINE
  5
151
330
1F
100
AcDbEntity
  8
0
  6
Continuous
 62
     7
370
    15
100
AcDbLine
 10
26.0832205572
 20
6.0282898318
 30
0.0
 11
26.0832205572
 21
7.528289997
 31
0.0
  0
ARC
  5
152
330
1F
100
AcDbEntity
  8
0
  6
Continuous
 62
     7
370
    15
100
AcDbCircle
 10
26.7082211061
 20
7.5282901643
 30
0.0
 40
0.1250000000000036
100
AcDbArc
 50
90.0
 51
180.0
  0
LINE
  5
153
330
1F
100
AcDbEntity
  8
0
  6
Continuous
 62
     7
370
    15
100
AcDbLine
 10
26.5832213944
 20
7.528289997
 30
0.0
 11
26.5832213944
 21
6.0282898318
 31
0.0
  0
ARC
  5
154
330
1F
100
AcDbEntity
  8
0
  6
Continuous
 62
     7
370
    15
100
AcDbCircle
 10
26.7082211061
 20
6.0282901643
 30
0.0
 40
0.1250000000000036
100
AcDbArc
 50
180.0
 51
270.0
  0
LINE
  5
155
330
1F
100
AcDbEntity
  8
0
  6
Continuous
 62
     7
370
    15
100
AcDbLine
 10
26.7082210171
 20
5.9032902091
 30
0.0
 11
27.0832210584
 21
5.9032902091
 31
0.0
  0
ARC
  5
156
330
1F
100
AcDbEntity
  8
0
  6
Continuous
 62
     7
370
    15
100
AcDbCircle
 10
27.0832211061
 20
6.0282901643
 30
0.0
 40
0.125
100
AcDbArc
 50
270.0
 51
0.0
  0
LINE
  5
157
330
1F
100
AcDbEntity
  8
0
  6
Continuous
 62
     7
370
    15
100
AcDbLine
 10
27.2082206811
 20
6.0282898318
 30
0.0
 11
27.2082206811
 21
7.528289997
 31
0.0
  0
ARC
  5
158
330
1F
100
AcDbEntity
  8
0
  6
Continuous
 62
     7
370
    15
100
AcDbCircle
 10
27.0832211061
 20
7.5282901643
 30
0.0
 40
0.125
100
AcDbArc
 50
0.0
 51
90.0
  0
LINE
  5
159
330
1F
100
AcDbEntity
  8
0
  6
Continuous
 62
     7
370
    15
100
AcDbLine
 10
27.0832210584
 20
7.6532896197
 30
0.0
 11
26.7082210171
 21
7.6532896197
 31
0.0
  0
LINE
  5
15A
330
1F
100
AcDbEntity
  8
0
  6
Continuous
 62
     7
370
    15
100
AcDbLine
 10
24.3957215446
 20
11.4032900327
 30
0.0
 11
24.8957212086
 21
11.4032900327
 31
0.0
  0
LINE
  5
15B
330
1F
100
AcDbEntity
  8
0
  6
Continuous
 62
     7
370
    15
100
AcDbLine
 10
24.3957215446
 20
11.4032900327
 30
0.0
 11
24.3957215446
 21
11.6532904513
 31
0.0
  0
LINE
  5
15C
330
1F
100
AcDbEntity
  8
0
  6
Continuous
 62
     7
370
    15
100
AcDbLine
 10
22.6457209608
 20
11.6532904513
 30
0.0
 11
24.3957215446
 21
11.6532904513
 31
0.0
  0
LINE
  5
15D
330
1F
100
AcDbEntity
  8
0
  6
Continuous
 62
     7
370
    15
100
AcDbLine
 10
22.6457209608
 20
11.4032900327
 30
0.0
 11
22.6457209608
 21
11.6532904513
 31
0.0
  0
LINE
  5
15E
330
1F
100
AcDbEntity
  8
0
  6
Continuous
 62
     7
370
    15
100
AcDbLine
 10
22.1457212968
 20
11.4032900327
 30
0.0
 11
22.6457209608
 21
11.4032900327
 31
0.0
  0
LINE
  5
15F
330
1F
100
AcDbEntity
  8
0
  6
Continuous
 62
     7
370
    15
100
AcDbLine
 10
22.1457212968
 20
14.4032900697
 30
0.0
 11
22.1457212968
 21
11.4032900327
 31
0.0
  0
LINE
  5
160
330
1F
100
AcDbEntity
  8
0
  6
Continuous
 62
     7
370
    15
100
AcDbLine
 10
22.1457212968
 20
14.4032900697
 30
0.0
 11
22.6457209608
 21
14.4032900697
 31
0.0
  0
LINE
  5
161
330
1F
100
AcDbEntity
  8
0
  6
Continuous
 62
     7
370
    15
100
AcDbLine
 10
24.3957215446
 20
14.1532902378
 30
0.0
 11
22.6457209608
 21
14.1532902378
 31
0.0
  0
LINE
  5
162
330
1F
100
AcDbEntity
  8
0
  6
Continuous
 62
     7
370
    15
100
AcDbLine
 10
24.3957215446
 20
14.4032900697
 30
0.0
 11
24.3957215446
 21
14.1532902378
 31
0.0
  0
LINE
  5
163
330
1F
100
AcDbEntity
  8
0
  6
Continuous
 62
     7
370
    15
100
AcDbLine
 10
24.3957215446
 20
14.4032900697
 30
0.0
 11
24.8957212086
 21
14.4032900697
 31
0.0
  0
LINE
  5
164
330
1F
100
AcDbEntity
  8
0
  6
Continuous
 62
     7
370
    15
100
AcDbLine
 10
24.8957212086
 20
11.4032900327
 30
0.0
 11
24.8957212086
 21
14.4032900697
 31
0.0
  0
CIRCLE
  5
165
330
1F
100
AcDbEntity
  8
0
  6
Continuous
 62
     7
370
    15
100
AcDbCircle
 10
23.5207211061
 20
13.8407901643
 30
0.0
 40
0.0847499999999997
  0
CIRCLE
  5
166
330
1F
100
AcDbEntity
  8
0
  6
Continuous
 62
     7
370
    15
100
AcDbCircle
 10
23.5207211061
 20
13.3407901643
 30
0.0
 40
0.0847499999999997
  0
CIRCLE
  5
167
330
1F
100
AcDbEntity
  8
0
  6
Continuous
 62
     7
370
    15
100
AcDbCircle
 10
23.5207211061
 20
12.8407901643
 30
0.0
 40
0.0847499999999997
  0
CIRCLE
  5
168
330
1F
100
AcDbEntity
  8
0
  6
Continuous
 62
     7
370
    15
100
AcDbCircle
 10
23.5207211061
 20
12.3407901643
 30
0.0
 40
0.0847499999999997
  0
CIRCLE
  5
169
330
1F
100
AcDbEntity
  8
0
  6
Continuous
 62
     7
370
    15
100
AcDbCircle
 10
23.5207211061
 20
11.8407901643
 30
0.0
 40
0.0847499999999997
  0
ARC
  5
16A
330
1F
100
AcDbEntity
  8
0
  6
Continuous
 62
     7
370
    15
100
AcDbCircle
 10
23.1457211061
 20
13.6532901643
 30
0.0
 40
0.1250000000000036
100
AcDbArc
 50
0.0
 51
90.0
  0
LINE
  5
16B
330
1F
100
AcDbEntity
  8
0
  6
Continuous
 62
     7
370
    15
100
AcDbLine
 10
23.1457206247
 20
13.7782901965
 30
0.0
 11
22.7707205834
 21
13.7782901965
 31
0.0
  0
ARC
  5
16C
330
1F
100
AcDbEntity
  8
0
  6
Continuous
 62
     7
370
    15
100
AcDbCircle
 10
22.7707211061
 20
13.6532901643
 30
0.0
 40
0.1250000000000018
100
AcDbArc
 50
90.0
 51
180.0
  0
LINE
  5
16D
330
1F
100
AcDbEntity
  8
0
  6
Continuous
 62
     7
370
    15
100
AcDbLine
 10
22.6457209608
 20
13.6532902805
 30
0.0
 11
22.6457209608
 21
12.1532901153
 31
0.0
  0
ARC
  5
16E
330
1F
100
AcDbEntity
  8
0
  6
Continuous
 62
     7
370
    15
100
AcDbCircle
 10
22.7707211061
 20
12.1532901643
 30
0.0
 40
0.125
100
AcDbArc
 50
180.0
 51
270.0
  0
LINE
  5
16F
330
1F
100
AcDbEntity
  8
0
  6
Continuous
 62
     7
370
    15
100
AcDbLine
 10
22.7707205834
 20
12.028289906
 30
0.0
 11
23.1457206247
 21
12.028289906
 31
0.0
  0
ARC
  5
170
330
1F
100
AcDbEntity
  8
0
  6
Continuous
 62
     7
370
    15
100
AcDbCircle
 10
23.1457211061
 20
12.1532901643
 30
0.0
 40
0.1250000000000036
100
AcDbArc
 50
270.0
 51
0.0
  0
LINE
  5
171
330
1F
100
AcDbEntity
  8
0
  6
Continuous
 62
     7
370
    15
100
AcDbLine
 10
23.2707214207
 20
12.1532901153
 30
0.0
 11
23.2707214207
 21
13.6532902805
 31
0.0
  0
ARC
  5
172
330
1F
100
AcDbEntity
  8
0
  6
Continuous
 62
     7
370
    15
100
AcDbCircle
 10
23.8957211061
 20
13.6532901643
 30
0.0
 40
0.1250000000000018
100
AcDbArc
 50
90.0
 51
180.0
  0
LINE
  5
173
330
1F
100
AcDbEntity
  8
0
  6
Continuous
 62
     7
370
    15
100
AcDbLine
 10
23.7707210847
 20
13.6532902805
 30
0.0
 11
23.7707210847
 21
12.1532901153
 31
0.0
  0
ARC
  5
174
330
1F
100
AcDbEntity
  8
0
  6
Continuous
 62
     7
370
    15
100
AcDbCircle
 10
23.8957211061
 20
12.1532901643
 30
0.0
 40
0.125
100
AcDbArc
 50
180.0
 51
270.0
  0
LINE
  5
175
330
1F
100
AcDbEntity
  8
0
  6
Continuous
 62
     7
370
    15
100
AcDbLine
 10
23.8957207073
 20
12.028289906
 30
0.0
 11
24.2707207486
 21
12.028289906
 31
0.0
  0
ARC
  5
176
330
1F
100
AcDbEntity
  8
0
  6
Continuous
 62
     7
370
    15
100
AcDbCircle
 10
24.2707211061
 20
12.1532901643
 30
0.0
 40
0.1250000000000036
100
AcDbArc
 50
270.0
 51
0.0
  0
LINE
  5
177
330
1F
100
AcDbEntity
  8
0
  6
Continuous
 62
     7
370
    15
100
AcDbLine
 10
24.3957215446
 20
12.1532901153
 30
0.0
 11
24.3957215446
 21
13.6532902805
 31
0.0
  0
ARC
  5
178
330
1F
100
AcDbEntity
  8
0
  6
Continuous
 62
     7
370
    15
100
AcDbCircle
 10
24.2707211061
 20
13.6532901643
 30
0.0
 40
0.1250000000000036
100
AcDbArc
 50
0.0
 51
90.0
  0
LINE
  5
179
330
1F
100
AcDbEntity
  8
0
  6
Continuous
 62
     7
370
    15
100
AcDbLine
 10
24.2707207486
 20
13.7782901965
 30
0.0
 11
23.8957207073
 21
13.7782901965
 31
0.0
  0
LINE
  5
17A
330
1F
100
AcDbEntity
  8
0
  6
Continuous
 62
     7
370
    15
100
AcDbLine
 10
22.6457209608
 20
14.4032900697
 30
0.0
 11
22.6457209608
 21
14.1532902378
 31
0.0
  0
LINE
  5
17B
330
1F
100
AcDbEntity
  8
0
  6
Continuous
 62
     7
370
    15
100
AcDbLine
 10
24.3957215446
 20
5.2782897492
 30
0.0
 11
24.8957212086
 21
5.2782897492
 31
0.0
  0
LINE
  5
17C
330
1F
100
AcDbEntity
  8
0
  6
Continuous
 62
     7
370
    15
100
AcDbLine
 10
24.3957215446
 20
5.2782897492
 30
0.0
 11
24.3957215446
 21
5.5282901678
 31
0.0
  0
LINE
  5
17D
330
1F
100
AcDbEntity
  8
0
  6
Continuous
 62
     7
370
    15
100
AcDbLine
 10
22.6457209608
 20
5.5282901678
 30
0.0
 11
24.3957215446
 21
5.5282901678
 31
0.0
  0
LINE
  5
17E
330
1F
100
AcDbEntity
  8
0
  6
Continuous
 62
     7
370
    15
100
AcDbLine
 10
22.6457209608
 20
5.2782897492
 30
0.0
 11
22.6457209608
 21
5.5282901678
 31
0.0
  0
LINE
  5
17F
330
1F
100
AcDbEntity
  8
0
  6
Continuous
 62
     7
370
    15
100
AcDbLine
 10
22.1457212968
 20
5.2782897492
 30
0.0
 11
22.6457209608
 21
5.2782897492
 31
0.0
  0
LINE
  5
180
330
1F
100
AcDbEntity
  8
0
  6
Continuous
 62
     7
370
    15
100
AcDbLine
 10
22.1457212968
 20
8.2782900796
 30
0.0
 11
22.1457212968
 21
5.2782897492
 31
0.0
  0
LINE
  5
181
330
1F
100
AcDbEntity
  8
0
  6
Continuous
 62
     7
370
    15
100
AcDbLine
 10
22.1457212968
 20
8.2782900796
 30
0.0
 11
22.6457209608
 21
8.2782900796
 31
0.0
  0
LINE
  5
182
330
1F
100
AcDbEntity
  8
0
  6
Continuous
 62
     7
370
    15
100
AcDbLine
 10
24.3957215446
 20
8.028289661
 30
0.0
 11
22.6457209608
 21
8.028289661
 31
0.0
  0
LINE
  5
183
330
1F
100
AcDbEntity
  8
0
  6
Continuous
 62
     7
370
    15
100
AcDbLine
 10
24.3957215446
 20
8.2782900796
 30
0.0
 11
24.3957215446
 21
8.028289661
 31
0.0
  0
LINE
  5
184
330
1F
100
AcDbEntity
  8
0
  6
Continuous
 62
     7
370
    15
100
AcDbLine
 10
24.3957215446
 20
8.2782900796
 30
0.0
 11
24.8957212086
 21
8.2782900796
 31
0.0
  0
LINE
  5
185
330
1F
100
AcDbEntity
  8
0
  6
Continuous
 62
     7
370
    15
100
AcDbLine
 10
24.8957212086
 20
5.2782897492
 30
0.0
 11
24.8957212086
 21
8.2782900796
 31
0.0
  0
CIRCLE
  5
186
330
1F
100
AcDbEntity
  8
0
  6
Continuous
 62
     7
370
    15
100
AcDbCircle
 10
23.5207211061
 20
7.7157901643
 30
0.0
 40
0.0847499999999997
  0
CIRCLE
  5
187
330
1F
100
AcDbEntity
  8
0
  6
Continuous
 62
     7
370
    15
100
AcDbCircle
 10
23.5207211061
 20
7.2157901643
 30
0.0
 40
0.0847499999999997
  0
CIRCLE
  5
188
330
1F
100
AcDbEntity
  8
0
  6
Continuous
 62
     7
370
    15
100
AcDbCircle
 10
23.5207211061
 20
6.7157901643
 30
0.0
 40
0.0847499999999997
  0
CIRCLE
  5
189
330
1F
100
AcDbEntity
  8
0
  6
Continuous
 62
     7
370
    15
100
AcDbCircle
 10
23.5207211061
 20
6.2157901643
 30
0.0
 40
0.0847499999999997
  0
CIRCLE
  5
18A
330
1F
100
AcDbEntity
  8
0
  6
Continuous
 62
     7
370
    15
100
AcDbCircle
 10
23.5207211061
 20
5.7157901643
 30
0.0
 40
0.0847499999999997
  0
ARC
  5
18B
330
1F
100
AcDbEntity
  8
0
  6
Continuous
 62
     7
370
    15
100
AcDbCircle
 10
23.1457211061
 20
7.5282901643
 30
0.0
 40
0.1250000000000036
100
AcDbArc
 50
0.0
 51
90.0
  0
LINE
  5
18C
330
1F
100
AcDbEntity
  8
0
  6
Continuous
 62
     7
370
    15
100
AcDbLine
 10
23.1457206247
 20
7.6532896197
 30
0.0
 11
22.7707205834
 21
7.6532896197
 31
0.0
  0
ARC
  5
18D
330
1F
100
AcDbEntity
  8
0
  6
Continuous
 62
     7
370
    15
100
AcDbCircle
 10
22.7707211061
 20
7.5282901643
 30
0.0
 40
0.125
100
AcDbArc
 50
90.0
 51
180.0
  0
LINE
  5
18E
330
1F
100
AcDbEntity
  8
0
  6
Continuous
 62
     7
370
    15
100
AcDbLine
 10
22.6457209608
 20
7.528289997
 30
0.0
 11
22.6457209608
 21
6.0282898318
 31
0.0
  0
ARC
  5
18F
330
1F
100
AcDbEntity
  8
0
  6
Continuous
 62
     7
370
    15
100
AcDbCircle
 10
22.7707211061
 20
6.0282901643
 30
0.0
 40
0.125
100
AcDbArc
 50
180.0
 51
270.0
  0
LINE
  5
190
330
1F
100
AcDbEntity
  8
0
  6
Continuous
 62
     7
370
    15
100
AcDbLine
 10
22.7707205834
 20
5.9032902091
 30
0.0
 11
23.1457206247
 21
5.9032902091
 31
0.0
  0
ARC
  5
191
330
1F
100
AcDbEntity
  8
0
  6
Continuous
 62
     7
370
    15
100
AcDbCircle
 10
23.1457211061
 20
6.0282901643
 30
0.0
 40
0.1250000000000036
100
AcDbArc
 50
270.0
 51
0.0
  0
LINE
  5
192
330
1F
100
AcDbEntity
  8
0
  6
Continuous
 62
     7
370
    15
100
AcDbLine
 10
23.2707214207
 20
6.0282898318
 30
0.0
 11
23.2707214207
 21
7.528289997
 31
0.0
  0
ARC
  5
193
330
1F
100
AcDbEntity
  8
0
  6
Continuous
 62
     7
370
    15
100
AcDbCircle
 10
23.8957211061
 20
7.5282901643
 30
0.0
 40
0.1249999999999991
100
AcDbArc
 50
90.0
 51
180.0
  0
LINE
  5
194
330
1F
100
AcDbEntity
  8
0
  6
Continuous
 62
     7
370
    15
100
AcDbLine
 10
23.7707210847
 20
7.528289997
 30
0.0
 11
23.7707210847
 21
6.0282898318
 31
0.0
  0
ARC
  5
195
330
1F
100
AcDbEntity
  8
0
  6
Continuous
 62
     7
370
    15
100
AcDbCircle
 10
23.8957211061
 20
6.0282901643
 30
0.0
 40
0.1249999999999991
100
AcDbArc
 50
180.0
 51
270.0
  0
LINE
  5
196
330
1F
100
AcDbEntity
  8
0
  6
Continuous
 62
     7
370
    15
100
AcDbLine
 10
23.8957207073
 20
5.9032902091
 30
0.0
 11
24.2707207486
 21
5.9032902091
 31
0.0
  0
ARC
  5
197
330
1F
100
AcDbEntity
  8
0
  6
Continuous
 62
     7
370
    15
100
AcDbCircle
 10
24.2707211061
 20
6.0282901643
 30
0.0
 40
0.1250000000000036
100
AcDbArc
 50
270.0
 51
0.0
  0
LINE
  5
198
330
1F
100
AcDbEntity
  8
0
  6
Continuous
 62
     7
370
    15
100
AcDbLine
 10
24.3957215446
 20
6.0282898318
 30
0.0
 11
24.3957215446
 21
7.528289997
 31
0.0
  0
ARC
  5
199
330
1F
100
AcDbEntity
  8
0
  6
Continuous
 62
     7
370
    15
100
AcDbCircle
 10
24.2707211061
 20
7.5282901643
 30
0.0
 40
0.1250000000000036
100
AcDbArc
 50
0.0
 51
90.0
  0
LINE
  5
19A
330
1F
100
AcDbEntity
  8
0
  6
Continuous
 62
     7
370
    15
100
AcDbLine
 10
24.2707207486
 20
7.6532896197
 30
0.0
 11
23.8957207073
 21
7.6532896197
 31
0.0
  0
LINE
  5
19B
330
1F
100
AcDbEntity
  8
0
  6
Continuous
 62
     7
370
    15
100
AcDbLine
 10
22.6457209608
 20
8.2782900796
 30
0.0
 11
22.6457209608
 21
8.028289661
 31
0.0
  0
LINE
  5
19C
330
1F
100
AcDbEntity
  8
0
  6
Continuous
 62
     7
370
    15
100
AcDbLine
 10
21.5832212349
 20
11.9645645621
 30
0.0
 11
22.0832208988
 21
11.9645645621
 31
0.0
  0
LINE
  5
19D
330
1F
100
AcDbEntity
  8
0
  6
Continuous
 62
     7
370
    15
100
AcDbLine
 10
21.5832212349
 20
11.9645645621
 30
0.0
 11
21.5832212349
 21
12.2145649808
 31
0.0
  0
LINE
  5
19E
330
1F
100
AcDbEntity
  8
0
  6
Continuous
 62
     7
370
    15
100
AcDbLine
 10
19.8332212377
 20
12.2145649808
 30
0.0
 11
21.5832212349
 21
12.2145649808
 31
0.0
  0
LINE
  5
19F
330
1F
100
AcDbEntity
  8
0
  6
Continuous
 62
     7
370
    15
100
AcDbLine
 10
19.8332212377
 20
11.9645645621
 30
0.0
 11
19.8332212377
 21
12.2145649808
 31
0.0
  0
LINE
  5
1A0
330
1F
100
AcDbEntity
  8
0
  6
Continuous
 62
     7
370
    15
100
AcDbLine
 10
19.3332209871
 20
11.9645645621
 30
0.0
 11
19.8332212377
 21
11.9645645621
 31
0.0
  0
LINE
  5
1A1
330
1F
100
AcDbEntity
  8
0
  6
Continuous
 62
     7
370
    15
100
AcDbLine
 10
19.3332209871
 20
14.9645645992
 30
0.0
 11
19.3332209871
 21
11.9645645621
 31
0.0
  0
LINE
  5
1A2
330
1F
100
AcDbEntity
  8
0
  6
Continuous
 62
     7
370
    15
100
AcDbLine
 10
19.3332209871
 20
14.9645645992
 30
0.0
 11
19.8332212377
 21
14.9645645992
 31
0.0
  0
LINE
  5
1A3
330
1F
100
AcDbEntity
  8
0
  6
Continuous
 62
     7
370
    15
100
AcDbLine
 10
19.8332212377
 20
14.9645645992
 30
0.0
 11
19.8332212377
 21
14.7145647672
 31
0.0
  0
LINE
  5
1A4
330
1F
100
AcDbEntity
  8
0
  6
Continuous
 62
     7
370
    15
100
AcDbLine
 10
21.5832212349
 20
14.7145647672
 30
0.0
 11
19.8332212377
 21
14.7145647672
 31
0.0
  0
LINE
  5
1A5
330
1F
100
AcDbEntity
  8
0
  6
Continuous
 62
     7
370
    15
100
AcDbLine
 10
21.5832212349
 20
14.9645645992
 30
0.0
 11
21.5832212349
 21
14.7145647672
 31
0.0
  0
LINE
  5
1A6
330
1F
100
AcDbEntity
  8
0
  6
Continuous
 62
     7
370
    15
100
AcDbLine
 10
21.5832212349
 20
14.9645645992
 30
0.0
 11
22.0832208988
 21
14.9645645992
 31
0.0
  0
LINE
  5
1A7
330
1F
100
AcDbEntity
  8
0
  6
Continuous
 62
     7
370
    15
100
AcDbLine
 10
22.0832208988
 20
11.9645645621
 30
0.0
 11
22.0832208988
 21
14.9645645992
 31
0.0
  0
CIRCLE
  5
1A8
330
1F
100
AcDbEntity
  8
0
  6
Continuous
 62
     7
370
    15
100
AcDbCircle
 10
20.7082211061
 20
14.4020647222
 30
0.0
 40
0.0847500000000032
  0
CIRCLE
  5
1A9
330
1F
100
AcDbEntity
  8
0
  6
Continuous
 62
     7
370
    15
100
AcDbCircle
 10
20.7082211061
 20
13.9020647222
 30
0.0
 40
0.0847499999999997
  0
CIRCLE
  5
1AA
330
1F
100
AcDbEntity
  8
0
  6
Continuous
 62
     7
370
    15
100
AcDbCircle
 10
20.7082211061
 20
13.4020647222
 30
0.0
 40
0.0847499999999997
  0
CIRCLE
  5
1AB
330
1F
100
AcDbEntity
  8
0
  6
Continuous
 62
     7
370
    15
100
AcDbCircle
 10
20.7082211061
 20
12.9020647222
 30
0.0
 40
0.0847499999999997
  0
CIRCLE
  5
1AC
330
1F
100
AcDbEntity
  8
0
  6
Continuous
 62
     7
370
    15
100
AcDbCircle
 10
20.7082211061
 20
12.4020647222
 30
0.0
 40
0.0847499999999997
  0
ARC
  5
1AD
330
1F
100
AcDbEntity
  8
0
  6
Continuous
 62
     7
370
    15
100
AcDbCircle
 10
20.3332211061
 20
14.2145647222
 30
0.0
 40
0.1249999999999982
100
AcDbArc
 50
0.0
 51
90.0
  0
LINE
  5
1AE
330
1F
100
AcDbEntity
  8
0
  6
Continuous
 62
     7
370
    15
100
AcDbLine
 10
20.3332209016
 20
14.3395647259
 30
0.0
 11
19.9582208603
 21
14.3395647259
 31
0.0
  0
ARC
  5
1AF
330
1F
100
AcDbEntity
  8
0
  6
Continuous
 62
     7
370
    15
100
AcDbCircle
 10
19.9582211061
 20
14.2145647222
 30
0.0
 40
0.1250000000000036
100
AcDbArc
 50
90.0
 51
180.0
  0
LINE
  5
1B0
330
1F
100
AcDbEntity
  8
0
  6
Continuous
 62
     7
370
    15
100
AcDbLine
 10
19.8332212377
 20
14.2145648099
 30
0.0
 11
19.8332212377
 21
12.7145646447
 31
0.0
  0
ARC
  5
1B1
330
1F
100
AcDbEntity
  8
0
  6
Continuous
 62
     7
370
    15
100
AcDbCircle
 10
19.9582211061
 20
12.7145647222
 30
0.0
 40
0.1250000000000036
100
AcDbArc
 50
180.0
 51
270.0
  0
LINE
  5
1B2
330
1F
100
AcDbEntity
  8
0
  6
Continuous
 62
     7
370
    15
100
AcDbLine
 10
19.9582208603
 20
12.5895644354
 30
0.0
 11
20.3332209016
 21
12.5895644354
 31
0.0
  0
ARC
  5
1B3
330
1F
100
AcDbEntity
  8
0
  6
Continuous
 62
     7
370
    15
100
AcDbCircle
 10
20.3332211061
 20
12.7145647222
 30
0.0
 40
0.1250000000000018
100
AcDbArc
 50
270.0
 51
0.0
  0
LINE
  5
1B4
330
1F
100
AcDbEntity
  8
0
  6
Continuous
 62
     7
370
    15
100
AcDbLine
 10
20.458221111
 20
12.7145646447
 30
0.0
 11
20.458221111
 21
14.2145648099
 31
0.0
  0
ARC
  5
1B5
330
1F
100
AcDbEntity
  8
0
  6
Continuous
 62
     7
370
    15
100
AcDbCircle
 10
21.0832211061
 20
14.2145647222
 30
0.0
 40
0.125
100
AcDbArc
 50
90.0
 51
180.0
  0
LINE
  5
1B6
330
1F
100
AcDbEntity
  8
0
  6
Continuous
 62
     7
370
    15
100
AcDbLine
 10
20.9582213616
 20
14.2145648099
 30
0.0
 11
20.9582213616
 21
12.7145646447
 31
0.0
  0
ARC
  5
1B7
330
1F
100
AcDbEntity
  8
0
  6
Continuous
 62
     7
370
    15
100
AcDbCircle
 10
21.0832211061
 20
12.7145647222
 30
0.0
 40
0.1250000000000018
100
AcDbArc
 50
180.0
 51
270.0
  0
LINE
  5
1B8
330
1F
100
AcDbEntity
  8
0
  6
Continuous
 62
     7
370
    15
100
AcDbLine
 10
21.0832209842
 20
12.5895644354
 30
0.0
 11
21.4582210255
 21
12.5895644354
 31
0.0
  0
ARC
  5
1B9
330
1F
100
AcDbEntity
  8
0
  6
Continuous
 62
     7
370
    15
100
AcDbCircle
 10
21.4582211061
 20
12.7145647222
 30
0.0
 40
0.1250000000000018
100
AcDbArc
 50
270.0
 51
0.0
  0
LINE
  5
1BA
330
1F
100
AcDbEntity
  8
0
  6
Continuous
 62
     7
370
    15
100
AcDbLine
 10
21.5832212349
 20
12.7145646447
 30
0.0
 11
21.5832212349
 21
14.2145648099
 31
0.0
  0
ARC
  5
1BB
330
1F
100
AcDbEntity
  8
0
  6
Continuous
 62
     7
370
    15
100
AcDbCircle
 10
21.4582211061
 20
14.2145647222
 30
0.0
 40
0.125
100
AcDbArc
 50
0.0
 51
90.0
  0
LINE
  5
1BC
330
1F
100
AcDbEntity
  8
0
  6
Continuous
 62
     7
370
    15
100
AcDbLine
 10
21.4582210255
 20
14.3395647259
 30
0.0
 11
21.0832209842
 21
14.3395647259
 31
0.0
  0
LINE
  5
1BD
330
1F
100
AcDbEntity
  8
0
  6
Continuous
 62
     7
370
    15
100
AcDbLine
 10
18.7707209251
 20
11.9645645621
 30
0.0
 11
19.2707211757
 21
11.9645645621
 31
0.0
  0
LINE
  5
1BE
330
1F
100
AcDbEntity
  8
0
  6
Continuous
 62
     7
370
    15
100
AcDbLine
 10
18.7707209251
 20
11.9645645621
 30
0.0
 11
18.7707209251
 21
12.2145649808
 31
0.0
  0
LINE
  5
1BF
330
1F
100
AcDbEntity
  8
0
  6
Continuous
 62
     7
370
    15
100
AcDbLine
 10
17.0207209279
 20
12.2145649808
 30
0.0
 11
18.7707209251
 21
12.2145649808
 31
0.0
  0
LINE
  5
1C0
330
1F
100
AcDbEntity
  8
0
  6
Continuous
 62
     7
370
    15
100
AcDbLine
 10
17.0207209279
 20
11.9645645621
 30
0.0
 11
17.0207209279
 21
12.2145649808
 31
0.0
  0
LINE
  5
1C1
330
1F
100
AcDbEntity
  8
0
  6
Continuous
 62
     7
370
    15
100
AcDbLine
 10
16.5207209706
 20
11.9645645621
 30
0.0
 11
17.0207209279
 21
11.9645645621
 31
0.0
  0
LINE
  5
1C2
330
1F
100
AcDbEntity
  8
0
  6
Continuous
 62
     7
370
    15
100
AcDbLine
 10
16.5207209706
 20
14.9645645992
 30
0.0
 11
16.5207209706
 21
11.9645645621
 31
0.0
  0
LINE
  5
1C3
330
1F
100
AcDbEntity
  8
0
  6
Continuous
 62
     7
370
    15
100
AcDbLine
 10
16.5207209706
 20
14.9645645992
 30
0.0
 11
17.0207209279
 21
14.9645645992
 31
0.0
  0
LINE
  5
1C4
330
1F
100
AcDbEntity
  8
0
  6
Continuous
 62
     7
370
    15
100
AcDbLine
 10
18.7707209251
 20
14.7145647672
 30
0.0
 11
17.0207209279
 21
14.7145647672
 31
0.0
  0
LINE
  5
1C5
330
1F
100
AcDbEntity
  8
0
  6
Continuous
 62
     7
370
    15
100
AcDbLine
 10
18.7707209251
 20
14.9645645992
 30
0.0
 11
18.7707209251
 21
14.7145647672
 31
0.0
  0
LINE
  5
1C6
330
1F
100
AcDbEntity
  8
0
  6
Continuous
 62
     7
370
    15
100
AcDbLine
 10
18.7707209251
 20
14.9645645992
 30
0.0
 11
19.2707211757
 21
14.9645645992
 31
0.0
  0
LINE
  5
1C7
330
1F
100
AcDbEntity
  8
0
  6
Continuous
 62
     7
370
    15
100
AcDbLine
 10
19.2707211757
 20
11.9645645621
 30
0.0
 11
19.2707211757
 21
14.9645645992
 31
0.0
  0
CIRCLE
  5
1C8
330
1F
100
AcDbEntity
  8
0
  6
Continuous
 62
     7
370
    15
100
AcDbCircle
 10
17.8957211061
 20
14.4020647222
 30
0.0
 40
0.0847499999999997
  0
CIRCLE
  5
1C9
330
1F
100
AcDbEntity
  8
0
  6
Continuous
 62
     7
370
    15
100
AcDbCircle
 10
17.8957211061
 20
13.9020647222
 30
0.0
 40
0.0847499999999961
  0
CIRCLE
  5
1CA
330
1F
100
AcDbEntity
  8
0
  6
Continuous
 62
     7
370
    15
100
AcDbCircle
 10
17.8957211061
 20
13.4020647222
 30
0.0
 40
0.0847499999999961
  0
CIRCLE
  5
1CB
330
1F
100
AcDbEntity
  8
0
  6
Continuous
 62
     7
370
    15
100
AcDbCircle
 10
17.8957211061
 20
12.9020647222
 30
0.0
 40
0.0847499999999961
  0
CIRCLE
  5
1CC
330
1F
100
AcDbEntity
  8
0
  6
Continuous
 62
     7
370
    15
100
AcDbCircle
 10
17.8957211061
 20
12.4020647222
 30
0.0
 40
0.0847499999999961
  0
ARC
  5
1CD
330
1F
100
AcDbEntity
  8
0
  6
Continuous
 62
     7
370
    15
100
AcDbCircle
 10
17.5207211061
 20
14.2145647222
 30
0.0
 40
0.125
100
AcDbArc
 50
0.0
 51
90.0
  0
LINE
  5
1CE
330
1F
100
AcDbEntity
  8
0
  6
Continuous
 62
     7
370
    15
100
AcDbLine
 10
17.5207211785
 20
14.3395647259
 30
0.0
 11
17.1457211372
 21
14.3395647259
 31
0.0
  0
ARC
  5
1CF
330
1F
100
AcDbEntity
  8
0
  6
Continuous
 62
     7
370
    15
100
AcDbCircle
 10
17.1457211061
 20
14.2145647222
 30
0.0
 40
0.125
100
AcDbArc
 50
90.0
 51
180.0
  0
LINE
  5
1D0
330
1F
100
AcDbEntity
  8
0
  6
Continuous
 62
     7
370
    15
100
AcDbLine
 10
17.0207209279
 20
14.2145648099
 30
0.0
 11
17.0207209279
 21
12.7145646447
 31
0.0
  0
ARC
  5
1D1
330
1F
100
AcDbEntity
  8
0
  6
Continuous
 62
     7
370
    15
100
AcDbCircle
 10
17.1457211061
 20
12.7145647222
 30
0.0
 40
0.1250000000000018
100
AcDbArc
 50
180.0
 51
270.0
  0
LINE
  5
1D2
330
1F
100
AcDbEntity
  8
0
  6
Continuous
 62
     7
370
    15
100
AcDbLine
 10
17.1457211372
 20
12.5895644354
 30
0.0
 11
17.5207211785
 21
12.5895644354
 31
0.0
  0
ARC
  5
1D3
330
1F
100
AcDbEntity
  8
0
  6
Continuous
 62
     7
370
    15
100
AcDbCircle
 10
17.5207211061
 20
12.7145647222
 30
0.0
 40
0.1250000000000018
100
AcDbArc
 50
270.0
 51
0.0
  0
LINE
  5
1D4
330
1F
100
AcDbEntity
  8
0
  6
Continuous
 62
     7
370
    15
100
AcDbLine
 10
17.6457213879
 20
12.7145646447
 30
0.0
 11
17.6457213879
 21
14.2145648099
 31
0.0
  0
ARC
  5
1D5
330
1F
100
AcDbEntity
  8
0
  6
Continuous
 62
     7
370
    15
100
AcDbCircle
 10
18.2707211061
 20
14.2145647222
 30
0.0
 40
0.125
100
AcDbArc
 50
90.0
 51
180.0
  0
LINE
  5
1D6
330
1F
100
AcDbEntity
  8
0
  6
Continuous
 62
     7
370
    15
100
AcDbLine
 10
18.1457210518
 20
14.2145648099
 30
0.0
 11
18.1457210518
 21
12.7145646447
 31
0.0
  0
ARC
  5
1D7
330
1F
100
AcDbEntity
  8
0
  6
Continuous
 62
     7
370
    15
100
AcDbCircle
 10
18.2707211061
 20
12.7145647222
 30
0.0
 40
0.1250000000000018
100
AcDbArc
 50
180.0
 51
270.0
  0
LINE
  5
1D8
330
1F
100
AcDbEntity
  8
0
  6
Continuous
 62
     7
370
    15
100
AcDbLine
 10
18.2707212612
 20
12.5895644354
 30
0.0
 11
18.6457213025
 21
12.5895644354
 31
0.0
  0
ARC
  5
1D9
330
1F
100
AcDbEntity
  8
0
  6
Continuous
 62
     7
370
    15
100
AcDbCircle
 10
18.6457211061
 20
12.7145647222
 30
0.0
 40
0.1250000000000018
100
AcDbArc
 50
270.0
 51
0.0
  0
LINE
  5
1DA
330
1F
100
AcDbEntity
  8
0
  6
Continuous
 62
     7
370
    15
100
AcDbLine
 10
18.7707209251
 20
12.7145646447
 30
0.0
 11
18.7707209251
 21
14.2145648099
 31
0.0
  0
ARC
  5
1DB
330
1F
100
AcDbEntity
  8
0
  6
Continuous
 62
     7
370
    15
100
AcDbCircle
 10
18.6457211061
 20
14.2145647222
 30
0.0
 40
0.125
100
AcDbArc
 50
0.0
 51
90.0
  0
LINE
  5
1DC
330
1F
100
AcDbEntity
  8
0
  6
Continuous
 62
     7
370
    15
100
AcDbLine
 10
18.6457213025
 20
14.3395647259
 30
0.0
 11
18.2707212612
 21
14.3395647259
 31
0.0
  0
LINE
  5
1DD
330
1F
100
AcDbEntity
  8
0
  6
Continuous
 62
     7
370
    15
100
AcDbLine
 10
17.0207209279
 20
14.9645645992
 30
0.0
 11
17.0207209279
 21
14.7145647672
 31
0.0
  0
LINE
  5
1DE
330
1F
100
AcDbEntity
  8
0
  6
Continuous
 62
     7
370
    15
100
AcDbLine
 10
24.3957215446
 20
8.3407904776
 30
0.0
 11
24.8957212086
 21
8.3407904776
 31
0.0
  0
LINE
  5
1DF
330
1F
100
AcDbEntity
  8
0
  6
Continuous
 62
     7
370
    15
100
AcDbLine
 10
24.3957215446
 20
8.3407904776
 30
0.0
 11
24.3957215446
 21
8.5907897229
 31
0.0
  0
LINE
  5
1E0
330
1F
100
AcDbEntity
  8
0
  6
Continuous
 62
     7
370
    15
100
AcDbLine
 10
22.6457209608
 20
8.5907897229
 30
0.0
 11
24.3957215446
 21
8.5907897229
 31
0.0
  0
LINE
  5
1E1
330
1F
100
AcDbEntity
  8
0
  6
Continuous
 62
     7
370
    15
100
AcDbLine
 10
22.6457209608
 20
8.3407904776
 30
0.0
 11
22.6457209608
 21
8.5907897229
 31
0.0
  0
LINE
  5
1E2
330
1F
100
AcDbEntity
  8
0
  6
Continuous
 62
     7
370
    15
100
AcDbLine
 10
22.1457212968
 20
8.3407904776
 30
0.0
 11
22.6457209608
 21
8.3407904776
 31
0.0
  0
LINE
  5
1E3
330
1F
100
AcDbEntity
  8
0
  6
Continuous
 62
     7
370
    15
100
AcDbLine
 10
22.1457212968
 20
11.3407902213
 30
0.0
 11
22.1457212968
 21
8.3407904776
 31
0.0
  0
LINE
  5
1E4
330
1F
100
AcDbEntity
  8
0
  6
Continuous
 62
     7
370
    15
100
AcDbLine
 10
22.1457212968
 20
11.3407902213
 30
0.0
 11
22.6457209608
 21
11.3407902213
 31
0.0
  0
LINE
  5
1E5
330
1F
100
AcDbEntity
  8
0
  6
Continuous
 62
     7
370
    15
100
AcDbLine
 10
24.3957215446
 20
11.3407902213
 30
0.0
 11
24.3957215446
 21
11.0907903894
 31
0.0
  0
LINE
  5
1E6
330
1F
100
AcDbEntity
  8
0
  6
Continuous
 62
     7
370
    15
100
AcDbLine
 10
24.3957215446
 20
11.3407902213
 30
0.0
 11
24.8957212086
 21
11.3407902213
 31
0.0
  0
LINE
  5
1E7
330
1F
100
AcDbEntity
  8
0
  6
Continuous
 62
     7
370
    15
100
AcDbLine
 10
24.8957212086
 20
8.3407904776
 30
0.0
 11
24.8957212086
 21
11.3407902213
 31
0.0
  0
CIRCLE
  5
1E8
330
1F
100
AcDbEntity
  8
0
  6
Continuous
 62
     7
370
    15
100
AcDbCircle
 10
23.5207211061
 20
10.7782901643
 30
0.0
 40
0.0847499999999997
  0
CIRCLE
  5
1E9
330
1F
100
AcDbEntity
  8
0
  6
Continuous
 62
     7
370
    15
100
AcDbCircle
 10
23.5207211061
 20
10.2782901643
 30
0.0
 40
0.0847499999999997
  0
CIRCLE
  5
1EA
330
1F
100
AcDbEntity
  8
0
  6
Continuous
 62
     7
370
    15
100
AcDbCircle
 10
23.5207211061
 20
9.7782901643
 30
0.0
 40
0.0847499999999997
  0
CIRCLE
  5
1EB
330
1F
100
AcDbEntity
  8
0
  6
Continuous
 62
     7
370
    15
100
AcDbCircle
 10
23.5207211061
 20
9.2782901643
 30
0.0
 40
0.0847499999999997
  0
CIRCLE
  5
1EC
330
1F
100
AcDbEntity
  8
0
  6
Continuous
 62
     7
370
    15
100
AcDbCircle
 10
23.5207211061
 20
8.7782901643
 30
0.0
 40
0.0847499999999997
  0
ARC
  5
1ED
330
1F
100
AcDbEntity
  8
0
  6
Continuous
 62
     7
370
    15
100
AcDbCircle
 10
23.1457211061
 20
10.5907901643
 30
0.0
 40
0.1250000000000036
100
AcDbArc
 50
0.0
 51
90.0
  0
LINE
  5
1EE
330
1F
100
AcDbEntity
  8
0
  6
Continuous
 62
     7
370
    15
100
AcDbLine
 10
23.1457206247
 20
10.7157903481
 30
0.0
 11
22.7707205834
 21
10.7157903481
 31
0.0
  0
ARC
  5
1EF
330
1F
100
AcDbEntity
  8
0
  6
Continuous
 62
     7
370
    15
100
AcDbCircle
 10
22.7707211061
 20
10.5907901643
 30
0.0
 40
0.125
100
AcDbArc
 50
90.0
 51
180.0
  0
LINE
  5
1F0
330
1F
100
AcDbEntity
  8
0
  6
Continuous
 62
     7
370
    15
100
AcDbLine
 10
22.6457209608
 20
10.5907901387
 30
0.0
 11
22.6457209608
 21
9.0907899735
 31
0.0
  0
ARC
  5
1F1
330
1F
100
AcDbEntity
  8
0
  6
Continuous
 62
     7
370
    15
100
AcDbCircle
 10
22.7707211061
 20
9.0907901643
 30
0.0
 40
0.125
100
AcDbArc
 50
180.0
 51
270.0
  0
LINE
  5
1F2
330
1F
100
AcDbEntity
  8
0
  6
Continuous
 62
     7
370
    15
100
AcDbLine
 10
22.7707205834
 20
8.9657903509
 30
0.0
 11
23.1457206247
 21
8.9657903509
 31
0.0
  0
ARC
  5
1F3
330
1F
100
AcDbEntity
  8
0
  6
Continuous
 62
     7
370
    15
100
AcDbCircle
 10
23.1457211061
 20
9.0907901643
 30
0.0
 40
0.1250000000000036
100
AcDbArc
 50
270.0
 51
0.0
  0
LINE
  5
1F4
330
1F
100
AcDbEntity
  8
0
  6
Continuous
 62
     7
370
    15
100
AcDbLine
 10
23.2707214207
 20
9.0907899735
 30
0.0
 11
23.2707214207
 21
10.5907901387
 31
0.0
  0
ARC
  5
1F5
330
1F
100
AcDbEntity
  8
0
  6
Continuous
 62
     7
370
    15
100
AcDbCircle
 10
23.8957211061
 20
10.5907901643
 30
0.0
 40
0.1249999999999982
100
AcDbArc
 50
90.0
 51
180.0
  0
LINE
  5
1F6
330
1F
100
AcDbEntity
  8
0
  6
Continuous
 62
     7
370
    15
100
AcDbLine
 10
23.7707210847
 20
10.5907901387
 30
0.0
 11
23.7707210847
 21
9.0907899735
 31
0.0
  0
ARC
  5
1F7
330
1F
100
AcDbEntity
  8
0
  6
Continuous
 62
     7
370
    15
100
AcDbCircle
 10
23.8957211061
 20
9.0907901643
 30
0.0
 40
0.1249999999999982
100
AcDbArc
 50
180.0
 51
270.0
  0
LINE
  5
1F8
330
1F
100
AcDbEntity
  8
0
  6
Continuous
 62
     7
370
    15
100
AcDbLine
 10
23.8957207073
 20
8.9657903509
 30
0.0
 11
24.2707207486
 21
8.9657903509
 31
0.0
  0
ARC
  5
1F9
330
1F
100
AcDbEntity
  8
0
  6
Continuous
 62
     7
370
    15
100
AcDbCircle
 10
24.2707211061
 20
9.0907901643
 30
0.0
 40
0.1250000000000036
100
AcDbArc
 50
270.0
 51
0.0
  0
LINE
  5
1FA
330
1F
100
AcDbEntity
  8
0
  6
Continuous
 62
     7
370
    15
100
AcDbLine
 10
24.3957215446
 20
9.0907899735
 30
0.0
 11
24.3957215446
 21
10.5907901387
 31
0.0
  0
ARC
  5
1FB
330
1F
100
AcDbEntity
  8
0
  6
Continuous
 62
     7
370
    15
100
AcDbCircle
 10
24.2707211061
 20
10.5907901643
 30
0.0
 40
0.1250000000000036
100
AcDbArc
 50
0.0
 51
90.0
  0
LINE
  5
1FC
330
1F
100
AcDbEntity
  8
0
  6
Continuous
 62
     7
370
    15
100
AcDbLine
 10
24.2707207486
 20
10.7157903481
 30
0.0
 11
23.8957207073
 21
10.7157903481
 31
0.0
  0
LINE
  5
1FD
330
1F
100
AcDbEntity
  8
0
  6
Continuous
 62
     7
370
    15
100
AcDbLine
 10
24.3957215446
 20
11.0907903894
 30
0.0
 11
22.6457209608
 21
11.0907903894
 31
0.0
  0
LINE
  5
1FE
330
1F
100
AcDbEntity
  8
0
  6
Continuous
 62
     7
370
    15
100
AcDbLine
 10
22.6457209608
 20
11.3407902213
 30
0.0
 11
22.6457209608
 21
11.0907903894
 31
0.0
  0
LINE
  5
1FF
330
1F
100
AcDbEntity
  8
0
  6
Continuous
 62
     7
370
    15
100
AcDbLine
 10
27.8597041417
 20
-0.0875104513
 30
0.0
 11
27.8597041417
 21
3.0190906743
 31
0.0
  0
LINE
  5
200
330
1F
100
AcDbEntity
  8
0
  6
Continuous
 62
     7
370
    15
100
AcDbLine
 10
25.6630042915
 20
-2.2842103015
 30
0.0
 11
27.8597041417
 21
-0.0875104513
 31
0.0
  0
LINE
  5
201
330
1F
100
AcDbEntity
  8
0
  6
Continuous
 62
     7
370
    15
100
AcDbLine
 10
22.5564031659
 20
-2.2842103015
 30
0.0
 11
25.6630042915
 21
-2.2842103015
 31
0.0
  0
LINE
  5
202
330
1F
100
AcDbEntity
  8
0
  6
Continuous
 62
     7
370
    15
100
AcDbLine
 10
20.3597033157
 20
-0.0875104513
 30
0.0
 11
22.5564031659
 21
-2.2842103015
 31
0.0
  0
LINE
  5
203
330
1F
100
AcDbEntity
  8
0
  6
Continuous
 62
     7
370
    15
100
AcDbLine
 10
20.3597033157
 20
3.0190906743
 30
0.0
 11
20.3597033157
 21
-0.0875104513
 31
0.0
  0
LINE
  5
204
330
1F
100
AcDbEntity
  8
0
  6
Continuous
 62
     7
370
    15
100
AcDbLine
 10
22.5564031659
 20
5.2157905245
 30
0.0
 11
20.3597033157
 21
3.0190906743
 31
0.0
  0
LINE
  5
205
330
1F
100
AcDbEntity
  8
0
  6
Continuous
 62
     7
370
    15
100
AcDbLine
 10
25.6630042915
 20
5.2157905245
 30
0.0
 11
22.5564031659
 21
5.2157905245
 31
0.0
  0
CIRCLE
  5
206
330
1F
100
AcDbEntity
  8
0
  6
Continuous
 62
     7
370
    15
100
AcDbCircle
 10
20.8597035666
 20
2.811984242
 30
0.0
 40
0.0884999999999989
  0
CIRCLE
  5
207
330
1F
100
AcDbEntity
  8
0
  6
Continuous
 62
     7
370
    15
100
AcDbCircle
 10
20.8597035666
 20
0.1195960866
 30
0.0
 40
0.0884999999999988
  0
CIRCLE
  5
208
330
1F
100
AcDbEntity
  8
0
  6
Continuous
 62
     7
370
    15
100
AcDbCircle
 10
22.7635094889
 20
-1.7842098357
 30
0.0
 40
0.0885000000000031
  0
CIRCLE
  5
209
330
1F
100
AcDbEntity
  8
0
  6
Continuous
 62
     7
370
    15
100
AcDbCircle
 10
25.4558976443
 20
-1.7842098357
 30
0.0
 40
0.0885000000000031
  0
CIRCLE
  5
20A
330
1F
100
AcDbEntity
  8
0
  6
Continuous
 62
     7
370
    15
100
AcDbCircle
 10
27.3597035666
 20
0.1195960866
 30
0.0
 40
0.0884999999999988
  0
CIRCLE
  5
20B
330
1F
100
AcDbEntity
  8
0
  6
Continuous
 62
     7
370
    15
100
AcDbCircle
 10
27.3597035666
 20
2.811984242
 30
0.0
 40
0.0884999999999989
  0
CIRCLE
  5
20C
330
1F
100
AcDbEntity
  8
0
  6
Continuous
 62
     7
370
    15
100
AcDbCircle
 10
25.4558976443
 20
4.7157901643
 30
0.0
 40
0.0884999999999989
  0
CIRCLE
  5
20D
330
1F
100
AcDbEntity
  8
0
  6
Continuous
 62
     7
370
    15
100
AcDbCircle
 10
22.7635094889
 20
4.7157901643
 30
0.0
 40
0.0884999999999989
  0
CIRCLE
  5
20E
330
1F
100
AcDbEntity
  8
0
  6
Continuous
 62
     7
370
    15
100
AcDbCircle
 10
22.1097035666
 20
2.4657901643
 30
0.0
 40
0.0884999999999989
  0
CIRCLE
  5
20F
330
1F
100
AcDbEntity
  8
0
  6
Continuous
 62
     7
370
    15
100
AcDbCircle
 10
22.1097035666
 20
1.9657901643
 30
0.0
 40
0.0884999999999987
  0
CIRCLE
  5
210
330
1F
100
AcDbEntity
  8
0
  6
Continuous
 62
     7
370
    15
100
AcDbCircle
 10
22.1097035666
 20
1.4657901643
 30
0.0
 40
0.0884999999999987
  0
CIRCLE
  5
211
330
1F
100
AcDbEntity
  8
0
  6
Continuous
 62
     7
370
    15
100
AcDbCircle
 10
22.6097035666
 20
1.4657901643
 30
0.0
 40
0.0884999999999987
  0
CIRCLE
  5
212
330
1F
100
AcDbEntity
  8
0
  6
Continuous
 62
     7
370
    15
100
AcDbCircle
 10
23.1097035666
 20
1.4657901643
 30
0.0
 40
0.0884999999999987
  0
CIRCLE
  5
213
330
1F
100
AcDbEntity
  8
0
  6
Continuous
 62
     7
370
    15
100
AcDbCircle
 10
23.6097035666
 20
1.4657901643
 30
0.0
 40
0.0884999999999987
  0
CIRCLE
  5
214
330
1F
100
AcDbEntity
  8
0
  6
Continuous
 62
     7
370
    15
100
AcDbCircle
 10
24.1097035666
 20
1.4657901643
 30
0.0
 40
0.0884999999999987
  0
LINE
  5
215
330
1F
100
AcDbEntity
  8
0
  6
Continuous
 62
     7
370
    15
100
AcDbLine
 10
27.8597041417
 20
3.0190906743
 30
0.0
 11
25.6630042915
 21
5.2157905245
 31
0.0
  0
LINE
  5
216
330
1F
100
AcDbEntity
  8
0
  6
Continuous
 62
     7
370
    15
100
AcDbLine
 10
22.0832208988
 20
-6.180835794
 30
0.0
 11
22.0832208988
 21
-2.0387001776
 31
0.0
  0
LINE
  5
217
330
1F
100
AcDbEntity
  8
0
  6
Continuous
 62
     7
370
    15
100
AcDbLine
 10
19.1542891341
 20
-9.1097681454
 30
0.0
 11
22.0832208988
 21
-6.180835794
 31
0.0
  0
LINE
  5
218
330
1F
100
AcDbEntity
  8
0
  6
Continuous
 62
     7
370
    15
100
AcDbLine
 10
15.0121532244
 20
-9.1097681454
 30
0.0
 11
19.1542891341
 21
-9.1097681454
 31
0.0
  0
LINE
  5
219
330
1F
100
AcDbEntity
  8
0
  6
Continuous
 62
     7
370
    15
100
AcDbLine
 10
12.0832211113
 20
-6.180835794
 30
0.0
 11
15.0121532244
 21
-9.1097681454
 31
0.0
  0
LINE
  5
21A
330
1F
100
AcDbEntity
  8
0
  6
Continuous
 62
     7
370
    15
100
AcDbLine
 10
12.0832211113
 20
-2.0387001776
 30
0.0
 11
12.0832211113
 21
-6.180835794
 31
0.0
  0
ARC
  5
21B
330
1F
100
AcDbEntity
  8
0
  6
Continuous
 62
     7
370
    15
100
AcDbCircle
 10
15.7082211061
 20
-0.8597681665
 30
0.0
 40
0.1250000000000014
100
AcDbArc
 50
180.0
 51
270.0
  0
LINE
  5
21C
330
1F
100
AcDbEntity
  8
0
  6
Continuous
 62
     7
370
    15
100
AcDbLine
 10
15.7082210767
 20
-0.9847680328
 30
0.0
 11
18.4582212818
 21
-0.9847680328
 31
0.0
  0
ARC
  5
21D
330
1F
100
AcDbEntity
  8
0
  6
Continuous
 62
     7
370
    15
100
AcDbCircle
 10
18.4582211061
 20
-0.8597681665
 30
0.0
 40
0.1249999999999993
100
AcDbArc
 50
270.0
 51
0.0
  0
LINE
  5
21E
330
1F
100
AcDbEntity
  8
0
  6
Continuous
 62
     7
370
    15
100
AcDbLine
 10
18.5832209045
 20
-0.8597684101
 30
0.0
 11
18.5832209045
 21
0.2652317138
 31
0.0
  0
ARC
  5
21F
330
1F
100
AcDbEntity
  8
0
  6
Continuous
 62
     7
370
    15
100
AcDbCircle
 10
18.4582211061
 20
0.2652318335
 30
0.0
 40
0.1249999999999994
100
AcDbArc
 50
0.0
 51
90.0
  0
LINE
  5
220
330
1F
100
AcDbEntity
  8
0
  6
Continuous
 62
     7
370
    15
100
AcDbLine
 10
18.4582212818
 20
0.3902313365
 30
0.0
 11
15.7082210767
 21
0.3902313365
 31
0.0
  0
ARC
  5
221
330
1F
100
AcDbEntity
  8
0
  6
Continuous
 62
     7
370
    15
100
AcDbCircle
 10
15.7082211061
 20
0.2652318335
 30
0.0
 40
0.125
100
AcDbArc
 50
90.0
 51
180.0
  0
LINE
  5
222
330
1F
100
AcDbEntity
  8
0
  6
Continuous
 62
     7
370
    15
100
AcDbLine
 10
15.5832211607
 20
0.2652317138
 30
0.0
 11
15.5832211607
 21
-0.8597684101
 31
0.0
  0
ARC
  5
223
330
1F
100
AcDbEntity
  8
0
  6
Continuous
 62
     7
370
    15
100
AcDbCircle
 10
13.8332211061
 20
-5.4847681665
 30
0.0
 40
0.1249999999999982
100
AcDbArc
 50
270.0
 51
0.0
  0
LINE
  5
224
330
1F
100
AcDbEntity
  8
0
  6
Continuous
 62
     7
370
    15
100
AcDbLine
 10
13.9582210795
 20
-5.4847685284
 30
0.0
 11
13.9582210795
 21
-2.7347674433
 31
0.0
  0
ARC
  5
225
330
1F
100
AcDbEntity
  8
0
  6
Continuous
 62
     7
370
    15
100
AcDbCircle
 10
13.8332211061
 20
-2.7347681665
 30
0.0
 40
0.1249999999999982
100
AcDbArc
 50
360.0
 51
90.0
  0
LINE
  5
226
330
1F
100
AcDbEntity
  8
0
  6
Continuous
 62
     7
370
    15
100
AcDbLine
 10
13.8332211635
 20
-2.6097689939
 30
0.0
 11
12.708221113
 21
-2.6097689939
 31
0.0
  0
ARC
  5
227
330
1F
100
AcDbEntity
  8
0
  6
Continuous
 62
     7
370
    15
100
AcDbCircle
 10
12.7082211061
 20
-2.7347681665
 30
0.0
 40
0.1249999999999982
100
AcDbArc
 50
90.0
 51
180.0
  0
LINE
  5
228
330
1F
100
AcDbEntity
  8
0
  6
Continuous
 62
     7
370
    15
100
AcDbLine
 10
12.5832211236
 20
-2.7347674433
 30
0.0
 11
12.5832211236
 21
-5.4847685284
 31
0.0
  0
ARC
  5
229
330
1F
100
AcDbEntity
  8
0
  6
Continuous
 62
     7
370
    15
100
AcDbCircle
 10
12.7082211061
 20
-5.4847681665
 30
0.0
 40
0.1249999999999982
100
AcDbArc
 50
180.0
 51
270.0
  0
LINE
  5
22A
330
1F
100
AcDbEntity
  8
0
  6
Continuous
 62
     7
370
    15
100
AcDbLine
 10
12.708221113
 20
-5.6097693243
 30
0.0
 11
13.8332211635
 21
-5.6097693243
 31
0.0
  0
ARC
  5
22B
330
1F
100
AcDbEntity
  8
0
  6
Continuous
 62
     7
370
    15
100
AcDbCircle
 10
18.4582211061
 20
-7.3597681665
 30
0.0
 40
0.1250000000000018
100
AcDbArc
 50
0.0
 51
90.0
  0
LINE
  5
22C
330
1F
100
AcDbEntity
  8
0
  6
Continuous
 62
     7
370
    15
100
AcDbLine
 10
18.4582212818
 20
-7.2347679389
 30
0.0
 11
15.7082210767
 21
-7.2347679389
 31
0.0
  0
ARC
  5
22D
330
1F
100
AcDbEntity
  8
0
  6
Continuous
 62
     7
370
    15
100
AcDbCircle
 10
15.7082211061
 20
-7.3597681665
 30
0.0
 40
0.1250000000000018
100
AcDbArc
 50
90.0
 51
180.0
  0
LINE
  5
22E
330
1F
100
AcDbEntity
  8
0
  6
Continuous
 62
     7
370
    15
100
AcDbLine
 10
15.5832211607
 20
-7.3597687349
 30
0.0
 11
15.5832211607
 21
-8.4847688588
 31
0.0
  0
ARC
  5
22F
330
1F
100
AcDbEntity
  8
0
  6
Continuous
 62
     7
370
    15
100
AcDbCircle
 10
15.7082211061
 20
-8.4847681665
 30
0.0
 40
0.125
100
AcDbArc
 50
180.0
 51
270.0
  0
LINE
  5
230
330
1F
100
AcDbEntity
  8
0
  6
Continuous
 62
     7
370
    15
100
AcDbLine
 10
15.7082210767
 20
-8.6097673081
 30
0.0
 11
18.4582212818
 21
-8.6097673081
 31
0.0
  0
ARC
  5
231
330
1F
100
AcDbEntity
  8
0
  6
Continuous
 62
     7
370
    15
100
AcDbCircle
 10
18.4582211061
 20
-8.4847681665
 30
0.0
 40
0.1249999999999964
100
AcDbArc
 50
270.0
 51
0.0
  0
LINE
  5
232
330
1F
100
AcDbEntity
  8
0
  6
Continuous
 62
     7
370
    15
100
AcDbLine
 10
18.5832209045
 20
-8.4847688588
 30
0.0
 11
18.5832209045
 21
-7.3597687349
 31
0.0
  0
ARC
  5
233
330
1F
100
AcDbEntity
  8
0
  6
Continuous
 62
     7
370
    15
100
AcDbCircle
 10
20.3332211061
 20
-2.7347681665
 30
0.0
 40
0.1250000000000013
100
AcDbArc
 50
90.0
 51
180.0
  0
LINE
  5
234
330
1F
100
AcDbEntity
  8
0
  6
Continuous
 62
     7
370
    15
100
AcDbLine
 10
20.208221279
 20
-2.7347674433
 30
0.0
 11
20.208221279
 21
-5.4847685284
 31
0.0
  0
ARC
  5
235
330
1F
100
AcDbEntity
  8
0
  6
Continuous
 62
     7
370
    15
100
AcDbCircle
 10
20.3332211061
 20
-5.4847681665
 30
0.0
 40
0.1250000000000036
100
AcDbArc
 50
180.0
 51
270.0
  0
LINE
  5
236
330
1F
100
AcDbEntity
  8
0
  6
Continuous
 62
     7
370
    15
100
AcDbLine
 10
20.3332209016
 20
-5.6097693243
 30
0.0
 11
21.4582210255
 21
-5.6097693243
 31
0.0
  0
ARC
  5
237
330
1F
100
AcDbEntity
  8
0
  6
Continuous
 62
     7
370
    15
100
AcDbCircle
 10
21.4582211061
 20
-5.4847681665
 30
0.0
 40
0.1249999999999973
100
AcDbArc
 50
270.0
 51
0.0
  0
LINE
  5
238
330
1F
100
AcDbEntity
  8
0
  6
Continuous
 62
     7
370
    15
100
AcDbLine
 10
21.5832212349
 20
-5.4847685284
 30
0.0
 11
21.5832212349
 21
-2.7347674433
 31
0.0
  0
ARC
  5
239
330
1F
100
AcDbEntity
  8
0
  6
Continuous
 62
     7
370
    15
100
AcDbCircle
 10
21.4582211061
 20
-2.7347681665
 30
0.0
 40
0.1250000000000036
100
AcDbArc
 50
0.0
 51
90.0
  0
LINE
  5
23A
330
1F
100
AcDbEntity
  8
0
  6
Continuous
 62
     7
370
    15
100
AcDbLine
 10
21.4582210255
 20
-2.6097689939
 30
0.0
 11
20.3332209016
 21
-2.6097689939
 31
0.0
  0
LINE
  5
23B
330
1F
100
AcDbEntity
  8
0
  6
Continuous
 62
     7
370
    15
100
AcDbLine
 10
16.208221034
 20
0.7652313778
 30
0.0
 11
15.7082210767
 21
0.7652313778
 31
0.0
  0
LINE
  5
23C
330
1F
100
AcDbEntity
  8
0
  6
Continuous
 62
     7
370
    15
100
AcDbLine
 10
15.7082210767
 20
0.7652313778
 30
0.0
 11
15.7082210767
 21
0.5152321324
 31
0.0
  0
LINE
  5
23D
330
1F
100
AcDbEntity
  8
0
  6
Continuous
 62
     7
370
    15
100
AcDbLine
 10
15.7082210767
 20
0.5152321324
 30
0.0
 11
16.208221034
 21
0.5152321324
 31
0.0
  0
LINE
  5
23E
330
1F
100
AcDbEntity
  8
0
  6
Continuous
 62
     7
370
    15
100
AcDbLine
 10
18.4582212818
 20
0.7652313778
 30
0.0
 11
17.9582210312
 21
0.7652313778
 31
0.0
  0
LINE
  5
23F
330
1F
100
AcDbEntity
  8
0
  6
Continuous
 62
     7
370
    15
100
AcDbLine
 10
17.9582210312
 20
0.7652313778
 30
0.0
 11
17.9582210312
 21
0.5152321324
 31
0.0
  0
LINE
  5
240
330
1F
100
AcDbEntity
  8
0
  6
Continuous
 62
     7
370
    15
100
AcDbLine
 10
17.9582210312
 20
0.5152321324
 30
0.0
 11
18.4582212818
 21
0.5152321324
 31
0.0
  0
LINE
  5
241
330
1F
100
AcDbEntity
  8
0
  6
Continuous
 62
     7
370
    15
100
AcDbLine
 10
18.4582212818
 20
-1.1097688287
 30
0.0
 11
17.9582210312
 21
-1.1097688287
 31
0.0
  0
LINE
  5
242
330
1F
100
AcDbEntity
  8
0
  6
Continuous
 62
     7
370
    15
100
AcDbLine
 10
17.9582210312
 20
-1.1097688287
 30
0.0
 11
17.9582210312
 21
-1.3597680741
 31
0.0
  0
LINE
  5
243
330
1F
100
AcDbEntity
  8
0
  6
Continuous
 62
     7
370
    15
100
AcDbLine
 10
17.9582210312
 20
-1.3597680741
 30
0.0
 11
18.4582212818
 21
-1.3597680741
 31
0.0
  0
LINE
  5
244
330
1F
100
AcDbEntity
  8
0
  6
Continuous
 62
     7
370
    15
100
AcDbLine
 10
18.4582212818
 20
-1.3597680741
 30
0.0
 11
18.4582212818
 21
-1.1097688287
 31
0.0
  0
LINE
  5
245
330
1F
100
AcDbEntity
  8
0
  6
Continuous
 62
     7
370
    15
100
AcDbLine
 10
15.7082210767
 20
-1.3597680741
 30
0.0
 11
16.208221034
 21
-1.3597680741
 31
0.0
  0
LINE
  5
246
330
1F
100
AcDbEntity
  8
0
  6
Continuous
 62
     7
370
    15
100
AcDbLine
 10
16.208221034
 20
-1.3597680741
 30
0.0
 11
16.208221034
 21
-1.1097688287
 31
0.0
  0
LINE
  5
247
330
1F
100
AcDbEntity
  8
0
  6
Continuous
 62
     7
370
    15
100
AcDbLine
 10
16.208221034
 20
-1.1097688287
 30
0.0
 11
15.7082210767
 21
-1.1097688287
 31
0.0
  0
LINE
  5
248
330
1F
100
AcDbEntity
  8
0
  6
Continuous
 62
     7
370
    15
100
AcDbLine
 10
15.7082210767
 20
-1.1097688287
 30
0.0
 11
15.7082210767
 21
-1.3597680741
 31
0.0
  0
LINE
  5
249
330
1F
100
AcDbEntity
  8
0
  6
Continuous
 62
     7
370
    15
100
AcDbLine
 10
12.208221119
 20
-4.9847676911
 30
0.0
 11
12.208221119
 21
-5.4847685284
 31
0.0
  0
LINE
  5
24A
330
1F
100
AcDbEntity
  8
0
  6
Continuous
 62
     7
370
    15
100
AcDbLine
 10
12.208221119
 20
-5.4847685284
 30
0.0
 11
12.4582211343
 21
-5.4847685284
 31
0.0
  0
LINE
  5
24B
330
1F
100
AcDbEntity
  8
0
  6
Continuous
 62
     7
370
    15
100
AcDbLine
 10
12.4582211343
 20
-5.4847685284
 30
0.0
 11
12.4582211343
 21
-4.9847676911
 31
0.0
  0
LINE
  5
24C
330
1F
100
AcDbEntity
  8
0
  6
Continuous
 62
     7
370
    15
100
AcDbLine
 10
12.4582211343
 20
-4.9847676911
 30
0.0
 11
12.208221119
 21
-4.9847676911
 31
0.0
  0
LINE
  5
24D
330
1F
100
AcDbEntity
  8
0
  6
Continuous
 62
     7
370
    15
100
AcDbLine
 10
12.208221119
 20
-2.7347674433
 30
0.0
 11
12.208221119
 21
-3.2347682806
 31
0.0
  0
LINE
  5
24E
330
1F
100
AcDbEntity
  8
0
  6
Continuous
 62
     7
370
    15
100
AcDbLine
 10
12.208221119
 20
-3.2347682806
 30
0.0
 11
12.4582211343
 21
-3.2347682806
 31
0.0
  0
LINE
  5
24F
330
1F
100
AcDbEntity
  8
0
  6
Continuous
 62
     7
370
    15
100
AcDbLine
 10
12.4582211343
 20
-3.2347682806
 30
0.0
 11
12.4582211343
 21
-2.7347674433
 31
0.0
  0
LINE
  5
250
330
1F
100
AcDbEntity
  8
0
  6
Continuous
 62
     7
370
    15
100
AcDbLine
 10
12.4582211343
 20
-2.7347674433
 30
0.0
 11
12.208221119
 21
-2.7347674433
 31
0.0
  0
LINE
  5
251
330
1F
100
AcDbEntity
  8
0
  6
Continuous
 62
     7
370
    15
100
AcDbLine
 10
14.0832211422
 20
-2.7347674433
 30
0.0
 11
14.0832211422
 21
-3.2347682806
 31
0.0
  0
LINE
  5
252
330
1F
100
AcDbEntity
  8
0
  6
Continuous
 62
     7
370
    15
100
AcDbLine
 10
14.0832211422
 20
-3.2347682806
 30
0.0
 11
14.3332211208
 21
-3.2347682806
 31
0.0
  0
LINE
  5
253
330
1F
100
AcDbEntity
  8
0
  6
Continuous
 62
     7
370
    15
100
AcDbLine
 10
14.3332211208
 20
-3.2347682806
 30
0.0
 11
14.3332211208
 21
-2.7347674433
 31
0.0
  0
LINE
  5
254
330
1F
100
AcDbEntity
  8
0
  6
Continuous
 62
     7
370
    15
100
AcDbLine
 10
14.3332211208
 20
-2.7347674433
 30
0.0
 11
14.0832211422
 21
-2.7347674433
 31
0.0
  0
LINE
  5
255
330
1F
100
AcDbEntity
  8
0
  6
Continuous
 62
     7
370
    15
100
AcDbLine
 10
14.3332211208
 20
-5.4847685284
 30
0.0
 11
14.3332211208
 21
-4.9847676911
 31
0.0
  0
LINE
  5
256
330
1F
100
AcDbEntity
  8
0
  6
Continuous
 62
     7
370
    15
100
AcDbLine
 10
14.3332211208
 20
-4.9847676911
 30
0.0
 11
14.0832211422
 21
-4.9847676911
 31
0.0
  0
LINE
  5
257
330
1F
100
AcDbEntity
  8
0
  6
Continuous
 62
     7
370
    15
100
AcDbLine
 10
14.0832211422
 20
-4.9847676911
 30
0.0
 11
14.0832211422
 21
-5.4847685284
 31
0.0
  0
LINE
  5
258
330
1F
100
AcDbEntity
  8
0
  6
Continuous
 62
     7
370
    15
100
AcDbLine
 10
14.0832211422
 20
-5.4847685284
 30
0.0
 11
14.3332211208
 21
-5.4847685284
 31
0.0
  0
LINE
  5
259
330
1F
100
AcDbEntity
  8
0
  6
Continuous
 62
     7
370
    15
100
AcDbLine
 10
17.9582210312
 20
-8.9847673494
 30
0.0
 11
18.4582212818
 21
-8.9847673494
 31
0.0
  0
LINE
  5
25A
330
1F
100
AcDbEntity
  8
0
  6
Continuous
 62
     7
370
    15
100
AcDbLine
 10
18.4582212818
 20
-8.9847673494
 30
0.0
 11
18.4582212818
 21
-8.7347681041
 31
0.0
  0
LINE
  5
25B
330
1F
100
AcDbEntity
  8
0
  6
Continuous
 62
     7
370
    15
100
AcDbLine
 10
18.4582212818
 20
-8.7347681041
 30
0.0
 11
17.9582210312
 21
-8.7347681041
 31
0.0
  0
LINE
  5
25C
330
1F
100
AcDbEntity
  8
0
  6
Continuous
 62
     7
370
    15
100
AcDbLine
 10
17.9582210312
 20
-8.7347681041
 30
0.0
 11
17.9582210312
 21
-8.9847673494
 31
0.0
  0
LINE
  5
25D
330
1F
100
AcDbEntity
  8
0
  6
Continuous
 62
     7
370
    15
100
AcDbLine
 10
15.7082210767
 20
-8.9847673494
 30
0.0
 11
16.208221034
 21
-8.9847673494
 31
0.0
  0
LINE
  5
25E
330
1F
100
AcDbEntity
  8
0
  6
Continuous
 62
     7
370
    15
100
AcDbLine
 10
16.208221034
 20
-8.9847673494
 30
0.0
 11
16.208221034
 21
-8.7347681041
 31
0.0
  0
LINE
  5
25F
330
1F
100
AcDbEntity
  8
0
  6
Continuous
 62
     7
370
    15
100
AcDbLine
 10
16.208221034
 20
-8.7347681041
 30
0.0
 11
15.7082210767
 21
-8.7347681041
 31
0.0
  0
LINE
  5
260
330
1F
100
AcDbEntity
  8
0
  6
Continuous
 62
     7
370
    15
100
AcDbLine
 10
15.7082210767
 20
-8.7347681041
 30
0.0
 11
15.7082210767
 21
-8.9847673494
 31
0.0
  0
LINE
  5
261
330
1F
100
AcDbEntity
  8
0
  6
Continuous
 62
     7
370
    15
100
AcDbLine
 10
15.7082210767
 20
-7.1097671429
 30
0.0
 11
16.208221034
 21
-7.1097671429
 31
0.0
  0
LINE
  5
262
330
1F
100
AcDbEntity
  8
0
  6
Continuous
 62
     7
370
    15
100
AcDbLine
 10
16.208221034
 20
-7.1097671429
 30
0.0
 11
16.208221034
 21
-6.8597678976
 31
0.0
  0
LINE
  5
263
330
1F
100
AcDbEntity
  8
0
  6
Continuous
 62
     7
370
    15
100
AcDbLine
 10
16.208221034
 20
-6.8597678976
 30
0.0
 11
15.7082210767
 21
-6.8597678976
 31
0.0
  0
LINE
  5
264
330
1F
100
AcDbEntity
  8
0
  6
Continuous
 62
     7
370
    15
100
AcDbLine
 10
15.7082210767
 20
-6.8597678976
 30
0.0
 11
15.7082210767
 21
-7.1097671429
 31
0.0
  0
LINE
  5
265
330
1F
100
AcDbEntity
  8
0
  6
Continuous
 62
     7
370
    15
100
AcDbLine
 10
18.4582212818
 20
-6.8597678976
 30
0.0
 11
17.9582210312
 21
-6.8597678976
 31
0.0
  0
LINE
  5
266
330
1F
100
AcDbEntity
  8
0
  6
Continuous
 62
     7
370
    15
100
AcDbLine
 10
17.9582210312
 20
-6.8597678976
 30
0.0
 11
17.9582210312
 21
-7.1097671429
 31
0.0
  0
LINE
  5
267
330
1F
100
AcDbEntity
  8
0
  6
Continuous
 62
     7
370
    15
100
AcDbLine
 10
17.9582210312
 20
-7.1097671429
 30
0.0
 11
18.4582212818
 21
-7.1097671429
 31
0.0
  0
LINE
  5
268
330
1F
100
AcDbEntity
  8
0
  6
Continuous
 62
     7
370
    15
100
AcDbLine
 10
18.4582212818
 20
-7.1097671429
 30
0.0
 11
18.4582212818
 21
-6.8597678976
 31
0.0
  0
LINE
  5
269
330
1F
100
AcDbEntity
  8
0
  6
Continuous
 62
     7
370
    15
100
AcDbLine
 10
21.9582212762
 20
-3.2347682806
 30
0.0
 11
21.9582212762
 21
-2.7347674433
 31
0.0
  0
LINE
  5
26A
330
1F
100
AcDbEntity
  8
0
  6
Continuous
 62
     7
370
    15
100
AcDbLine
 10
21.9582212762
 20
-2.7347674433
 30
0.0
 11
21.7082208575
 21
-2.7347674433
 31
0.0
  0
LINE
  5
26B
330
1F
100
AcDbEntity
  8
0
  6
Continuous
 62
     7
370
    15
100
AcDbLine
 10
21.7082208575
 20
-2.7347674433
 30
0.0
 11
21.7082208575
 21
-3.2347682806
 31
0.0
  0
LINE
  5
26C
330
1F
100
AcDbEntity
  8
0
  6
Continuous
 62
     7
370
    15
100
AcDbLine
 10
21.7082208575
 20
-3.2347682806
 30
0.0
 11
21.9582212762
 21
-3.2347682806
 31
0.0
  0
LINE
  5
26D
330
1F
100
AcDbEntity
  8
0
  6
Continuous
 62
     7
370
    15
100
AcDbLine
 10
21.9582212762
 20
-5.4847685284
 30
0.0
 11
21.9582212762
 21
-4.9847676911
 31
0.0
  0
LINE
  5
26E
330
1F
100
AcDbEntity
  8
0
  6
Continuous
 62
     7
370
    15
100
AcDbLine
 10
21.9582212762
 20
-4.9847676911
 30
0.0
 11
21.7082208575
 21
-4.9847676911
 31
0.0
  0
LINE
  5
26F
330
1F
100
AcDbEntity
  8
0
  6
Continuous
 62
     7
370
    15
100
AcDbLine
 10
21.7082208575
 20
-4.9847676911
 30
0.0
 11
21.7082208575
 21
-5.4847685284
 31
0.0
  0
LINE
  5
270
330
1F
100
AcDbEntity
  8
0
  6
Continuous
 62
     7
370
    15
100
AcDbLine
 10
21.7082208575
 20
-5.4847685284
 30
0.0
 11
21.9582212762
 21
-5.4847685284
 31
0.0
  0
LINE
  5
271
330
1F
100
AcDbEntity
  8
0
  6
Continuous
 62
     7
370
    15
100
AcDbLine
 10
20.0832210697
 20
-5.4847685284
 30
0.0
 11
20.0832210697
 21
-4.9847676911
 31
0.0
  0
LINE
  5
272
330
1F
100
AcDbEntity
  8
0
  6
Continuous
 62
     7
370
    15
100
AcDbLine
 10
20.0832210697
 20
-4.9847676911
 30
0.0
 11
19.8332212377
 21
-4.9847676911
 31
0.0
  0
LINE
  5
273
330
1F
100
AcDbEntity
  8
0
  6
Continuous
 62
     7
370
    15
100
AcDbLine
 10
19.8332212377
 20
-4.9847676911
 30
0.0
 11
19.8332212377
 21
-5.4847685284
 31
0.0
  0
LINE
  5
274
330
1F
100
AcDbEntity
  8
0
  6
Continuous
 62
     7
370
    15
100
AcDbLine
 10
19.8332212377
 20
-5.4847685284
 30
0.0
 11
20.0832210697
 21
-5.4847685284
 31
0.0
  0
LINE
  5
275
330
1F
100
AcDbEntity
  8
0
  6
Continuous
 62
     7
370
    15
100
AcDbLine
 10
19.8332212377
 20
-2.7347674433
 30
0.0
 11
19.8332212377
 21
-3.2347682806
 31
0.0
  0
LINE
  5
276
330
1F
100
AcDbEntity
  8
0
  6
Continuous
 62
     7
370
    15
100
AcDbLine
 10
19.8332212377
 20
-3.2347682806
 30
0.0
 11
20.0832210697
 21
-3.2347682806
 31
0.0
  0
LINE
  5
277
330
1F
100
AcDbEntity
  8
0
  6
Continuous
 62
     7
370
    15
100
AcDbLine
 10
20.0832210697
 20
-3.2347682806
 30
0.0
 11
20.0832210697
 21
-2.7347674433
 31
0.0
  0
LINE
  5
278
330
1F
100
AcDbEntity
  8
0
  6
Continuous
 62
     7
370
    15
100
AcDbLine
 10
20.0832210697
 20
-2.7347674433
 30
0.0
 11
19.8332212377
 21
-2.7347674433
 31
0.0
  0
ARC
  5
279
330
1F
100
AcDbEntity
  8
0
  6
Continuous
 62
     7
370
    15
100
AcDbCircle
 10
13.9064444108
 20
-1.9137003546
 30
0.0
 40
0.1250000000000026
100
AcDbArc
 50
270.0
 51
315.0
  0
LINE
  5
27A
330
1F
100
AcDbEntity
  8
0
  6
Continuous
 62
     7
370
    15
100
AcDbLine
 10
13.9948327632
 20
-2.0020879073
 30
0.0
 11
14.9755415407
 21
-1.0213803031
 31
0.0
  0
ARC
  5
27B
330
1F
100
AcDbEntity
  8
0
  6
Continuous
 62
     7
370
    15
100
AcDbCircle
 10
14.8871532943
 20
-0.9329914712
 30
0.0
 40
0.125
100
AcDbArc
 50
315.0
 51
0.0
  0
LINE
  5
27C
330
1F
100
AcDbEntity
  8
0
  6
Continuous
 62
     7
370
    15
100
AcDbLine
 10
15.0121532244
 20
-0.9329917775
 30
0.0
 11
15.0121532244
 21
0.0884546626
 31
0.0
  0
ARC
  5
27D
330
1F
100
AcDbEntity
  8
0
  6
Continuous
 62
     7
370
    15
100
AcDbCircle
 10
14.8871532943
 20
0.0884551382
 30
0.0
 40
0.125000000000001
100
AcDbArc
 50
0.0
 51
135.0
  0
LINE
  5
27E
330
1F
100
AcDbEntity
  8
0
  6
Continuous
 62
     7
370
    15
100
AcDbLine
 10
14.7987650762
 20
0.1768431882
 30
0.0
 11
12.7966094186
 21
-1.8253108561
 31
0.0
  0
ARC
  5
27F
330
1F
100
AcDbEntity
  8
0
  6
Continuous
 62
     7
370
    15
100
AcDbCircle
 10
12.8849978014
 20
-1.9137003546
 30
0.0
 40
0.1250000000000018
100
AcDbArc
 50
135.0
 51
270.0
  0
LINE
  5
280
330
1F
100
AcDbEntity
  8
0
  6
Continuous
 62
     7
370
    15
100
AcDbLine
 10
12.8849977975
 20
-2.0387001776
 30
0.0
 11
13.9064443843
 21
-2.0387001776
 31
0.0
  0
ARC
  5
281
330
1F
100
AcDbEntity
  8
0
  6
Continuous
 62
     7
370
    15
100
AcDbCircle
 10
14.8871532943
 20
-7.2865448618
 30
0.0
 40
0.125
100
AcDbArc
 50
0.0
 51
45.0
  0
LINE
  5
282
330
1F
100
AcDbEntity
  8
0
  6
Continuous
 62
     7
370
    15
100
AcDbLine
 10
14.9755415407
 20
-7.1981556685
 30
0.0
 11
13.9948327632
 21
-6.2174480644
 31
0.0
  0
ARC
  5
283
330
1F
100
AcDbEntity
  8
0
  6
Continuous
 62
     7
370
    15
100
AcDbCircle
 10
13.9064444108
 20
-6.3058359784
 30
0.0
 40
0.1250000000000009
100
AcDbArc
 50
45.0
 51
90.0
  0
LINE
  5
284
330
1F
100
AcDbEntity
  8
0
  6
Continuous
 62
     7
370
    15
100
AcDbLine
 10
13.9064443843
 20
-6.180835794
 30
0.0
 11
12.8849977975
 21
-6.180835794
 31
0.0
  0
ARC
  5
285
330
1F
100
AcDbEntity
  8
0
  6
Continuous
 62
     7
370
    15
100
AcDbCircle
 10
12.8849978014
 20
-6.3058359784
 30
0.0
 40
0.1250000000000009
100
AcDbArc
 50
90.0
 51
225.0
  0
LINE
  5
286
330
1F
100
AcDbEntity
  8
0
  6
Continuous
 62
     7
370
    15
100
AcDbLine
 10
12.7966094186
 20
-6.3942251156
 30
0.0
 11
14.7987650762
 21
-8.3963803332
 31
0.0
  0
ARC
  5
287
330
1F
100
AcDbEntity
  8
0
  6
Continuous
 62
     7
370
    15
100
AcDbCircle
 10
14.8871532943
 20
-8.3079914712
 30
0.0
 40
0.125
100
AcDbArc
 50
225.0
 51
0.0
  0
LINE
  5
288
330
1F
100
AcDbEntity
  8
0
  6
Continuous
 62
     7
370
    15
100
AcDbLine
 10
15.0121532244
 20
-8.3079918076
 30
0.0
 11
15.0121532244
 21
-7.2865441941
 31
0.0
  0
ARC
  5
289
330
1F
100
AcDbEntity
  8
0
  6
Continuous
 62
     7
370
    15
100
AcDbCircle
 10
20.2599978014
 20
-6.3058359784
 30
0.0
 40
0.1250000000000029
100
AcDbArc
 50
90.0
 51
135.0
  0
LINE
  5
28A
330
1F
100
AcDbEntity
  8
0
  6
Continuous
 62
     7
370
    15
100
AcDbLine
 10
20.1716095953
 20
-6.2174480644
 30
0.0
 11
19.1909008178
 21
-7.1981556685
 31
0.0
  0
ARC
  5
28B
330
1F
100
AcDbEntity
  8
0
  6
Continuous
 62
     7
370
    15
100
AcDbCircle
 10
19.279288918
 20
-7.2865448618
 30
0.0
 40
0.1250000000000036
100
AcDbArc
 50
135.0
 51
180.0
  0
LINE
  5
28C
330
1F
100
AcDbEntity
  8
0
  6
Continuous
 62
     7
370
    15
100
AcDbLine
 10
19.1542891341
 20
-7.2865441941
 30
0.0
 11
19.1542891341
 21
-8.3079918076
 31
0.0
  0
ARC
  5
28D
330
1F
100
AcDbEntity
  8
0
  6
Continuous
 62
     7
370
    15
100
AcDbCircle
 10
19.279288918
 20
-8.3079914712
 30
0.0
 40
0.1250000000000036
100
AcDbArc
 50
180.0
 51
315.0
  0
LINE
  5
28E
330
1F
100
AcDbEntity
  8
0
  6
Continuous
 62
     7
370
    15
100
AcDbLine
 10
19.3676772824
 20
-8.3963803332
 30
0.0
 11
21.3698325
 21
-6.3942251156
 31
0.0
  0
ARC
  5
28F
330
1F
100
AcDbEntity
  8
0
  6
Continuous
 62
     7
370
    15
100
AcDbCircle
 10
21.2814444108
 20
-6.3058359784
 30
0.0
 40
0.1250000000000018
100
AcDbArc
 50
315.0
 51
90.0
  0
LINE
  5
290
330
1F
100
AcDbEntity
  8
0
  6
Continuous
 62
     7
370
    15
100
AcDbLine
 10
21.281444561
 20
-6.180835794
 30
0.0
 11
20.2599975342
 21
-6.180835794
 31
0.0
  0
ARC
  5
291
330
1F
100
AcDbEntity
  8
0
  6
Continuous
 62
     7
370
    15
100
AcDbCircle
 10
19.279288918
 20
-0.9329914712
 30
0.0
 40
0.1250000000000036
100
AcDbArc
 50
180.0
 51
225.0
  0
LINE
  5
292
330
1F
100
AcDbEntity
  8
0
  6
Continuous
 62
     7
370
    15
100
AcDbLine
 10
19.1909008178
 20
-1.0213803031
 30
0.0
 11
20.1716095953
 21
-2.0020879073
 31
0.0
  0
ARC
  5
293
330
1F
100
AcDbEntity
  8
0
  6
Continuous
 62
     7
370
    15
100
AcDbCircle
 10
20.2599978014
 20
-1.9137003546
 30
0.0
 40
0.1250000000000024
100
AcDbArc
 50
225.0
 51
270.0
  0
LINE
  5
294
330
1F
100
AcDbEntity
  8
0
  6
Continuous
 62
     7
370
    15
100
AcDbLine
 10
20.2599975342
 20
-2.0387001776
 30
0.0
 11
21.281444561
 21
-2.0387001776
 31
0.0
  0
ARC
  5
295
330
1F
100
AcDbEntity
  8
0
  6
Continuous
 62
     7
370
    15
100
AcDbCircle
 10
21.2814444108
 20
-1.9137003546
 30
0.0
 40
0.1250000000000051
100
AcDbArc
 50
270.0
 51
45.0
  0
LINE
  5
296
330
1F
100
AcDbEntity
  8
0
  6
Continuous
 62
     7
370
    15
100
AcDbLine
 10
21.3698325
 20
-1.8253108561
 30
0.0
 11
19.3676772824
 21
0.1768431882
 31
0.0
  0
ARC
  5
297
330
1F
100
AcDbEntity
  8
0
  6
Continuous
 62
     7
370
    15
100
AcDbCircle
 10
19.279288918
 20
0.0884551382
 30
0.0
 40
0.1250000000000001
100
AcDbArc
 50
45.0
 51
180.0
  0
LINE
  5
298
330
1F
100
AcDbEntity
  8
0
  6
Continuous
 62
     7
370
    15
100
AcDbLine
 10
19.1542891341
 20
0.0884546626
 30
0.0
 11
19.1542891341
 21
-0.9329917775
 31
0.0
  0
ARC
  5
299
330
1F
100
AcDbEntity
  8
0
  6
Continuous
 62
     7
370
    15
100
AcDbCircle
 10
18.2322696256
 20
-2.0768361706
 30
0.0
 40
0.2500000000000018
100
AcDbArc
 50
315.0
 51
45.0
  0
LINE
  5
29A
330
1F
100
AcDbEntity
  8
0
  6
Continuous
 62
     7
370
    15
100
AcDbLine
 10
18.4090462765
 20
-1.9000583659
 30
0.0
 11
18.1919785975
 21
-1.6829918601
 31
0.0
  0
ARC
  5
29B
330
1F
100
AcDbEntity
  8
0
  6
Continuous
 62
     7
370
    15
100
AcDbCircle
 10
18.0152016215
 20
-1.8597681665
 30
0.0
 40
0.2499999999999987
100
AcDbArc
 50
45.0
 51
90.0
  0
LINE
  5
29C
330
1F
100
AcDbEntity
  8
0
  6
Continuous
 62
     7
370
    15
100
AcDbLine
 10
18.0152015463
 20
-1.6097673194
 30
0.0
 11
16.1512405189
 21
-1.6097673194
 31
0.0
  0
ARC
  5
29D
330
1F
100
AcDbEntity
  8
0
  6
Continuous
 62
     7
370
    15
100
AcDbCircle
 10
16.1512405908
 20
-1.8597681665
 30
0.0
 40
0.2499999999999987
100
AcDbArc
 50
90.0
 51
135.0
  0
LINE
  5
29E
330
1F
100
AcDbEntity
  8
0
  6
Continuous
 62
     7
370
    15
100
AcDbLine
 10
15.974463761
 20
-1.6829918601
 30
0.0
 11
15.7573957886
 21
-1.9000583659
 31
0.0
  0
ARC
  5
29F
330
1F
100
AcDbEntity
  8
0
  6
Continuous
 62
     7
370
    15
100
AcDbCircle
 10
15.9341725867
 20
-2.0768361706
 30
0.0
 40
0.2500000000000009
100
AcDbArc
 50
135.0
 51
225.0
  0
LINE
  5
2A0
330
1F
100
AcDbEntity
  8
0
  6
Continuous
 62
     7
370
    15
100
AcDbLine
 10
16.4645025267
 20
-2.9607206731
 30
0.0
 11
15.7573957886
 21
-2.2536124683
 31
0.0
  0
ARC
  5
2A1
330
1F
100
AcDbEntity
  8
0
  6
Continuous
 62
     7
370
    15
100
AcDbCircle
 10
16.2877259773
 20
-3.1374963424
 30
0.0
 40
0.2500000000000023
100
AcDbArc
 50
315.0
 51
45.0
  0
LINE
  5
2A2
330
1F
100
AcDbEntity
  8
0
  6
Continuous
 62
     7
370
    15
100
AcDbLine
 10
16.2877260622
 20
-3.49104948
 30
0.0
 11
16.4645025267
 21
-3.3142724288
 31
0.0
  0
ARC
  5
2A3
330
1F
100
AcDbEntity
  8
0
  6
Continuous
 62
     7
370
    15
100
AcDbCircle
 10
16.110949282
 20
-3.3142730377
 30
0.0
 40
0.250000000000002
100
AcDbArc
 50
225.0
 51
315.0
  0
LINE
  5
2A4
330
1F
100
AcDbEntity
  8
0
  6
Continuous
 62
     7
370
    15
100
AcDbLine
 10
15.2270658084
 20
-2.7839436219
 30
0.0
 11
15.9341725465
 21
-3.49104948
 31
0.0
  0
ARC
  5
2A5
330
1F
100
AcDbEntity
  8
0
  6
Continuous
 62
     7
370
    15
100
AcDbCircle
 10
15.0502891102
 20
-2.9607196471
 30
0.0
 40
0.2500000000000033
100
AcDbArc
 50
45.0
 51
135.0
  0
LINE
  5
2A6
330
1F
100
AcDbEntity
  8
0
  6
Continuous
 62
     7
370
    15
100
AcDbLine
 10
14.8735122927
 20
-2.7839436219
 30
0.0
 11
14.6564443203
 21
-3.0010101276
 31
0.0
  0
ARC
  5
2A7
330
1F
100
AcDbEntity
  8
0
  6
Continuous
 62
     7
370
    15
100
AcDbCircle
 10
14.8332211061
 20
-3.1777876512
 30
0.0
 40
0.2500000000000011
100
AcDbArc
 50
135.0
 51
180.0
  0
LINE
  5
2A8
330
1F
100
AcDbEntity
  8
0
  6
Continuous
 62
     7
370
    15
100
AcDbLine
 10
14.5832212461
 20
-3.1777871788
 30
0.0
 11
14.5832212461
 21
-5.0417487928
 31
0.0
  0
ARC
  5
2A9
330
1F
100
AcDbEntity
  8
0
  6
Continuous
 62
     7
370
    15
100
AcDbCircle
 10
14.8332211061
 20
-5.0417486818
 30
0.0
 40
0.2500000000000008
100
AcDbArc
 50
180.0
 51
225.0
  0
LINE
  5
2AA
330
1F
100
AcDbEntity
  8
0
  6
Continuous
 62
     7
370
    15
100
AcDbLine
 10
14.6564443203
 20
-5.218525844
 30
0.0
 11
14.8735122927
 21
-5.4355923498
 31
0.0
  0
ARC
  5
2AB
330
1F
100
AcDbEntity
  8
0
  6
Continuous
 62
     7
370
    15
100
AcDbCircle
 10
15.0502891102
 20
-5.2588166859
 30
0.0
 40
0.2499999999999995
100
AcDbArc
 50
225.0
 51
315.0
  0
LINE
  5
2AC
330
1F
100
AcDbEntity
  8
0
  6
Continuous
 62
     7
370
    15
100
AcDbLine
 10
15.9341725465
 20
-4.7284864917
 30
0.0
 11
15.2270658084
 21
-5.4355923498
 31
0.0
  0
ARC
  5
2AD
330
1F
100
AcDbEntity
  8
0
  6
Continuous
 62
     7
370
    15
100
AcDbCircle
 10
16.110949282
 20
-4.9052632953
 30
0.0
 40
0.2500000000000033
100
AcDbArc
 50
45.0
 51
135.0
  0
LINE
  5
2AE
330
1F
100
AcDbEntity
  8
0
  6
Continuous
 62
     7
370
    15
100
AcDbLine
 10
16.4645025267
 20
-4.9052635429
 30
0.0
 11
16.2877260622
 21
-4.7284864917
 31
0.0
  0
ARC
  5
2AF
330
1F
100
AcDbEntity
  8
0
  6
Continuous
 62
     7
370
    15
100
AcDbCircle
 10
16.2877259773
 20
-5.0820399906
 30
0.0
 40
0.2500000000000001
100
AcDbArc
 50
315.0
 51
45.0
  0
LINE
  5
2B0
330
1F
100
AcDbEntity
  8
0
  6
Continuous
 62
     7
370
    15
100
AcDbLine
 10
15.7573957886
 20
-5.9659235034
 30
0.0
 11
16.4645025267
 21
-5.2588176452
 31
0.0
  0
ARC
  5
2B1
330
1F
100
AcDbEntity
  8
0
  6
Continuous
 62
     7
370
    15
100
AcDbCircle
 10
15.9341725867
 20
-6.1427001624
 30
0.0
 40
0.250000000000002
100
AcDbArc
 50
135.0
 51
225.0
  0
LINE
  5
2B2
330
1F
100
AcDbEntity
  8
0
  6
Continuous
 62
     7
370
    15
100
AcDbLine
 10
15.7573957886
 20
-6.3194776057
 30
0.0
 11
15.974463761
 21
-6.5365441115
 31
0.0
  0
ARC
  5
2B3
330
1F
100
AcDbEntity
  8
0
  6
Continuous
 62
     7
370
    15
100
AcDbCircle
 10
16.1512405908
 20
-6.3597681665
 30
0.0
 40
0.2499999999999989
100
AcDbArc
 50
225.0
 51
270.0
  0
LINE
  5
2B4
330
1F
100
AcDbEntity
  8
0
  6
Continuous
 62
     7
370
    15
100
AcDbLine
 10
16.1512405189
 20
-6.6097686523
 30
0.0
 11
18.0152015463
 21
-6.6097686523
 31
0.0
  0
ARC
  5
2B5
330
1F
100
AcDbEntity
  8
0
  6
Continuous
 62
     7
370
    15
100
AcDbCircle
 10
18.0152016215
 20
-6.3597681665
 30
0.0
 40
0.2499999999999989
100
AcDbArc
 50
270.0
 51
315.0
  0
LINE
  5
2B6
330
1F
100
AcDbEntity
  8
0
  6
Continuous
 62
     7
370
    15
100
AcDbLine
 10
18.1919785975
 20
-6.5365441115
 30
0.0
 11
18.4090462765
 21
-6.3194776057
 31
0.0
  0
ARC
  5
2B7
330
1F
100
AcDbEntity
  8
0
  6
Continuous
 62
     7
370
    15
100
AcDbCircle
 10
18.2322696256
 20
-6.1427001624
 30
0.0
 40
0.250000000000002
100
AcDbArc
 50
315.0
 51
45.0
  0
LINE
  5
2B8
330
1F
100
AcDbEntity
  8
0
  6
Continuous
 62
     7
370
    15
100
AcDbLine
 10
17.7019398318
 20
-5.2588176452
 30
0.0
 11
18.4090462765
 21
-5.9659235034
 31
0.0
  0
ARC
  5
2B9
330
1F
100
AcDbEntity
  8
0
  6
Continuous
 62
     7
370
    15
100
AcDbCircle
 10
17.878716235
 20
-5.0820399906
 30
0.0
 40
0.250000000000002
100
AcDbArc
 50
135.0
 51
225.0
  0
LINE
  5
2BA
330
1F
100
AcDbEntity
  8
0
  6
Continuous
 62
     7
370
    15
100
AcDbLine
 10
17.8787162963
 20
-4.7284864917
 30
0.0
 11
17.7019398318
 21
-4.9052635429
 31
0.0
  0
ARC
  5
2BB
330
1F
100
AcDbEntity
  8
0
  6
Continuous
 62
     7
370
    15
100
AcDbCircle
 10
18.0554929303
 20
-4.9052632953
 30
0.0
 40
0.250000000000002
100
AcDbArc
 50
45.0
 51
135.0
  0
LINE
  5
2BC
330
1F
100
AcDbEntity
  8
0
  6
Continuous
 62
     7
370
    15
100
AcDbLine
 10
18.9393762568
 20
-5.4355923498
 30
0.0
 11
18.232269812
 21
-4.7284864917
 31
0.0
  0
ARC
  5
2BD
330
1F
100
AcDbEntity
  8
0
  6
Continuous
 62
     7
370
    15
100
AcDbCircle
 10
19.1161531021
 20
-5.2588166859
 30
0.0
 40
0.250000000000002
100
AcDbArc
 50
225.0
 51
315.0
  0
LINE
  5
2BE
330
1F
100
AcDbEntity
  8
0
  6
Continuous
 62
     7
370
    15
100
AcDbLine
 10
19.2929297725
 20
-5.4355923498
 30
0.0
 11
19.5099980383
 21
-5.218525844
 31
0.0
  0
ARC
  5
2BF
330
1F
100
AcDbEntity
  8
0
  6
Continuous
 62
     7
370
    15
100
AcDbCircle
 10
19.3332211061
 20
-5.0417486818
 30
0.0
 40
0.2500000000000036
100
AcDbArc
 50
315.0
 51
0.0
  0
LINE
  5
2C0
330
1F
100
AcDbEntity
  8
0
  6
Continuous
 62
     7
370
    15
100
AcDbLine
 10
19.583220819
 20
-5.0417487928
 30
0.0
 11
19.583220819
 21
-3.1777871788
 31
0.0
  0
ARC
  5
2C1
330
1F
100
AcDbEntity
  8
0
  6
Continuous
 62
     7
370
    15
100
AcDbCircle
 10
19.3332211061
 20
-3.1777876512
 30
0.0
 40
0.2500000000000036
100
AcDbArc
 50
0.0
 51
45.0
  0
LINE
  5
2C2
330
1F
100
AcDbEntity
  8
0
  6
Continuous
 62
     7
370
    15
100
AcDbLine
 10
19.5099980383
 20
-3.0010101276
 30
0.0
 11
19.2929297725
 21
-2.7839436219
 31
0.0
  0
ARC
  5
2C3
330
1F
100
AcDbEntity
  8
0
  6
Continuous
 62
     7
370
    15
100
AcDbCircle
 10
19.1161531021
 20
-2.9607196471
 30
0.0
 40
0.250000000000002
100
AcDbArc
 50
45.0
 51
135.0
  0
LINE
  5
2C4
330
1F
100
AcDbEntity
  8
0
  6
Continuous
 62
     7
370
    15
100
AcDbLine
 10
18.232269812
 20
-3.49104948
 30
0.0
 11
18.9393762568
 21
-2.7839436219
 31
0.0
  0
ARC
  5
2C5
330
1F
100
AcDbEntity
  8
0
  6
Continuous
 62
     7
370
    15
100
AcDbCircle
 10
18.0554929303
 20
-3.3142730377
 30
0.0
 40
0.250000000000002
100
AcDbArc
 50
225.0
 51
315.0
  0
LINE
  5
2C6
330
1F
100
AcDbEntity
  8
0
  6
Continuous
 62
     7
370
    15
100
AcDbLine
 10
17.7019398318
 20
-3.3142724288
 30
0.0
 11
17.8787162963
 21
-3.49104948
 31
0.0
  0
ARC
  5
2C7
330
1F
100
AcDbEntity
  8
0
  6
Continuous
 62
     7
370
    15
100
AcDbCircle
 10
17.878716235
 20
-3.1374963424
 30
0.0
 40
0.2500000000000052
100
AcDbArc
 50
135.0
 51
225.0
  0
LINE
  5
2C8
330
1F
100
AcDbEntity
  8
0
  6
Continuous
 62
     7
370
    15
100
AcDbLine
 10
18.4090462765
 20
-2.2536124683
 30
0.0
 11
17.7019398318
 21
-2.9607206731
 31
0.0
  0
CIRCLE
  5
2C9
330
1F
100
AcDbEntity
  8
0
  6
Continuous
 62
     7
370
    15
100
AcDbCircle
 10
15.1386774579
 20
-2.1652245182
 30
0.0
 40
0.0884999999999989
  0
CIRCLE
  5
2CA
330
1F
100
AcDbEntity
  8
0
  6
Continuous
 62
     7
370
    15
100
AcDbCircle
 10
15.4922308485
 20
-2.5187779088
 30
0.0
 40
0.0884999999999985
  0
CIRCLE
  5
2CB
330
1F
100
AcDbEntity
  8
0
  6
Continuous
 62
     7
370
    15
100
AcDbCircle
 10
15.8457842391
 20
-2.8723312994
 30
0.0
 40
0.0885000000000034
  0
CIRCLE
  5
2CC
330
1F
100
AcDbEntity
  8
0
  6
Continuous
 62
     7
370
    15
100
AcDbCircle
 10
16.1993376297
 20
-3.22588469
 30
0.0
 40
0.0884999999999989
  0
CIRCLE
  5
2CD
330
1F
100
AcDbEntity
  8
0
  6
Continuous
 62
     7
370
    15
100
AcDbCircle
 10
15.1386774579
 20
-6.0543118148
 30
0.0
 40
0.088499999999998
  0
CIRCLE
  5
2CE
330
1F
100
AcDbEntity
  8
0
  6
Continuous
 62
     7
370
    15
100
AcDbCircle
 10
15.4922308485
 20
-5.7007584242
 30
0.0
 40
0.0884999999999989
  0
CIRCLE
  5
2CF
330
1F
100
AcDbEntity
  8
0
  6
Continuous
 62
     7
370
    15
100
AcDbCircle
 10
15.8457842391
 20
-5.3472050336
 30
0.0
 40
0.0884999999999989
  0
CIRCLE
  5
2D0
330
1F
100
AcDbEntity
  8
0
  6
Continuous
 62
     7
370
    15
100
AcDbCircle
 10
16.1993376297
 20
-4.993651643
 30
0.0
 40
0.0884999999999989
  0
CIRCLE
  5
2D1
330
1F
100
AcDbEntity
  8
0
  6
Continuous
 62
     7
370
    15
100
AcDbCircle
 10
19.0277647544
 20
-6.0543118148
 30
0.0
 40
0.0884999999999989
  0
CIRCLE
  5
2D2
330
1F
100
AcDbEntity
  8
0
  6
Continuous
 62
     7
370
    15
100
AcDbCircle
 10
18.6742113638
 20
-5.7007584242
 30
0.0
 40
0.0884999999999989
  0
CIRCLE
  5
2D3
330
1F
100
AcDbEntity
  8
0
  6
Continuous
 62
     7
370
    15
100
AcDbCircle
 10
18.3206579732
 20
-5.3472050336
 30
0.0
 40
0.0884999999999989
  0
CIRCLE
  5
2D4
330
1F
100
AcDbEntity
  8
0
  6
Continuous
 62
     7
370
    15
100
AcDbCircle
 10
17.9671045826
 20
-4.993651643
 30
0.0
 40
0.0884999999999989
  0
CIRCLE
  5
2D5
330
1F
100
AcDbEntity
  8
0
  6
Continuous
 62
     7
370
    15
100
AcDbCircle
 10
19.0277647544
 20
-2.1652245182
 30
0.0
 40
0.0884999999999989
  0
CIRCLE
  5
2D6
330
1F
100
AcDbEntity
  8
0
  6
Continuous
 62
     7
370
    15
100
AcDbCircle
 10
18.6742113638
 20
-2.5187779088
 30
0.0
 40
0.0884999999999989
  0
CIRCLE
  5
2D7
330
1F
100
AcDbEntity
  8
0
  6
Continuous
 62
     7
370
    15
100
AcDbCircle
 10
18.3206579732
 20
-2.8723312994
 30
0.0
 40
0.0885000000000029
  0
CIRCLE
  5
2D8
330
1F
100
AcDbEntity
  8
0
  6
Continuous
 62
     7
370
    15
100
AcDbCircle
 10
17.9671045826
 20
-3.22588469
 30
0.0
 40
0.0884999999999989
  0
CIRCLE
  5
2D9
330
1F
100
AcDbEntity
  8
0
  6
Continuous
 62
     7
370
    15
100
AcDbCircle
 10
18.8332211061
 20
-7.8597681665
 30
0.0
 40
0.0884999999999989
  0
CIRCLE
  5
2DA
330
1F
100
AcDbEntity
  8
0
  6
Continuous
 62
     7
370
    15
100
AcDbCircle
 10
18.8332211061
 20
-8.8597681665
 30
0.0
 40
0.088499999999998
  0
CIRCLE
  5
2DB
330
1F
100
AcDbEntity
  8
0
  6
Continuous
 62
     7
370
    15
100
AcDbCircle
 10
15.3332211061
 20
-8.8597681665
 30
0.0
 40
0.088499999999998
  0
CIRCLE
  5
2DC
330
1F
100
AcDbEntity
  8
0
  6
Continuous
 62
     7
370
    15
100
AcDbCircle
 10
15.3332211061
 20
-7.8597681665
 30
0.0
 40
0.0885000000000034
  0
CIRCLE
  5
2DD
330
1F
100
AcDbEntity
  8
0
  6
Continuous
 62
     7
370
    15
100
AcDbCircle
 10
20.8332211061
 20
-2.3597681665
 30
0.0
 40
0.0884999999999989
  0
CIRCLE
  5
2DE
330
1F
100
AcDbEntity
  8
0
  6
Continuous
 62
     7
370
    15
100
AcDbCircle
 10
21.8332211061
 20
-2.3597681665
 30
0.0
 40
0.0884999999999989
  0
CIRCLE
  5
2DF
330
1F
100
AcDbEntity
  8
0
  6
Continuous
 62
     7
370
    15
100
AcDbCircle
 10
21.8332211061
 20
-5.8597681665
 30
0.0
 40
0.0884999999999989
  0
CIRCLE
  5
2E0
330
1F
100
AcDbEntity
  8
0
  6
Continuous
 62
     7
370
    15
100
AcDbCircle
 10
20.8332211061
 20
-5.8597681665
 30
0.0
 40
0.0884999999999989
  0
CIRCLE
  5
2E1
330
1F
100
AcDbEntity
  8
0
  6
Continuous
 62
     7
370
    15
100
AcDbCircle
 10
15.3332211061
 20
-0.3597681665
 30
0.0
 40
0.0884999999999988
  0
CIRCLE
  5
2E2
330
1F
100
AcDbEntity
  8
0
  6
Continuous
 62
     7
370
    15
100
AcDbCircle
 10
18.8332211061
 20
-0.3597681665
 30
0.0
 40
0.088500000000001
  0
CIRCLE
  5
2E3
330
1F
100
AcDbEntity
  8
0
  6
Continuous
 62
     7
370
    15
100
AcDbCircle
 10
13.3332211061
 20
-5.8597681665
 30
0.0
 40
0.0884999999999989
  0
CIRCLE
  5
2E4
330
1F
100
AcDbEntity
  8
0
  6
Continuous
 62
     7
370
    15
100
AcDbCircle
 10
12.3332211061
 20
-5.8597681665
 30
0.0
 40
0.0885000000000034
  0
CIRCLE
  5
2E5
330
1F
100
AcDbEntity
  8
0
  6
Continuous
 62
     7
370
    15
100
AcDbCircle
 10
12.3332211061
 20
-2.3597681665
 30
0.0
 40
0.0884999999999989
  0
CIRCLE
  5
2E6
330
1F
100
AcDbEntity
  8
0
  6
Continuous
 62
     7
370
    15
100
AcDbCircle
 10
13.3332211061
 20
-2.3597681665
 30
0.0
 40
0.0884999999999989
  0
LINE
  5
2E7
330
1F
100
AcDbEntity
  8
0
  6
Continuous
 62
     7
370
    15
100
AcDbLine
 10
15.0121532244
 20
0.8902321737
 30
0.0
 11
12.0832211113
 21
-2.0387001776
 31
0.0
  0
LINE
  5
2E8
330
1F
100
AcDbEntity
  8
0
  6
Continuous
 62
     7
370
    15
100
AcDbLine
 10
22.0832208988
 20
-2.0387001776
 30
0.0
 11
19.1542891341
 21
0.8902321737
 31
0.0
  0
LINE
  5
2E9
330
1F
100
AcDbEntity
  8
0
  6
Continuous
 62
     7
370
    15
100
AcDbLine
 10
19.1542891341
 20
0.8902321737
 30
0.0
 11
15.0121532244
 21
0.8902321737
 31
0.0
  0
CIRCLE
  5
2EA
330
1F
100
AcDbEntity
  8
0
  6
Continuous
 62
     7
370
    15
100
AcDbCircle
 10
18.8332211061
 20
0.6402318335
 30
0.0
 40
0.088500000000001
  0
CIRCLE
  5
2EB
330
1F
100
AcDbEntity
  8
0
  6
Continuous
 62
     7
370
    15
100
AcDbCircle
 10
15.3332211061
 20
0.6402318335
 30
0.0
 40
0.088500000000001
  0
LINE
  5
2EC
330
1F
100
AcDbEntity
  8
0
  6
Continuous
 62
     7
370
    15
100
AcDbLine
 10
18.4582212818
 20
0.5152321324
 30
0.0
 11
18.4582212818
 21
0.7652313778
 31
0.0
  0
LINE
  5
2ED
330
1F
100
AcDbEntity
  8
0
  6
Continuous
 62
     7
370
    15
100
AcDbLine
 10
16.208221034
 20
0.5152321324
 30
0.0
 11
16.208221034
 21
0.7652313778
 31
0.0
  0
MTEXT
  5
2EF
330
1F
100
AcDbEntity
  8
0
  6
Continuous
 62
     7
100
AcDbMText
 10
0.0
 20
0.4101324111
 30
0.0
 40
0.14705
 41
0.0
 71
     1
 72
     1
  1
SolidWorks Educational Edition.
  7
SLDTEXTSTYLE0
 73
     1
 44
1.0
  0
MTEXT
  5
2F0
330
1F
100
AcDbEntity
  8
0
  6
Continuous
 62
     7
100
AcDbMText
 10
0.0
 20
0.1895574111
 30
0.0
 40
0.14705
 41
0.0
 71
     1
 72
     1
  1
For Instructional Use Only.
  7
SLDTEXTSTYLE0
 73
     1
 44
1.0
  0
ENDSEC
  0
SECTION
  2
OBJECTS
  0
DICTIONARY
  5
C
330
0
100
AcDbDictionary
281
     1
  3
ACAD_GROUP
350
D
  3
ACAD_LAYOUT
350
1A
  3
ACAD_MLINESTYLE
350
17
  3
ACAD_PLOTSETTINGS
350
19
  3
ACAD_PLOTSTYLENAME
350
E
  0
DICTIONARY
  5
D
102
{ACAD_REACTORS
330
C
102
}
330
C
100
AcDbDictionary
281
     1
  0
DICTIONARY
  5
1A
102
{ACAD_REACTORS
330
C
102
}
330
C
100
AcDbDictionary
281
     1
  3
Layout1
350
1E
  3
Layout2
350
26
  3
Model
350
22
  0
DICTIONARY
  5
17
102
{ACAD_REACTORS
330
C
102
}
330
C
100
AcDbDictionary
281
     1
  3
Standard
350
18
  0
DICTIONARY
  5
19
102
{ACAD_REACTORS
330
C
102
}
330
C
100
AcDbDictionary
281
     1
  0
ACDBDICTIONARYWDFLT
  5
E
102
{ACAD_REACTORS
330
C
102
}
330
C
100
AcDbDictionary
281
     1
  3
Normal
350
F
100
AcDbDictionaryWithDefault
340
F
  0
LAYOUT
  5
1E
102
{ACAD_REACTORS
330
1A
102
}
330
1A
100
AcDbPlotSettings
  1

  2
none_device
  4

  6

 40
0.0
 41
0.0
 42
0.0
 43
0.0
 44
0.0
 45
0.0
 46
0.0
 47
0.0
 48
0.0
 49
0.0
140
0.0
141
0.0
142
1.0
143
1.0
 70
   688
 72
     0
 73
     0
 74
     5
  7

 75
    16
147
1.0
148
0.0
149
0.0
100
AcDbLayout
  1
Layout1
 70
     1
 71
     1
 10
0.0
 20
0.0
 11
12.0
 21
9.0
 12
0.0
 22
0.0
 32
0.0
 14
1.0000000000E+20
 24
1.0000000000E+20
 34
1.0000000000E+20
 15
-1.0000000000E+20
 25
-1.0000000000E+20
 35
-1.0000000000E+20
146
0.0
 13
0.0
 23
0.0
 33
0.0
 16
1.0
 26
0.0
 36
0.0
 17
0.0
 27
1.0
 37
0.0
 76
     0
330
1B
  0
LAYOUT
  5
26
102
{ACAD_REACTORS
330
1A
102
}
330
1A
100
AcDbPlotSettings
  1

  2
none_device
  4

  6

 40
0.0
 41
0.0
 42
0.0
 43
0.0
 44
0.0
 45
0.0
 46
0.0
 47
0.0
 48
0.0
 49
0.0
140
0.0
141
0.0
142
1.0
143
1.0
 70
   688
 72
     0
 73
     0
 74
     5
  7

 75
    16
147
1.0
148
0.0
149
0.0
100
AcDbLayout
  1
Layout2
 70
     1
 71
     2
 10
0.0
 20
0.0
 11
0.0
 21
0.0
 12
0.0
 22
0.0
 32
0.0
 14
0.0
 24
0.0
 34
0.0
 15
0.0
 25
0.0
 35
0.0
146
0.0
 13
0.0
 23
0.0
 33
0.0
 16
1.0
 26
0.0
 36
0.0
 17
0.0
 27
1.0
 37
0.0
 76
     0
330
23
  0
LAYOUT
  5
22
102
{ACAD_REACTORS
330
1A
102
}
330
1A
100
AcDbPlotSettings
  1

  2
none_device
  4

  6

 40
0.0
 41
0.0
 42
0.0
 43
0.0
 44
0.0
 45
0.0
 46
0.0
 47
0.0
 48
0.0
 49
0.0
140
0.0
141
0.0
142
1.0
143
1.0
 70
  1712
 72
     0
 73
     0
 74
     0
  7

 75
     0
147
1.0
148
0.0
149
0.0
100
AcDbLayout
  1
Model
 70
     1
 71
     0
 10
0.0
 20
0.0
 11
11.0
 21
8.5
 12
0.0
 22
0.0
 32
0.0
 14
0.0
 24
0.0
 34
0.0
 15
11.0
 25
8.5
 35
0.0
146
0.0
 13
0.0
 23
0.0
 33
0.0
 16
1.0
 26
0.0
 36
0.0
 17
0.0
 27
1.0
 37
0.0
 76
     0
330
1F
331
29
  0
MLINESTYLE
  5
18
102
{ACAD_REACTORS
330
17
102
}
330
17
100
AcDbMlineStyle
  2
Standard
 70
     0
  3

 62
   256
 51
90.0
 52
90.0
 71
     2
 49
0.5
 62
   256
  6
BYLAYER
 49
-0.5
 62
   256
  6
BYLAYER
  0
ACDBPLACEHOLDER
  5
F
102
{ACAD_REACTORS
330
E
102
}
330
E
  0
ENDSEC
  0
EOF
